if (_typeface_js && _typeface_js.loadFace) _typeface_js.loadFace({"glyphs":{"0":{"ha":694,"x_min":53,"x_max":642,"o":"m 642 458 q 343 -14 642 -14 q 126 107 199 -14 q 53 458 53 228 q 126 804 53 684 q 349 924 199 924 q 567 805 492 924 q 642 458 642 687 m 443 458 q 419 763 443 670 q 345 855 395 855 q 273 766 294 855 q 252 458 252 676 q 273 146 252 237 q 345 54 295 54 q 419 148 395 54 q 443 458 443 242 z "},"1":{"ha":694,"x_min":111,"x_max":623,"o":"m 465 75 l 623 58 l 623 0 l 111 0 l 111 58 l 269 75 l 269 760 l 112 709 l 112 766 l 368 917 l 465 917 l 465 75 z "},"2":{"ha":694,"x_min":58,"x_max":635,"o":"m 635 0 l 58 0 l 58 128 q 166 240 117 191 q 325 409 275 347 q 398 536 375 470 q 422 686 422 602 q 386 805 422 760 q 290 850 350 850 q 223 842 248 850 q 177 815 198 833 l 148 684 l 89 684 l 89 890 q 195 911 143 903 q 308 920 247 920 q 537 858 458 920 q 617 682 617 796 q 593 553 617 611 q 518 440 570 495 q 315 261 467 385 q 189 153 256 214 l 635 153 l 635 0 z "},"3":{"ha":694,"x_min":52,"x_max":647,"o":"m 647 248 q 558 55 647 123 q 311 -14 469 -14 q 60 14 185 -14 l 52 234 l 115 234 l 150 88 q 273 55 209 55 q 401 107 355 55 q 448 254 448 160 q 411 380 448 336 q 291 429 374 424 l 212 434 l 212 516 l 288 522 q 377 566 349 526 q 406 688 406 606 q 372 807 406 764 q 275 850 338 850 q 215 839 238 850 q 170 815 191 828 l 141 684 l 82 684 l 82 890 q 201 914 151 908 q 300 920 252 920 q 606 696 606 920 q 557 547 606 604 q 418 476 509 490 q 647 248 647 448 z "},"4":{"ha":694,"x_min":19,"x_max":669,"o":"m 578 180 l 578 0 l 395 0 l 395 180 l 19 180 l 19 290 l 429 914 l 578 914 l 578 319 l 669 319 l 669 180 l 578 180 m 395 588 q 402 732 395 664 l 132 319 l 395 319 l 395 588 z "},"5":{"ha":694,"x_min":56,"x_max":644,"o":"m 326 538 q 565 471 487 538 q 644 271 644 405 q 558 60 644 134 q 315 -14 473 -14 q 64 14 189 -14 l 56 234 l 118 234 l 153 88 q 218 64 180 73 q 288 55 257 55 q 444 264 444 55 q 405 421 444 372 q 278 469 365 469 q 190 452 230 469 l 169 443 l 101 443 l 101 909 l 576 909 l 576 758 l 176 758 l 176 519 q 326 538 259 538 z "},"6":{"ha":694,"x_min":47,"x_max":654,"o":"m 654 282 q 580 63 654 139 q 370 -14 506 -14 q 131 105 214 -14 q 47 449 47 224 q 91 702 47 595 q 214 864 135 808 q 395 920 292 920 q 599 890 500 920 l 599 684 l 540 684 l 511 815 q 408 850 464 850 q 298 764 340 850 q 248 521 256 677 q 395 553 322 553 q 586 483 519 553 q 654 282 654 413 m 367 55 q 435 109 416 55 q 454 269 454 162 q 428 416 454 365 q 349 468 401 468 q 247 452 299 468 l 247 449 q 367 55 247 55 z "},"7":{"ha":694,"x_min":79,"x_max":661,"o":"m 138 650 l 79 650 l 79 909 l 661 909 l 661 856 l 307 0 l 145 0 l 528 758 l 170 758 l 138 650 z "},"8":{"ha":694,"x_min":46,"x_max":648,"o":"m 627 686 q 591 558 627 611 q 488 482 554 506 q 607 392 566 453 q 648 245 648 331 q 574 52 648 117 q 343 -14 500 -14 q 46 245 46 -14 q 88 393 46 332 q 205 482 130 454 q 103 559 139 507 q 67 688 67 612 q 141 861 67 799 q 349 924 214 924 q 554 860 480 924 q 627 686 627 797 m 456 245 q 429 397 456 350 q 343 445 401 445 q 263 399 288 445 q 239 245 239 353 q 263 98 239 140 q 343 55 288 55 q 429 100 401 55 q 456 245 456 144 m 435 686 q 412 815 435 774 q 345 855 390 855 q 280 815 301 855 q 260 686 260 775 q 280 555 260 593 q 345 517 300 517 q 413 556 391 517 q 435 686 435 595 z "},"9":{"ha":694,"x_min":38,"x_max":644,"o":"m 38 632 q 117 845 38 770 q 338 920 197 920 q 571 808 497 920 q 644 457 644 696 q 601 199 644 304 q 477 40 558 94 q 283 -14 397 -14 q 73 16 171 -14 l 73 222 l 132 222 l 161 91 q 217 64 184 74 q 281 55 250 55 q 395 138 354 55 q 443 378 436 221 q 302 353 372 353 q 109 427 180 353 q 38 632 38 500 m 237 629 q 343 435 237 435 q 445 448 395 435 l 445 457 q 421 752 445 653 q 339 851 398 851 q 237 629 237 851 z "}," ":{"ha":347,"x_min":0,"x_max":0,"o":""},"!":{"ha":463,"x_min":118,"x_max":343,"o":"m 269 285 l 191 285 l 129 909 l 332 909 l 269 285 m 231 -20 q 151 13 184 -20 q 118 93 118 45 q 151 173 118 140 q 231 205 183 205 q 310 173 277 205 q 343 93 343 140 q 311 13 343 46 q 231 -20 278 -20 z "},"\"":{"ha":771,"x_min":154,"x_max":618,"o":"m 443 909 l 618 909 l 565 583 l 494 583 l 443 909 m 154 909 l 329 909 l 276 583 l 205 583 l 154 909 z "},"#":{"ha":694,"x_min":18,"x_max":676,"o":"m 503 279 l 451 0 l 354 0 l 406 279 l 222 279 l 172 0 l 73 0 l 125 279 l 18 279 l 18 362 l 142 362 l 178 557 l 18 557 l 18 640 l 193 640 l 243 909 l 340 909 l 290 640 l 473 640 l 524 909 l 621 909 l 570 640 l 676 640 l 676 557 l 555 557 l 521 362 l 676 362 l 676 279 l 503 279 m 275 557 l 239 362 l 422 362 l 458 557 l 275 557 z "},"$":{"ha":694,"x_min":50,"x_max":655,"o":"m 316 -14 q 165 3 243 -12 q 50 35 87 18 l 50 252 l 113 252 l 137 125 q 215 76 157 98 q 316 53 272 54 l 316 384 q 157 465 202 429 q 86 554 111 501 q 60 688 60 607 q 130 847 60 785 q 316 918 200 909 l 316 1006 l 385 1006 l 385 920 q 593 890 488 916 l 593 701 l 531 701 l 509 798 q 456 833 490 818 q 385 852 422 848 l 385 570 q 505 518 470 536 q 566 476 539 499 q 613 424 593 454 q 644 354 633 394 q 655 262 655 314 q 582 71 655 144 q 385 -11 509 -2 l 385 -106 l 316 -106 l 316 -14 m 510 224 q 498 281 510 257 q 462 321 486 304 q 385 358 439 338 l 385 52 q 478 106 446 63 q 510 224 510 149 m 205 724 q 216 670 205 692 q 246 632 226 648 q 316 596 267 616 l 316 850 q 234 809 262 842 q 205 724 205 775 z "},"%":{"ha":1389,"x_min":142,"x_max":1259,"o":"m 434 -14 l 332 -14 l 975 924 l 1078 924 l 434 -14 m 584 675 q 360 422 584 422 q 197 487 251 422 q 142 675 142 551 q 364 924 142 924 q 528 861 472 924 q 584 675 584 799 m 437 675 q 419 817 437 774 q 360 860 400 860 q 305 819 322 860 q 288 675 288 777 q 306 528 288 570 q 360 486 323 486 q 418 530 399 486 q 437 675 437 574 m 1259 235 q 1036 -18 1259 -18 q 872 46 926 -18 q 817 235 817 111 q 872 419 817 355 q 1040 484 927 484 q 1203 421 1147 484 q 1259 235 1259 359 m 1113 235 q 1094 377 1113 334 q 1036 420 1076 420 q 981 378 998 420 q 964 235 964 337 q 981 87 964 130 q 1036 45 998 45 q 1094 90 1075 45 q 1113 235 1113 134 z "},"&":{"ha":1157,"x_min":80,"x_max":1089,"o":"m 707 728 q 687 638 707 676 q 628 571 667 600 q 510 511 590 543 l 768 278 q 808 486 802 367 l 732 504 l 732 547 l 1056 547 l 1056 504 l 981 486 l 963 425 q 861 194 922 285 l 1010 60 l 1089 43 l 1089 0 l 829 0 l 748 75 q 448 -14 629 -14 q 171 50 261 -14 q 80 241 80 114 q 104 355 80 307 q 169 438 127 404 q 292 505 211 473 q 206 724 206 604 q 273 871 206 818 q 462 924 339 924 q 644 873 581 924 q 707 728 707 823 m 448 58 q 677 140 589 58 l 354 441 q 288 363 308 410 q 267 249 267 316 q 315 105 267 152 q 448 58 363 58 m 376 739 q 390 657 376 695 q 448 572 405 620 q 519 637 500 600 q 538 739 538 675 q 462 856 538 856 q 396 826 416 856 q 376 739 376 797 z "},"'":{"ha":386,"x_min":106,"x_max":281,"o":"m 106 909 l 281 909 l 228 583 l 157 583 l 106 909 z "},"(":{"ha":463,"x_min":61,"x_max":418,"o":"m 246 335 q 263 76 246 174 q 318 -97 281 -22 q 418 -218 356 -172 l 418 -296 q 208 -140 283 -224 q 97 59 132 -56 q 61 336 61 173 q 97 611 61 497 q 208 809 132 725 q 418 964 283 893 l 418 886 q 319 766 356 840 q 264 593 281 692 q 246 335 246 495 z "},")":{"ha":463,"x_min":45,"x_max":401,"o":"m 45 -296 l 45 -218 q 144 -96 106 -171 q 199 78 182 -22 q 216 335 216 177 q 199 594 216 496 q 144 766 181 692 q 45 886 106 839 l 45 964 q 256 807 180 891 q 366 610 331 724 q 401 336 401 496 q 366 59 401 174 q 255 -139 331 -55 q 45 -296 180 -224 z "},"*":{"ha":694,"x_min":58,"x_max":637,"o":"m 377 607 l 427 393 l 269 393 l 316 610 l 121 450 l 58 594 l 266 654 l 58 715 l 121 859 l 316 701 l 269 916 l 427 916 l 377 701 l 572 855 l 637 713 l 425 654 l 637 595 l 572 452 l 377 607 z "},"+":{"ha":791,"x_min":73,"x_max":719,"o":"m 444 412 l 444 138 l 347 138 l 347 412 l 73 412 l 73 509 l 347 509 l 347 785 l 444 785 l 444 509 l 719 509 l 719 412 l 444 412 z "},",":{"ha":347,"x_min":18,"x_max":294,"o":"m 294 72 q 224 -107 294 -34 q 18 -215 153 -180 l 18 -153 q 92 -119 61 -140 q 139 -72 122 -98 q 155 -24 155 -47 q 145 2 155 -9 q 104 30 135 13 q 53 114 53 57 q 83 181 53 158 q 161 204 114 204 q 256 167 218 204 q 294 72 294 130 z "},"-":{"ha":463,"x_min":51,"x_max":412,"o":"m 51 268 l 51 386 l 412 386 l 412 268 l 51 268 z "},".":{"ha":347,"x_min":61,"x_max":286,"o":"m 174 -20 q 94 13 127 -20 q 61 93 61 45 q 94 173 61 140 q 174 205 126 205 q 253 173 220 205 q 286 93 286 140 q 254 13 286 46 q 174 -20 221 -20 z "},"/":{"ha":386,"x_min":-14,"x_max":400,"o":"m 82 -14 l -14 -14 l 305 915 l 400 915 l 82 -14 z "},":":{"ha":463,"x_min":114,"x_max":338,"o":"m 226 -20 q 146 13 178 -20 q 114 93 114 45 q 146 173 114 140 q 226 205 178 205 q 306 173 273 205 q 338 93 338 140 q 306 13 338 46 q 226 -20 273 -20 m 226 426 q 146 458 178 426 q 114 538 114 491 q 145 618 114 586 q 226 651 177 651 q 306 618 274 651 q 338 538 338 585 q 306 459 338 492 q 226 426 273 426 z "},";":{"ha":463,"x_min":72,"x_max":349,"o":"m 227 426 q 148 458 180 426 q 115 538 115 491 q 147 618 115 586 q 227 651 178 651 q 308 618 275 651 q 340 538 340 585 q 307 459 340 492 q 227 426 275 426 m 349 72 q 278 -106 349 -34 q 72 -215 208 -179 l 72 -153 q 145 -119 115 -140 q 193 -72 176 -98 q 210 -24 210 -46 q 199 2 210 -9 q 157 30 188 14 q 105 114 105 57 q 135 179 105 155 q 215 204 164 204 q 310 167 271 204 q 349 72 349 130 z "},"<":{"ha":791,"x_min":69,"x_max":715,"o":"m 69 431 l 69 492 l 715 809 l 715 712 l 195 461 l 715 210 l 715 113 l 69 431 z "},"=":{"ha":791,"x_min":69,"x_max":715,"o":"m 715 371 l 715 273 l 69 273 l 69 371 l 715 371 m 715 648 l 715 551 l 69 551 l 69 648 l 715 648 z "},">":{"ha":791,"x_min":71,"x_max":716,"o":"m 71 113 l 71 210 l 591 461 l 71 712 l 71 809 l 716 492 l 716 431 l 71 113 z "},"?":{"ha":694,"x_min":84,"x_max":612,"o":"m 302 -20 q 222 13 254 -20 q 190 93 190 45 q 222 173 190 140 q 302 205 254 205 q 381 173 349 205 q 414 93 414 140 q 382 13 414 46 q 302 -20 349 -20 m 333 264 l 263 264 l 224 477 l 289 494 q 388 556 359 512 q 416 674 416 600 q 383 809 416 767 q 275 850 351 850 q 174 822 218 850 l 144 690 l 84 690 l 84 890 q 304 920 197 920 q 612 679 612 920 q 559 513 612 581 q 410 418 507 445 l 351 401 l 333 264 z "},"@":{"ha":1292,"x_min":73,"x_max":1219,"o":"m 1219 510 q 1154 269 1219 382 q 975 86 1088 155 q 736 17 861 17 q 649 102 652 17 l 614 73 q 465 17 546 17 q 373 64 407 17 q 339 192 339 112 q 374 362 339 279 q 470 506 408 446 q 607 596 531 566 q 803 627 683 627 q 927 619 862 627 l 845 252 q 834 193 839 227 q 829 146 829 159 q 835 119 829 130 q 863 108 841 108 q 980 162 927 108 q 1064 311 1033 216 q 1095 509 1095 406 q 998 765 1095 674 q 732 857 901 857 q 457 780 578 857 q 267 563 336 704 q 197 246 197 421 q 247 18 197 118 q 389 -137 296 -82 q 607 -193 481 -193 q 794 -165 707 -193 q 974 -74 882 -138 l 1004 -117 q 806 -229 907 -195 q 586 -264 705 -264 q 315 -200 431 -264 q 135 -20 198 -136 q 73 245 73 96 q 160 596 73 439 q 399 839 248 753 q 734 925 550 925 q 1093 816 966 925 q 1219 510 1219 707 m 502 214 q 516 140 502 165 q 550 115 531 115 q 603 128 573 115 q 654 161 633 142 l 736 541 q 694 545 724 545 q 589 509 625 545 q 527 387 552 473 q 502 214 502 301 z "},"A":{"ha":1003,"x_min":14,"x_max":993,"o":"m 290 50 l 290 0 l 14 0 l 14 50 l 81 68 l 405 917 l 602 917 l 924 68 l 993 50 l 993 0 l 588 0 l 588 50 l 693 68 l 606 303 l 257 303 l 174 68 l 290 50 m 435 780 l 285 378 l 581 378 l 435 780 z "},"B":{"ha":926,"x_min":23,"x_max":888,"o":"m 595 685 q 561 800 595 764 q 448 835 527 835 l 354 835 l 354 518 l 454 518 q 561 556 526 518 q 595 685 595 594 m 664 265 q 619 399 664 355 q 471 444 574 444 l 354 444 l 354 75 q 508 71 452 71 q 626 119 587 71 q 664 265 664 167 m 23 0 l 23 50 l 140 68 l 140 842 l 23 860 l 23 909 l 465 909 q 732 861 646 909 q 818 704 818 812 q 767 564 818 623 q 631 486 716 505 q 823 417 758 473 q 888 265 888 361 q 790 64 888 133 q 510 -4 692 -4 l 201 0 l 23 0 z "},"C":{"ha":1003,"x_min":68,"x_max":897,"o":"m 553 -14 q 196 108 324 -14 q 68 444 68 229 q 190 799 68 677 q 552 920 313 920 q 880 874 710 920 l 884 656 l 823 656 l 804 787 q 595 848 714 848 q 366 750 438 848 q 293 446 293 652 q 369 156 293 256 q 590 56 445 56 q 724 77 667 56 q 814 125 781 97 l 836 274 l 897 274 l 893 43 q 734 3 832 20 q 553 -14 637 -14 z "},"D":{"ha":1003,"x_min":24,"x_max":935,"o":"m 710 454 q 638 743 710 651 q 404 835 566 835 l 354 835 l 354 77 q 472 72 419 72 q 611 110 560 72 q 686 229 663 148 q 710 454 710 310 m 456 909 q 818 799 701 909 q 935 460 935 688 q 823 112 935 226 q 485 -3 711 -3 l 180 0 l 24 0 l 24 50 l 141 68 l 141 842 l 24 860 l 24 909 l 456 909 z "},"E":{"ha":926,"x_min":24,"x_max":855,"o":"m 24 50 l 140 68 l 140 842 l 24 860 l 24 909 l 798 909 l 798 678 l 736 678 l 715 825 q 495 835 639 835 l 354 835 l 354 501 l 592 501 l 613 602 l 673 602 l 673 322 l 613 322 l 592 425 l 354 425 l 354 75 l 526 75 q 755 85 701 75 l 793 254 l 855 254 l 842 0 l 24 0 l 24 50 z "},"F":{"ha":848,"x_min":24,"x_max":782,"o":"m 354 388 l 354 68 l 505 50 l 505 0 l 33 0 l 33 50 l 140 68 l 140 842 l 24 860 l 24 909 l 782 909 l 782 665 l 718 665 l 696 825 q 587 832 663 830 q 466 835 510 835 l 354 835 l 354 463 l 576 463 l 597 578 l 657 578 l 657 271 l 597 271 l 576 388 l 354 388 z "},"G":{"ha":1080,"x_min":68,"x_max":1042,"o":"m 954 47 q 758 3 869 20 q 558 -14 647 -14 q 299 41 410 -14 q 128 199 188 95 q 68 444 68 302 q 198 796 68 673 q 571 920 329 920 q 679 915 630 920 q 769 902 727 910 q 924 862 811 894 l 924 653 l 863 653 l 846 771 q 728 828 793 808 q 595 848 664 848 q 365 750 437 848 q 293 446 293 652 q 369 155 293 254 q 590 56 446 56 q 740 80 669 56 l 740 343 l 623 361 l 623 411 l 1042 411 l 1042 361 l 954 343 l 954 47 z "},"H":{"ha":1080,"x_min":24,"x_max":1057,"o":"m 24 0 l 24 50 l 140 68 l 140 842 l 24 860 l 24 909 l 471 909 l 471 860 l 354 842 l 354 505 l 726 505 l 726 842 l 609 860 l 609 909 l 1057 909 l 1057 860 l 940 842 l 940 68 l 1057 50 l 1057 0 l 609 0 l 609 50 l 726 68 l 726 431 l 354 431 l 354 68 l 471 50 l 471 0 l 24 0 z "},"I":{"ha":541,"x_min":47,"x_max":494,"o":"m 377 68 l 494 50 l 494 0 l 47 0 l 47 50 l 163 68 l 163 842 l 47 860 l 47 909 l 494 909 l 494 860 l 377 842 l 377 68 z "},"J":{"ha":694,"x_min":62,"x_max":656,"o":"m 340 842 l 223 860 l 223 909 l 656 909 l 656 860 l 553 842 l 553 293 q 472 66 553 146 q 240 -14 391 -14 q 140 -8 189 -14 q 62 7 91 -2 l 62 213 l 122 213 l 142 92 q 179 67 155 76 q 231 58 203 58 q 309 91 278 58 q 340 187 340 123 l 340 842 z "},"K":{"ha":1080,"x_min":24,"x_max":1069,"o":"m 996 909 l 996 860 l 885 842 l 585 577 l 985 68 l 1069 50 l 1069 0 l 772 0 l 433 438 l 354 370 l 354 68 l 485 50 l 485 0 l 24 0 l 24 50 l 140 68 l 140 842 l 24 860 l 24 909 l 471 909 l 471 860 l 354 842 l 354 472 l 768 842 l 685 860 l 685 909 l 996 909 z "},"L":{"ha":926,"x_min":24,"x_max":868,"o":"m 494 860 l 354 842 l 354 72 l 539 72 q 751 85 684 72 l 807 275 l 868 275 l 842 0 l 24 0 l 24 50 l 140 68 l 140 842 l 24 860 l 24 909 l 494 909 l 494 860 z "},"M":{"ha":1311,"x_min":24,"x_max":1271,"o":"m 598 0 l 561 0 l 225 768 l 225 68 l 347 50 l 347 0 l 24 0 l 24 50 l 140 68 l 140 842 l 24 860 l 24 909 l 381 909 l 641 311 l 906 909 l 1271 909 l 1271 860 l 1154 842 l 1154 68 l 1271 50 l 1271 0 l 819 0 l 819 50 l 941 68 l 941 768 l 598 0 z "},"N":{"ha":1003,"x_min":26,"x_max":985,"o":"m 783 842 l 661 860 l 661 909 l 985 909 l 985 860 l 868 842 l 868 0 l 789 0 l 228 731 l 228 68 l 350 50 l 350 0 l 26 0 l 26 50 l 143 68 l 143 842 l 26 860 l 26 909 l 338 909 l 783 328 l 783 842 z "},"O":{"ha":1080,"x_min":68,"x_max":1013,"o":"m 293 456 q 352 147 293 239 q 541 54 412 54 q 728 147 669 54 q 787 456 787 240 q 728 761 787 671 q 541 851 669 851 q 352 761 412 851 q 293 456 293 671 m 68 456 q 541 920 68 920 q 893 802 774 920 q 1013 456 1013 684 q 892 105 1013 224 q 541 -14 771 -14 q 189 105 311 -14 q 68 456 68 224 z "},"P":{"ha":848,"x_min":24,"x_max":809,"o":"m 591 640 q 550 792 591 749 q 408 835 510 835 l 355 835 l 355 431 l 411 431 q 548 479 505 431 q 591 640 591 526 m 355 357 l 355 68 l 506 50 l 506 0 l 33 0 l 33 50 l 140 68 l 140 842 l 24 860 l 24 909 l 425 909 q 713 845 618 909 q 809 642 809 780 q 477 357 809 357 l 355 357 z "},"Q":{"ha":1080,"x_min":68,"x_max":1019,"o":"m 68 456 q 541 920 68 920 q 893 802 774 920 q 1013 456 1013 684 q 759 22 1013 119 l 793 -20 q 964 -144 892 -144 q 1019 -139 999 -144 l 1019 -197 q 953 -215 1005 -204 q 859 -225 901 -225 q 771 -216 810 -225 q 700 -188 733 -207 q 636 -137 667 -168 q 532 -14 604 -105 q 187 107 307 -12 q 68 456 68 227 m 293 456 q 352 147 293 239 q 541 54 412 54 q 728 147 669 54 q 787 456 787 240 q 728 761 787 671 q 541 851 669 851 q 352 761 412 851 q 293 456 293 671 z "},"R":{"ha":1003,"x_min":24,"x_max":1015,"o":"m 355 385 l 355 68 l 471 50 l 471 0 l 33 0 l 33 50 l 140 68 l 140 842 l 24 860 l 24 909 l 458 909 q 758 848 659 909 q 857 655 857 786 q 674 404 857 460 l 917 68 l 1015 50 l 1015 0 l 721 0 l 467 385 l 355 385 m 646 654 q 604 795 646 755 q 450 835 562 835 l 355 835 l 355 460 l 453 460 q 602 503 557 460 q 646 654 646 547 z "},"S":{"ha":772,"x_min":74,"x_max":713,"o":"m 74 279 l 134 279 l 164 133 q 250 77 193 100 q 370 55 308 55 q 564 215 564 55 q 527 300 564 265 q 411 361 490 334 q 243 424 294 400 q 157 481 192 448 q 100 560 121 513 q 79 674 79 606 q 161 857 79 794 q 400 920 243 920 q 652 890 514 920 l 652 674 l 592 674 l 562 799 q 400 849 492 849 q 272 818 317 849 q 227 724 227 787 q 264 646 227 678 q 381 589 302 614 q 594 500 536 538 q 683 407 652 463 q 713 276 713 351 q 372 -14 713 -14 q 213 0 294 -14 q 74 35 132 13 l 74 279 z "},"T":{"ha":926,"x_min":22,"x_max":905,"o":"m 210 0 l 210 50 l 355 68 l 355 838 l 320 838 q 102 824 165 838 l 83 655 l 22 655 l 22 909 l 905 909 l 905 655 l 843 655 l 825 824 q 602 836 768 836 l 569 836 l 569 68 l 713 50 l 713 0 l 210 0 z "},"U":{"ha":1003,"x_min":35,"x_max":968,"o":"m 568 83 q 726 140 670 83 q 781 307 781 197 l 781 842 l 659 860 l 659 909 l 968 909 l 968 860 l 865 842 l 865 313 q 774 71 865 155 q 515 -13 684 -13 q 235 72 332 -13 q 138 318 138 157 l 138 842 l 35 860 l 35 909 l 468 909 l 468 860 l 351 842 l 351 309 q 407 141 351 199 q 568 83 462 83 z "},"V":{"ha":1003,"x_min":16,"x_max":987,"o":"m 987 909 l 987 860 l 901 842 l 550 -21 l 460 -21 l 90 842 l 16 860 l 16 909 l 411 909 l 411 860 l 317 842 l 572 245 l 811 842 l 720 860 l 720 909 l 987 909 z "},"W":{"ha":1389,"x_min":20,"x_max":1367,"o":"m 1018 -21 l 935 -21 l 708 540 l 484 -21 l 400 -21 l 99 842 l 20 860 l 20 909 l 428 909 l 428 860 l 321 842 l 515 300 l 728 832 l 813 832 l 1027 302 l 1187 842 l 1073 860 l 1073 909 l 1367 909 l 1367 860 l 1288 842 l 1018 -21 z "},"X":{"ha":1003,"x_min":26,"x_max":987,"o":"m 224 68 l 336 50 l 336 0 l 26 0 l 26 50 l 126 68 l 418 439 l 158 842 l 56 860 l 56 909 l 498 909 l 498 860 l 383 842 l 542 597 l 735 842 l 623 860 l 623 909 l 934 909 l 934 860 l 833 842 l 586 528 l 884 68 l 987 50 l 987 0 l 544 0 l 544 50 l 659 68 l 463 371 l 224 68 z "},"Y":{"ha":1003,"x_min":24,"x_max":977,"o":"m 618 358 l 618 68 l 762 50 l 762 0 l 259 0 l 259 50 l 404 68 l 404 354 l 127 842 l 24 860 l 24 909 l 492 909 l 492 860 l 370 842 l 578 461 l 779 842 l 667 860 l 667 909 l 977 909 l 977 860 l 880 842 l 618 358 z "},"Z":{"ha":926,"x_min":66,"x_max":856,"o":"m 66 77 l 570 838 l 407 838 q 190 824 253 838 l 169 681 l 109 681 l 109 909 l 811 909 l 811 838 l 304 71 l 494 71 q 647 78 572 71 q 755 93 722 85 l 795 267 l 856 267 l 838 0 l 66 0 l 66 77 z "},"[":{"ha":463,"x_min":103,"x_max":412,"o":"m 103 -186 l 103 964 l 412 964 l 412 918 l 275 890 l 275 -113 l 412 -140 l 412 -186 l 103 -186 z "},"\\":{"ha":386,"x_min":-14,"x_max":400,"o":"m -14 915 l 81 915 l 400 -14 l 304 -14 l -14 915 z "},"]":{"ha":463,"x_min":50,"x_max":359,"o":"m 50 -186 l 50 -140 l 188 -113 l 188 890 l 50 918 l 50 964 l 359 964 l 359 -186 l 50 -186 z "},"^":{"ha":807,"x_min":83,"x_max":724,"o":"m 627 264 l 404 780 l 180 264 l 83 264 l 373 909 l 434 909 l 724 264 l 627 264 z "},"_":{"ha":694,"x_min":-11,"x_max":705,"o":"m -11 -193 l -11 -96 l 705 -96 l 705 -193 l -11 -193 z "},"`":{"ha":463,"x_min":60,"x_max":365,"o":"m 307 758 l 60 940 l 60 965 l 253 965 l 365 780 l 365 758 l 307 758 z "},"a":{"ha":694,"x_min":45,"x_max":673,"o":"m 370 652 q 610 475 610 652 l 610 61 l 673 45 l 673 0 l 439 0 l 424 49 q 328 0 371 13 q 242 -14 286 -14 q 45 176 45 -14 q 74 291 45 248 q 158 355 103 334 q 331 378 213 376 l 414 380 l 414 473 q 319 589 414 589 q 192 553 262 589 l 166 474 l 121 474 l 121 628 q 272 648 224 644 q 370 652 320 652 m 414 320 l 357 318 q 266 283 291 315 q 240 180 240 252 q 260 96 240 123 q 313 68 281 68 q 414 92 359 68 l 414 320 z "},"b":{"ha":772,"x_min":18,"x_max":716,"o":"m 517 337 q 487 521 517 463 q 385 579 456 579 q 329 573 359 579 q 279 556 298 568 l 279 68 q 385 58 322 58 q 485 123 452 58 q 517 337 517 189 m 83 904 l 18 920 l 18 964 l 279 964 l 279 730 q 272 602 279 667 q 350 639 299 624 q 450 654 401 654 q 652 578 589 654 q 716 336 716 503 q 634 79 716 172 q 404 -14 553 -14 q 83 33 294 -14 l 83 904 z "},"c":{"ha":616,"x_min":47,"x_max":582,"o":"m 582 39 q 497 1 551 14 q 387 -13 444 -13 q 132 69 216 -13 q 47 320 47 151 q 86 500 47 425 q 195 615 124 575 q 361 654 267 654 q 568 631 456 654 l 568 442 l 519 442 l 490 554 q 445 578 467 571 q 386 585 422 585 q 313 553 346 585 q 263 463 281 521 q 245 324 245 405 q 287 130 245 188 q 422 71 330 71 q 582 91 515 71 l 582 39 z "},"d":{"ha":772,"x_min":56,"x_max":757,"o":"m 497 36 q 439 4 459 12 q 393 -9 418 -4 q 336 -14 367 -14 q 125 67 195 -14 q 56 317 56 149 q 131 568 56 482 q 346 654 205 654 q 495 636 420 654 q 491 741 491 659 l 491 903 l 426 919 l 426 964 l 687 964 l 687 61 l 757 45 l 757 0 l 511 0 l 497 36 m 255 322 q 287 129 255 195 q 378 62 319 62 q 491 91 433 62 l 491 571 q 384 585 438 585 q 289 518 323 585 q 255 322 255 452 z "},"e":{"ha":616,"x_min":47,"x_max":581,"o":"m 335 653 q 523 584 465 653 q 581 369 581 515 l 581 313 l 246 313 l 246 302 q 262 159 246 201 q 315 94 279 116 q 416 71 352 71 q 566 91 475 71 l 566 39 q 470 2 529 16 q 354 -13 410 -13 q 122 69 197 -13 q 47 322 47 151 q 119 571 47 489 q 335 653 191 653 m 328 585 q 267 541 287 585 q 247 385 247 496 l 395 385 q 389 512 395 475 q 368 567 382 549 q 328 585 353 585 z "},"f":{"ha":463,"x_min":10,"x_max":476,"o":"m 106 567 l 10 567 l 10 614 l 106 640 l 106 709 q 173 908 106 839 q 363 978 239 978 q 476 965 431 978 l 476 813 l 433 813 l 413 887 q 370 903 397 903 q 302 730 302 903 l 302 637 l 432 637 l 432 567 l 302 567 l 302 61 l 406 45 l 406 0 l 37 0 l 37 45 l 106 61 l 106 567 z "},"g":{"ha":694,"x_min":37,"x_max":681,"o":"m 174 235 q 54 434 54 286 q 127 597 54 540 q 339 654 201 654 q 414 649 368 654 q 481 637 460 644 l 633 713 l 657 684 l 580 574 q 622 434 622 522 q 549 268 622 326 q 336 210 476 210 q 233 218 283 210 l 216 167 q 241 130 218 147 q 300 113 265 113 l 448 113 q 681 -66 681 113 q 641 -194 681 -140 q 522 -277 600 -247 q 327 -307 444 -307 q 113 -267 189 -307 q 37 -158 37 -227 q 61 -99 37 -127 q 157 -29 86 -71 q 89 25 117 -14 q 61 106 61 64 l 174 235 m 532 -113 q 446 -48 532 -48 l 231 -48 q 172 -146 172 -92 q 213 -212 172 -190 q 328 -233 255 -233 q 479 -201 426 -233 q 532 -113 532 -170 m 335 278 q 408 317 385 278 q 430 434 430 356 q 408 549 430 512 q 335 586 386 586 q 267 549 288 586 q 245 434 245 512 q 267 317 245 356 q 335 278 288 278 z "},"h":{"ha":772,"x_min":35,"x_max":751,"o":"m 296 688 q 292 582 296 643 l 338 606 q 511 654 435 654 q 688 467 688 654 l 688 61 l 751 45 l 751 0 l 435 0 l 435 45 l 492 61 l 492 440 q 468 529 492 497 q 399 561 444 561 q 296 538 347 561 l 296 61 l 354 45 l 354 0 l 37 0 l 37 45 l 100 61 l 100 903 l 35 919 l 35 964 l 296 964 l 296 688 z "},"i":{"ha":386,"x_min":31,"x_max":366,"o":"m 296 61 l 366 45 l 366 0 l 31 0 l 31 45 l 100 61 l 100 576 l 35 593 l 35 637 l 296 637 l 296 61 m 93 860 q 124 934 93 904 q 197 964 155 964 q 271 933 241 964 q 301 860 301 903 q 271 786 301 817 q 197 755 241 755 q 123 786 154 755 q 93 860 93 816 z "},"j":{"ha":463,"x_min":-12,"x_max":375,"o":"m 375 860 q 345 786 375 817 q 271 755 315 755 q 197 786 228 755 q 167 860 167 816 q 197 933 167 903 q 271 964 227 964 q 345 933 314 964 q 375 860 375 903 m 370 -26 q 301 -225 370 -154 q 105 -296 232 -296 q -12 -283 45 -296 l -12 -131 l 32 -131 l 61 -208 q 94 -221 77 -221 q 152 -176 131 -221 q 174 -48 174 -131 l 174 570 l 61 593 l 61 637 l 370 637 l 370 -26 z "},"k":{"ha":772,"x_min":35,"x_max":770,"o":"m 296 306 l 545 577 l 477 593 l 477 637 l 720 637 l 720 593 l 646 578 l 494 418 l 713 61 l 770 45 l 770 0 l 464 0 l 464 45 l 501 61 l 374 284 l 296 230 l 296 61 l 359 45 l 359 0 l 39 0 l 39 45 l 100 61 l 100 903 l 35 919 l 35 964 l 296 964 l 296 306 z "},"l":{"ha":386,"x_min":27,"x_max":362,"o":"m 292 61 l 362 45 l 362 0 l 27 0 l 27 45 l 96 61 l 96 903 l 31 919 l 31 964 l 292 964 l 292 61 z "},"m":{"ha":1157,"x_min":37,"x_max":1133,"o":"m 294 582 l 340 606 q 511 654 435 654 q 663 572 625 654 q 897 654 802 654 q 1069 467 1069 654 l 1069 61 l 1133 45 l 1133 0 l 817 0 l 817 45 l 873 61 l 873 440 q 851 529 873 497 q 785 561 829 561 q 676 532 734 561 q 683 467 683 504 l 683 61 l 747 45 l 747 0 l 430 0 l 430 45 l 487 61 l 487 440 q 465 529 487 497 q 398 561 443 561 q 296 534 353 561 l 296 61 l 354 45 l 354 0 l 37 0 l 37 45 l 100 61 l 100 576 l 37 593 l 37 637 l 285 637 l 294 582 z "},"n":{"ha":772,"x_min":37,"x_max":751,"o":"m 294 582 l 340 606 q 511 654 435 654 q 688 467 688 654 l 688 61 l 751 45 l 751 0 l 435 0 l 435 45 l 492 61 l 492 440 q 468 529 492 497 q 399 561 444 561 q 296 538 347 561 l 296 61 l 354 45 l 354 0 l 37 0 l 37 45 l 100 61 l 100 576 l 37 593 l 37 637 l 285 637 l 294 582 z "},"o":{"ha":694,"x_min":53,"x_max":642,"o":"m 642 322 q 568 68 642 151 q 343 -14 494 -14 q 125 70 197 -14 q 53 322 53 153 q 126 573 53 491 q 349 654 199 654 q 571 570 500 654 q 642 322 642 486 m 443 322 q 421 529 443 471 q 345 586 399 586 q 272 531 292 586 q 252 322 252 476 q 272 110 252 165 q 345 54 293 54 q 420 113 398 54 q 443 322 443 172 z "},"p":{"ha":772,"x_min":18,"x_max":716,"o":"m 277 605 q 454 654 350 654 q 651 576 587 654 q 716 330 716 498 q 641 75 716 163 q 425 -14 566 -14 q 279 5 353 -14 q 283 -96 283 -40 l 283 -235 l 377 -251 l 377 -296 l 18 -296 l 18 -251 l 87 -235 l 87 576 l 18 593 l 18 637 l 276 637 l 277 605 m 517 326 q 399 579 517 579 q 283 553 336 579 l 283 73 q 398 58 338 58 q 517 326 517 58 z "},"q":{"ha":772,"x_min":57,"x_max":760,"o":"m 256 304 q 287 122 256 182 q 391 62 319 62 q 446 69 417 62 q 494 87 475 76 l 494 573 q 391 585 448 585 q 289 516 322 585 q 256 304 256 448 m 690 -235 l 760 -251 l 760 -296 l 401 -296 l 401 -251 l 494 -235 l 494 -89 q 501 39 494 -26 q 335 -14 435 -14 q 125 70 193 -14 q 57 321 57 154 q 133 570 57 485 q 359 654 210 654 q 548 639 408 654 l 629 668 l 690 668 l 690 -235 z "},"r":{"ha":616,"x_min":37,"x_max":587,"o":"m 313 505 q 444 622 386 587 q 550 658 502 658 l 587 658 l 587 425 l 549 425 l 509 511 q 412 492 466 511 q 316 448 357 473 l 316 61 l 418 45 l 418 0 l 37 0 l 37 45 l 120 61 l 120 576 l 37 593 l 37 637 l 305 637 l 313 505 z "},"s":{"ha":541,"x_min":42,"x_max":507,"o":"m 507 202 q 441 41 507 96 q 251 -14 376 -14 q 137 -2 199 -14 q 43 21 75 9 l 43 195 l 88 195 l 114 105 q 176 65 138 81 q 255 50 215 50 q 343 75 314 50 q 372 140 372 100 q 344 199 372 177 q 222 251 316 222 q 83 334 124 281 q 42 465 42 387 q 106 603 42 551 q 273 654 171 654 q 460 635 342 654 l 460 471 l 416 471 l 394 546 q 339 578 374 566 q 271 591 303 591 q 199 571 222 591 q 176 516 176 551 q 205 457 176 480 q 325 407 234 434 q 465 327 424 376 q 507 202 507 277 z "},"t":{"ha":463,"x_min":22,"x_max":456,"o":"m 297 -14 q 156 28 205 -14 q 106 147 106 69 l 106 567 l 22 567 l 22 611 l 121 637 l 200 782 l 302 782 l 302 637 l 436 637 l 436 567 l 302 567 l 302 159 q 320 93 302 115 q 368 71 338 71 q 456 81 404 71 l 456 24 q 387 -2 436 9 q 297 -14 338 -14 z "},"u":{"ha":772,"x_min":21,"x_max":735,"o":"m 478 56 l 432 32 q 261 -17 337 -17 q 85 171 85 -17 l 85 576 l 21 593 l 21 637 l 281 637 l 281 197 q 305 109 281 140 q 374 77 329 77 q 477 100 425 77 l 477 576 l 418 593 l 418 637 l 673 637 l 673 61 l 735 45 l 735 0 l 488 0 l 478 56 z "},"v":{"ha":694,"x_min":0,"x_max":694,"o":"m 393 -14 l 311 -14 l 45 576 l 0 593 l 0 637 l 326 637 l 326 593 l 250 575 l 414 212 l 561 576 l 486 593 l 486 637 l 694 637 l 694 593 l 648 579 l 393 -14 z "},"w":{"ha":1003,"x_min":4,"x_max":996,"o":"m 593 574 l 740 211 l 863 576 l 789 593 l 789 637 l 996 637 l 996 593 l 947 579 l 732 -14 l 650 -14 l 505 344 l 359 -14 l 277 -14 l 52 576 l 4 593 l 4 637 l 319 637 l 319 593 l 243 575 l 380 211 l 528 574 l 593 574 z "},"x":{"ha":694,"x_min":5,"x_max":687,"o":"m 21 593 l 21 637 l 361 637 l 361 593 l 290 575 l 383 432 l 506 576 l 442 593 l 442 637 l 659 637 l 659 593 l 603 579 l 424 369 l 626 58 l 687 44 l 687 0 l 347 0 l 347 44 l 418 60 l 307 231 l 159 58 l 222 44 l 222 0 l 5 0 l 5 44 l 62 55 l 266 294 l 83 576 l 21 593 z "},"y":{"ha":694,"x_min":14,"x_max":681,"o":"m 313 -20 l 58 576 l 14 593 l 14 637 l 340 637 l 340 593 l 264 575 l 414 222 l 547 576 l 473 593 l 473 637 l 681 637 l 681 593 l 635 579 l 383 -40 q 307 -200 340 -151 q 235 -275 275 -250 q 144 -300 195 -300 q 33 -287 90 -300 l 33 -123 l 73 -123 l 102 -208 q 153 -224 122 -224 q 198 -212 178 -224 q 235 -176 218 -199 q 268 -120 252 -153 q 313 -20 283 -86 z "},"z":{"ha":616,"x_min":27,"x_max":586,"o":"m 27 0 l 27 31 l 320 576 l 248 576 q 174 570 210 576 q 125 553 139 564 l 104 448 l 56 448 l 56 637 l 551 637 l 551 604 l 258 61 l 359 61 q 441 70 398 61 q 501 93 484 79 l 537 240 l 586 240 l 568 0 l 27 0 z "},"{":{"ha":547,"x_min":45,"x_max":493,"o":"m 401 -186 q 245 -134 300 -186 q 191 14 191 -81 l 191 214 q 156 322 191 286 q 45 361 121 359 l 45 419 q 152 455 114 421 q 191 566 191 488 l 191 765 q 243 912 191 861 q 401 964 296 964 l 493 964 l 493 905 l 451 905 q 384 875 404 905 q 364 786 364 845 l 364 562 q 327 452 364 498 q 227 392 290 405 l 227 390 q 328 330 291 376 q 364 218 364 285 l 364 -8 q 384 -97 364 -66 q 451 -127 404 -127 l 493 -127 l 493 -186 l 401 -186 z "},"|":{"ha":306,"x_min":104,"x_max":201,"o":"m 104 -300 l 104 964 l 201 964 l 201 -300 l 104 -300 z "},"}":{"ha":547,"x_min":54,"x_max":503,"o":"m 54 -186 l 54 -127 l 96 -127 q 163 -97 143 -127 q 183 -8 183 -66 l 183 218 q 220 330 183 285 q 320 390 256 376 l 320 392 q 220 451 258 405 q 183 562 183 496 l 183 786 q 163 875 183 845 q 96 905 143 905 l 54 905 l 54 964 l 146 964 q 304 912 251 964 q 357 765 357 861 l 357 566 q 395 455 357 488 q 503 419 433 421 l 503 361 q 391 322 426 359 q 357 214 357 285 l 357 14 q 302 -134 357 -81 q 146 -186 247 -186 l 54 -186 z "},"~":{"ha":722,"x_min":11,"x_max":713,"o":"m 516 326 q 436 346 477 326 q 345 408 395 366 q 258 474 286 457 q 208 490 230 490 q 137 453 159 490 q 106 326 115 415 l 11 326 q 43 479 21 427 q 105 559 66 530 q 208 587 145 587 q 286 569 245 587 q 384 504 326 551 q 466 440 437 457 q 516 423 495 423 q 583 462 561 423 q 616 587 606 501 l 713 587 q 677 434 700 485 q 615 354 654 382 q 516 326 576 326 z "}," ":{"ha":347,"x_min":0,"x_max":0,"o":"z "},"¡":{"ha":463,"x_min":118,"x_max":343,"o":"m 192 347 l 270 347 l 332 -277 l 130 -277 l 192 347 m 231 652 q 310 619 277 652 q 343 539 343 587 q 311 459 343 492 q 231 427 278 427 q 151 459 184 427 q 118 539 118 492 q 151 619 118 586 q 231 652 183 652 z "},"¢":{"ha":694,"x_min":60,"x_max":629,"o":"m 629 178 q 551 143 599 156 q 454 127 504 130 l 454 0 l 391 0 l 391 127 q 60 459 60 140 q 100 639 60 564 q 215 754 140 714 q 390 793 289 793 l 391 793 l 391 909 l 454 909 l 454 791 q 614 770 542 784 l 614 581 l 566 581 l 529 693 q 454 722 494 715 l 454 210 q 629 230 553 210 l 629 178 m 258 463 q 290 292 258 351 q 391 217 323 233 l 391 721 q 293 640 329 708 q 258 463 258 571 z "},"£":{"ha":694,"x_min":56,"x_max":651,"o":"m 651 151 l 651 0 l 59 0 l 59 83 l 107 125 q 204 292 204 207 q 193 354 204 322 q 166 420 182 385 l 56 420 l 56 489 l 115 489 q 70 682 70 591 q 150 858 70 796 q 391 920 231 920 q 473 915 431 920 q 602 890 515 910 l 602 684 l 543 684 l 513 815 q 391 851 454 851 q 269 682 269 851 q 287 489 269 591 l 457 489 l 457 420 l 296 420 q 305 317 305 360 q 287 220 305 260 q 244 151 269 181 l 651 151 z "},"¤":{"ha":694,"x_min":57,"x_max":639,"o":"m 498 239 q 347 192 433 192 q 196 239 266 192 l 125 168 l 57 237 l 126 307 q 81 458 81 376 q 126 610 81 542 l 57 681 l 127 751 l 196 679 q 347 726 267 726 q 498 679 427 726 l 570 750 l 639 682 l 568 610 q 615 458 615 540 q 568 307 615 378 l 639 237 l 571 168 l 498 239 m 347 632 q 225 581 275 632 q 175 458 175 530 q 225 337 175 387 q 347 286 276 286 q 470 336 418 286 q 521 458 521 387 q 470 581 521 530 q 347 632 419 632 z "},"¥":{"ha":694,"x_min":1,"x_max":693,"o":"m 1 865 l 1 909 l 340 909 l 340 865 l 264 847 l 404 481 l 547 848 l 473 865 l 473 909 l 693 909 l 693 865 l 635 851 l 460 433 l 614 433 l 614 364 l 448 364 l 448 271 l 614 271 l 614 201 l 448 201 l 448 61 l 545 45 l 545 0 l 156 0 l 156 45 l 252 61 l 252 201 l 78 201 l 78 271 l 252 271 l 252 364 l 78 364 l 78 433 l 236 433 l 58 848 l 1 865 z "},"¦":{"ha":306,"x_min":104,"x_max":201,"o":"m 104 543 l 104 964 l 201 964 l 201 543 l 104 543 m 104 -300 l 104 122 l 201 122 l 201 -300 l 104 -300 z "},"§":{"ha":694,"x_min":88,"x_max":606,"o":"m 580 28 q 514 -120 580 -68 q 324 -173 448 -173 q 211 -162 273 -173 q 117 -138 149 -151 l 117 39 l 161 39 l 187 -51 q 252 -94 214 -77 q 328 -110 291 -110 q 413 -84 383 -110 q 443 -20 443 -59 q 415 53 443 20 q 331 115 387 86 l 266 149 q 159 218 193 187 q 107 289 125 250 q 88 380 88 329 q 127 496 88 448 q 236 566 167 545 q 143 646 172 600 q 115 753 115 691 q 179 891 115 840 q 345 943 243 943 q 533 923 415 943 l 533 760 l 488 760 l 467 834 q 411 866 447 854 q 344 879 376 879 q 272 859 295 879 q 248 804 248 839 q 275 736 248 766 q 361 682 302 707 q 502 615 469 635 q 559 568 536 594 q 594 510 582 542 q 606 435 606 478 q 566 308 606 361 q 452 233 526 255 q 549 142 517 193 q 580 28 580 92 m 469 387 q 456 438 469 416 q 417 478 443 460 q 326 525 392 496 q 252 491 283 519 q 222 431 222 463 q 235 380 222 403 q 275 336 249 357 q 367 281 300 316 q 440 320 412 289 q 469 387 469 352 z "},"¨":{"ha":463,"x_min":36,"x_max":427,"o":"m 346 766 q 289 790 313 766 q 264 848 264 814 q 289 906 264 882 q 346 929 313 929 q 403 906 379 929 q 427 848 427 883 q 403 790 427 814 q 346 766 379 766 m 118 766 q 61 791 85 766 q 36 848 36 817 q 60 905 36 881 q 118 929 85 929 q 175 905 151 929 q 199 848 199 881 q 175 790 199 814 q 118 766 151 766 z "},"©":{"ha":1038,"x_min":60,"x_max":997,"o":"m 60 454 q 123 691 60 583 q 294 862 186 800 q 528 924 401 924 q 763 861 654 924 q 934 691 871 799 q 997 454 997 583 q 936 221 997 329 q 765 50 874 114 q 528 -14 656 -14 q 293 49 401 -14 q 122 220 184 111 q 60 454 60 328 m 551 172 q 339 248 416 172 q 262 450 262 323 q 337 665 262 591 q 553 739 412 739 q 734 718 633 739 l 737 578 l 690 578 l 677 649 q 622 675 650 666 q 555 684 594 684 q 429 632 467 684 q 391 452 391 581 q 428 283 391 340 q 551 227 464 227 q 684 267 634 227 l 699 347 l 746 347 l 743 199 q 551 172 657 172 m 528 867 q 324 812 418 867 q 175 661 230 757 q 121 454 121 566 q 175 248 121 344 q 324 97 230 152 q 528 43 418 43 q 731 97 636 43 q 881 248 825 152 q 936 454 936 345 q 882 660 936 564 q 733 811 827 755 q 528 867 640 867 z "},"ª":{"ha":416,"x_min":19,"x_max":404,"o":"m 219 924 q 326 892 287 924 q 366 804 366 860 l 366 576 l 404 566 l 404 533 l 258 533 l 254 562 q 207 535 236 545 q 147 525 178 525 q 19 639 19 525 q 62 730 19 699 q 205 763 104 761 l 248 764 l 248 811 q 229 862 248 845 q 182 879 210 879 q 145 873 159 879 q 113 858 130 867 l 97 806 l 64 806 l 64 909 q 164 922 136 920 q 219 924 192 924 m 248 722 l 210 720 q 152 700 168 719 q 136 641 136 682 q 179 581 136 581 q 248 599 211 581 l 248 722 z "},"«":{"ha":694,"x_min":72,"x_max":642,"o":"m 72 336 l 296 578 l 364 578 l 240 314 l 364 50 l 296 50 l 72 292 l 72 336 m 350 336 l 574 578 l 642 578 l 518 314 l 642 50 l 574 50 l 350 292 l 350 336 z "},"¬":{"ha":791,"x_min":69,"x_max":715,"o":"m 715 510 l 715 138 l 619 138 l 619 412 l 69 412 l 69 510 l 715 510 z "},"­":{"ha":463,"x_min":51,"x_max":412,"o":"m 51 268 l 51 386 l 412 386 l 412 268 l 51 268 z "},"®":{"ha":1038,"x_min":60,"x_max":997,"o":"m 997 454 q 936 221 997 329 q 765 50 874 114 q 528 -14 656 -14 q 293 49 401 -14 q 122 220 184 111 q 60 454 60 328 q 123 691 60 583 q 294 862 186 800 q 528 924 401 924 q 763 861 654 924 q 934 691 871 799 q 997 454 997 583 m 656 187 l 500 420 l 467 420 l 467 237 l 530 227 l 530 187 l 296 187 l 296 227 l 347 237 l 347 685 l 290 696 l 290 733 l 528 733 q 688 694 633 733 q 742 583 742 655 q 711 492 742 531 q 621 433 680 452 l 761 237 l 808 227 l 808 187 l 656 187 m 618 582 q 589 660 618 637 q 479 682 561 682 l 467 682 l 467 471 l 482 471 q 585 495 553 471 q 618 582 618 519 m 528 867 q 324 812 418 867 q 175 661 230 757 q 121 454 121 566 q 175 248 121 344 q 324 97 230 152 q 528 43 418 43 q 731 97 636 43 q 881 248 825 152 q 936 454 936 345 q 882 660 936 564 q 733 811 827 755 q 528 867 640 867 z "},"¯":{"ha":694,"x_min":-12,"x_max":707,"o":"m 707 944 l -12 944 l -12 1045 l 707 1045 l 707 944 z "},"°":{"ha":555,"x_min":66,"x_max":488,"o":"m 66 713 q 94 818 66 769 q 171 895 122 867 q 277 924 220 924 q 382 896 333 924 q 459 819 431 867 q 488 713 488 770 q 459 607 488 656 q 381 530 430 557 q 277 503 332 503 q 127 564 189 503 q 66 713 66 625 m 276 848 q 184 809 222 848 q 147 711 147 770 q 185 616 147 655 q 276 576 222 576 q 369 616 331 576 q 406 711 406 655 q 369 809 406 770 q 276 848 332 848 z "},"±":{"ha":762,"x_min":58,"x_max":705,"o":"m 429 412 l 429 138 l 332 138 l 332 412 l 58 412 l 58 510 l 332 510 l 332 785 l 429 785 l 429 510 l 705 510 l 705 412 l 429 412 m 705 96 l 705 0 l 58 0 l 58 96 l 705 96 z "},"²":{"ha":416,"x_min":38,"x_max":384,"o":"m 384 363 l 38 363 l 38 440 q 130 536 90 496 q 197 610 170 575 q 238 684 224 646 q 252 775 252 722 q 233 843 252 820 q 177 867 213 867 q 116 846 141 867 l 98 767 l 56 767 l 56 898 q 187 916 133 916 q 325 878 277 916 q 373 773 373 841 q 358 690 373 727 q 310 618 343 654 q 204 524 276 583 l 130 459 l 384 459 l 384 363 z "},"³":{"ha":416,"x_min":31,"x_max":387,"o":"m 387 511 q 335 396 387 437 q 186 355 283 355 q 35 371 105 355 l 31 510 l 75 510 l 96 420 q 163 403 127 403 q 264 515 264 403 q 243 588 264 563 q 170 617 222 614 l 127 620 l 127 676 l 169 679 q 222 704 205 682 q 239 775 239 726 q 164 866 239 866 q 109 847 138 866 l 91 766 l 49 766 l 49 897 q 180 915 118 915 q 363 781 363 915 q 336 693 363 729 q 250 648 309 658 q 354 606 321 640 q 387 511 387 572 z "},"´":{"ha":463,"x_min":98,"x_max":404,"o":"m 98 758 l 98 781 l 211 965 l 404 965 l 404 940 l 157 758 l 98 758 z "},"µ":{"ha":800,"x_min":24,"x_max":776,"o":"m 521 62 q 443 3 478 20 q 369 -14 407 -14 q 271 22 308 -14 q 262 -296 271 -53 l 71 -296 l 71 -265 q 87 70 87 -89 l 87 576 l 24 593 l 24 637 l 283 637 l 283 195 q 309 105 283 134 q 389 77 335 77 q 517 131 453 77 l 517 576 l 459 593 l 459 637 l 713 637 l 713 61 l 776 44 l 776 0 l 534 0 l 521 62 z "},"¶":{"ha":750,"x_min":66,"x_max":691,"o":"m 635 844 l 635 -175 l 540 -175 l 540 844 l 448 844 l 448 -175 l 353 -175 l 353 370 q 144 447 222 374 q 66 646 66 520 q 142 841 66 772 q 360 909 219 909 l 691 909 l 691 860 l 635 844 z "},"·":{"ha":463,"x_min":119,"x_max":344,"o":"m 231 347 q 152 379 184 347 q 119 459 119 412 q 151 539 119 506 q 231 572 184 572 q 311 539 278 572 q 344 459 344 507 q 311 379 344 412 q 231 347 279 347 z "},"¸":{"ha":463,"x_min":83,"x_max":368,"o":"m 192 -286 q 83 -265 131 -286 l 83 -204 q 175 -217 132 -217 q 237 -159 237 -217 q 216 -113 237 -129 q 149 -94 195 -97 l 183 39 l 258 39 l 243 -36 q 368 -150 368 -54 q 319 -250 368 -214 q 192 -286 271 -286 z "},"¹":{"ha":416,"x_min":52,"x_max":361,"o":"m 267 418 l 361 408 l 361 363 l 52 363 l 52 408 l 146 418 l 146 809 l 52 778 l 52 823 l 205 913 l 267 913 l 267 418 z "},"º":{"ha":458,"x_min":39,"x_max":419,"o":"m 419 724 q 371 574 419 626 q 227 522 323 522 q 87 573 135 522 q 39 724 39 625 q 87 872 39 821 q 229 923 135 923 q 370 873 321 923 q 419 724 419 823 m 300 724 q 227 875 300 875 q 175 839 191 875 q 158 724 158 803 q 175 607 158 644 q 227 570 191 570 q 282 607 264 570 q 300 724 300 644 z "},"»":{"ha":694,"x_min":53,"x_max":623,"o":"m 623 292 l 399 50 l 330 50 l 454 314 l 330 578 l 399 578 l 623 336 l 623 292 m 345 292 l 121 50 l 53 50 l 176 314 l 53 578 l 121 578 l 345 336 l 345 292 z "},"¼":{"ha":1042,"x_min":58,"x_max":948,"o":"m 262 0 l 178 0 l 833 909 l 914 909 l 262 0 m 273 418 l 368 408 l 368 363 l 58 363 l 58 408 l 153 418 l 153 809 l 58 778 l 58 823 l 212 913 l 273 913 l 273 418 m 894 106 l 894 -1 l 780 -1 l 780 106 l 558 106 l 558 173 l 803 547 l 894 547 l 894 190 l 948 190 l 948 106 l 894 106 m 780 416 l 778 416 l 632 190 l 780 190 l 780 416 z "},"½":{"ha":1042,"x_min":54,"x_max":988,"o":"m 264 0 l 180 0 l 835 909 l 916 909 l 264 0 m 269 418 l 363 408 l 363 363 l 54 363 l 54 408 l 148 418 l 148 809 l 54 778 l 54 823 l 208 913 l 269 913 l 269 418 m 988 1 l 642 1 l 642 78 q 734 174 694 134 q 802 248 774 213 q 843 321 829 283 q 857 413 857 359 q 837 481 857 458 q 781 505 817 505 q 720 484 745 505 l 703 405 l 661 405 l 661 536 q 791 553 737 553 q 929 516 882 553 q 977 411 977 479 q 962 328 977 365 q 914 256 947 292 q 808 161 880 220 l 734 97 l 988 97 l 988 1 z "},"¾":{"ha":1042,"x_min":65,"x_max":962,"o":"m 262 0 l 178 0 l 833 909 l 914 909 l 262 0 m 422 511 q 370 396 422 437 q 220 355 317 355 q 70 371 140 355 l 65 510 l 109 510 l 131 420 q 198 403 161 403 q 299 515 299 403 q 278 588 299 563 q 205 617 256 614 l 161 620 l 161 676 l 203 679 q 257 704 240 682 q 274 775 274 726 q 199 866 274 866 q 143 847 173 866 l 125 766 l 83 766 l 83 897 q 214 915 153 915 q 397 781 397 915 q 371 693 397 729 q 285 648 344 658 q 389 606 355 640 q 422 511 422 572 m 908 106 l 908 -1 l 794 -1 l 794 106 l 572 106 l 572 173 l 817 547 l 908 547 l 908 190 l 962 190 l 962 106 l 908 106 m 794 416 l 792 416 l 646 190 l 794 190 l 794 416 z "},"¿":{"ha":694,"x_min":84,"x_max":612,"o":"m 394 652 q 474 619 441 652 q 506 539 506 587 q 474 459 506 492 q 394 427 441 427 q 314 459 347 427 q 281 539 281 492 q 314 619 281 586 q 394 652 347 652 m 363 368 l 433 368 l 471 155 l 407 138 q 308 76 336 120 q 280 -42 280 33 q 313 -177 280 -135 q 421 -218 345 -218 q 522 -190 478 -218 l 551 -58 l 612 -58 l 612 -258 q 392 -288 499 -288 q 84 -47 84 -288 q 137 119 84 52 q 286 214 189 187 l 345 231 l 363 368 z "},"À":{"ha":1003,"x_min":14,"x_max":993,"o":"m 290 50 l 290 0 l 14 0 l 14 50 l 81 68 l 405 917 l 602 917 l 924 68 l 993 50 l 993 0 l 588 0 l 588 50 l 693 68 l 606 303 l 257 303 l 174 68 l 290 50 m 435 780 l 285 378 l 581 378 l 435 780 m 553 985 l 306 1166 l 306 1192 l 499 1192 l 611 1006 l 611 985 l 553 985 z "},"Á":{"ha":1003,"x_min":14,"x_max":993,"o":"m 290 50 l 290 0 l 14 0 l 14 50 l 81 68 l 405 917 l 602 917 l 924 68 l 993 50 l 993 0 l 588 0 l 588 50 l 693 68 l 606 303 l 257 303 l 174 68 l 290 50 m 435 780 l 285 378 l 581 378 l 435 780 m 408 985 l 408 1007 l 521 1192 l 714 1192 l 714 1166 l 467 985 l 408 985 z "},"Â":{"ha":1003,"x_min":14,"x_max":993,"o":"m 290 50 l 290 0 l 14 0 l 14 50 l 81 68 l 405 917 l 602 917 l 924 68 l 993 50 l 993 0 l 588 0 l 588 50 l 693 68 l 606 303 l 257 303 l 174 68 l 290 50 m 435 780 l 285 378 l 581 378 l 435 780 m 282 985 l 282 1007 l 430 1206 l 574 1206 l 722 1007 l 722 985 l 670 985 l 502 1095 l 334 985 l 282 985 z "},"Ã":{"ha":1003,"x_min":14,"x_max":993,"o":"m 290 50 l 290 0 l 14 0 l 14 50 l 81 68 l 405 917 l 602 917 l 924 68 l 993 50 l 993 0 l 588 0 l 588 50 l 693 68 l 606 303 l 257 303 l 174 68 l 290 50 m 435 780 l 285 378 l 581 378 l 435 780 m 579 986 q 446 1046 522 986 q 385 1076 407 1076 q 353 1061 361 1076 q 338 998 344 1046 l 267 998 q 310 1148 274 1103 q 412 1193 347 1193 q 472 1181 446 1193 q 547 1135 499 1168 q 607 1104 588 1104 q 628 1108 620 1104 q 641 1123 635 1113 q 654 1180 646 1133 l 725 1180 q 682 1031 718 1077 q 579 986 646 986 z "},"Ä":{"ha":1003,"x_min":14,"x_max":993,"o":"m 290 50 l 290 0 l 14 0 l 14 50 l 81 68 l 405 917 l 602 917 l 924 68 l 993 50 l 993 0 l 588 0 l 588 50 l 693 68 l 606 303 l 257 303 l 174 68 l 290 50 m 435 780 l 285 378 l 581 378 l 435 780 m 614 993 q 556 1017 581 993 q 532 1075 532 1041 q 556 1132 532 1109 q 614 1156 581 1156 q 671 1133 647 1156 q 694 1075 694 1109 q 671 1017 694 1041 q 614 993 647 993 m 386 993 q 329 1018 353 993 q 304 1075 304 1043 q 328 1132 304 1107 q 386 1156 353 1156 q 443 1132 419 1156 q 467 1075 467 1107 q 443 1017 467 1041 q 386 993 419 993 z "},"Å":{"ha":1003,"x_min":14,"x_max":993,"o":"m 290 50 l 290 0 l 14 0 l 14 50 l 81 68 l 405 917 l 602 917 l 924 68 l 993 50 l 993 0 l 588 0 l 588 50 l 693 68 l 606 303 l 257 303 l 174 68 l 290 50 m 435 780 l 285 378 l 581 378 l 435 780 m 496 863 q 395 904 437 863 q 353 1007 353 946 q 395 1109 353 1068 q 496 1150 437 1150 q 598 1109 556 1150 q 640 1007 640 1068 q 598 905 640 947 q 496 863 556 863 m 496 1074 q 450 1054 470 1074 q 430 1007 430 1034 q 450 961 430 981 q 496 941 470 941 q 543 961 523 941 q 563 1007 563 981 q 543 1054 563 1034 q 496 1074 522 1074 z "},"Æ":{"ha":1389,"x_min":9,"x_max":1317,"o":"m 561 849 l 464 861 l 464 909 l 1260 909 l 1260 678 l 1198 678 l 1177 825 q 998 835 1101 835 l 862 835 l 862 501 l 1054 501 l 1075 602 l 1135 602 l 1135 322 l 1075 322 l 1054 425 l 862 425 l 862 75 l 1028 75 q 1217 85 1162 75 l 1255 254 l 1317 254 l 1304 0 l 532 0 l 532 50 l 648 68 l 648 303 l 336 303 l 197 68 l 300 50 l 300 0 l 9 0 l 9 50 l 92 68 l 561 849 m 648 378 l 648 838 l 380 378 l 648 378 z "},"Ç":{"ha":1003,"x_min":68,"x_max":897,"o":"m 553 -14 q 196 108 324 -14 q 68 444 68 229 q 190 799 68 677 q 552 920 313 920 q 880 874 710 920 l 884 656 l 823 656 l 804 787 q 595 848 714 848 q 366 750 438 848 q 293 446 293 652 q 369 156 293 256 q 590 56 445 56 q 724 77 667 56 q 814 125 781 97 l 836 274 l 897 274 l 893 43 q 734 3 832 20 q 553 -14 637 -14 m 502 -286 q 393 -265 441 -286 l 393 -204 q 485 -217 442 -217 q 547 -159 547 -217 q 526 -113 547 -129 q 458 -94 505 -97 l 493 39 l 568 39 l 553 -36 q 678 -150 678 -54 q 629 -250 678 -214 q 502 -286 581 -286 z "},"È":{"ha":926,"x_min":24,"x_max":855,"o":"m 24 50 l 140 68 l 140 842 l 24 860 l 24 909 l 798 909 l 798 678 l 736 678 l 715 825 q 495 835 639 835 l 354 835 l 354 501 l 592 501 l 613 602 l 673 602 l 673 322 l 613 322 l 592 425 l 354 425 l 354 75 l 526 75 q 755 85 701 75 l 793 254 l 855 254 l 842 0 l 24 0 l 24 50 m 538 985 l 292 1166 l 292 1192 l 485 1192 l 597 1006 l 597 985 l 538 985 z "},"É":{"ha":926,"x_min":24,"x_max":855,"o":"m 24 50 l 140 68 l 140 842 l 24 860 l 24 909 l 798 909 l 798 678 l 736 678 l 715 825 q 495 835 639 835 l 354 835 l 354 501 l 592 501 l 613 602 l 673 602 l 673 322 l 613 322 l 592 425 l 354 425 l 354 75 l 526 75 q 755 85 701 75 l 793 254 l 855 254 l 842 0 l 24 0 l 24 50 m 365 985 l 365 1007 l 477 1192 l 671 1192 l 671 1166 l 423 985 l 365 985 z "},"Ê":{"ha":926,"x_min":24,"x_max":855,"o":"m 24 50 l 140 68 l 140 842 l 24 860 l 24 909 l 798 909 l 798 678 l 736 678 l 715 825 q 495 835 639 835 l 354 835 l 354 501 l 592 501 l 613 602 l 673 602 l 673 322 l 613 322 l 592 425 l 354 425 l 354 75 l 526 75 q 755 85 701 75 l 793 254 l 855 254 l 842 0 l 24 0 l 24 50 m 243 985 l 243 1007 l 391 1206 l 535 1206 l 682 1007 l 682 985 l 631 985 l 463 1095 l 294 985 l 243 985 z "},"Ë":{"ha":926,"x_min":24,"x_max":855,"o":"m 24 50 l 140 68 l 140 842 l 24 860 l 24 909 l 798 909 l 798 678 l 736 678 l 715 825 q 495 835 639 835 l 354 835 l 354 501 l 592 501 l 613 602 l 673 602 l 673 322 l 613 322 l 592 425 l 354 425 l 354 75 l 526 75 q 755 85 701 75 l 793 254 l 855 254 l 842 0 l 24 0 l 24 50 m 578 993 q 520 1017 545 993 q 496 1075 496 1041 q 520 1132 496 1109 q 578 1156 545 1156 q 635 1133 611 1156 q 659 1075 659 1109 q 635 1017 659 1041 q 578 993 611 993 m 350 993 q 293 1018 317 993 q 268 1075 268 1043 q 292 1132 268 1107 q 350 1156 317 1156 q 407 1132 383 1156 q 431 1075 431 1107 q 407 1017 431 1041 q 350 993 383 993 z "},"Ì":{"ha":541,"x_min":47,"x_max":494,"o":"m 377 68 l 494 50 l 494 0 l 47 0 l 47 50 l 163 68 l 163 842 l 47 860 l 47 909 l 494 909 l 494 860 l 377 842 l 377 68 m 341 985 l 94 1166 l 94 1192 l 288 1192 l 399 1006 l 399 985 l 341 985 z "},"Í":{"ha":541,"x_min":47,"x_max":494,"o":"m 377 68 l 494 50 l 494 0 l 47 0 l 47 50 l 163 68 l 163 842 l 47 860 l 47 909 l 494 909 l 494 860 l 377 842 l 377 68 m 161 985 l 161 1007 l 274 1192 l 467 1192 l 467 1166 l 220 985 l 161 985 z "},"Î":{"ha":541,"x_min":47,"x_max":494,"o":"m 377 68 l 494 50 l 494 0 l 47 0 l 47 50 l 163 68 l 163 842 l 47 860 l 47 909 l 494 909 l 494 860 l 377 842 l 377 68 m 48 985 l 48 1007 l 196 1206 l 340 1206 l 488 1007 l 488 985 l 436 985 l 268 1095 l 100 985 l 48 985 z "},"Ï":{"ha":541,"x_min":47,"x_max":494,"o":"m 377 68 l 494 50 l 494 0 l 47 0 l 47 50 l 163 68 l 163 842 l 47 860 l 47 909 l 494 909 l 494 860 l 377 842 l 377 68 m 383 993 q 326 1017 351 993 q 301 1075 301 1041 q 326 1132 301 1109 q 383 1156 351 1156 q 440 1133 416 1156 q 464 1075 464 1109 q 440 1017 464 1041 q 383 993 416 993 m 155 993 q 98 1018 123 993 q 73 1075 73 1043 q 98 1132 73 1107 q 155 1156 122 1156 q 212 1132 189 1156 q 236 1075 236 1107 q 212 1017 236 1041 q 155 993 189 993 z "},"Ð":{"ha":1003,"x_min":35,"x_max":950,"o":"m 471 909 q 833 799 716 909 q 950 460 950 688 q 838 112 950 226 q 500 -3 726 -3 l 195 0 l 54 0 l 54 50 l 156 68 l 156 413 l 35 413 l 35 496 l 156 496 l 156 842 l 39 860 l 39 909 l 471 909 m 725 454 q 653 743 725 651 q 419 835 581 835 l 369 835 l 369 496 l 543 496 l 543 413 l 369 413 l 369 77 q 487 72 434 72 q 626 110 575 72 q 701 229 677 148 q 725 454 725 310 z "},"Ñ":{"ha":1003,"x_min":26,"x_max":985,"o":"m 783 842 l 661 860 l 661 909 l 985 909 l 985 860 l 868 842 l 868 0 l 789 0 l 228 731 l 228 68 l 350 50 l 350 0 l 26 0 l 26 50 l 143 68 l 143 842 l 26 860 l 26 909 l 338 909 l 783 328 l 783 842 m 593 986 q 459 1046 535 986 q 398 1076 420 1076 q 366 1061 375 1076 q 351 998 357 1046 l 280 998 q 324 1148 288 1103 q 426 1193 360 1193 q 486 1181 459 1193 q 560 1135 513 1168 q 621 1104 602 1104 q 641 1108 633 1104 q 654 1123 649 1113 q 667 1180 659 1133 l 739 1180 q 695 1031 731 1077 q 593 986 660 986 z "},"Ò":{"ha":1080,"x_min":68,"x_max":1013,"o":"m 293 456 q 352 147 293 239 q 541 54 412 54 q 728 147 669 54 q 787 456 787 240 q 728 761 787 671 q 541 851 669 851 q 352 761 412 851 q 293 456 293 671 m 68 456 q 541 920 68 920 q 893 802 774 920 q 1013 456 1013 684 q 892 105 1013 224 q 541 -14 771 -14 q 189 105 311 -14 q 68 456 68 224 m 580 985 l 333 1166 l 333 1192 l 526 1192 l 638 1006 l 638 985 l 580 985 z "},"Ó":{"ha":1080,"x_min":68,"x_max":1013,"o":"m 293 456 q 352 147 293 239 q 541 54 412 54 q 728 147 669 54 q 787 456 787 240 q 728 761 787 671 q 541 851 669 851 q 352 761 412 851 q 293 456 293 671 m 68 456 q 541 920 68 920 q 893 802 774 920 q 1013 456 1013 684 q 892 105 1013 224 q 541 -14 771 -14 q 189 105 311 -14 q 68 456 68 224 m 471 985 l 471 1007 l 584 1192 l 777 1192 l 777 1166 l 530 985 l 471 985 z "},"Ô":{"ha":1080,"x_min":68,"x_max":1013,"o":"m 293 456 q 352 147 293 239 q 541 54 412 54 q 728 147 669 54 q 787 456 787 240 q 728 761 787 671 q 541 851 669 851 q 352 761 412 851 q 293 456 293 671 m 68 456 q 541 920 68 920 q 893 802 774 920 q 1013 456 1013 684 q 892 105 1013 224 q 541 -14 771 -14 q 189 105 311 -14 q 68 456 68 224 m 321 985 l 321 1007 l 469 1206 l 613 1206 l 760 1007 l 760 985 l 709 985 l 541 1095 l 372 985 l 321 985 z "},"Õ":{"ha":1080,"x_min":68,"x_max":1013,"o":"m 293 456 q 352 147 293 239 q 541 54 412 54 q 728 147 669 54 q 787 456 787 240 q 728 761 787 671 q 541 851 669 851 q 352 761 412 851 q 293 456 293 671 m 68 456 q 541 920 68 920 q 893 802 774 920 q 1013 456 1013 684 q 892 105 1013 224 q 541 -14 771 -14 q 189 105 311 -14 q 68 456 68 224 m 623 986 q 489 1046 565 986 q 428 1076 450 1076 q 396 1061 405 1076 q 381 998 387 1046 l 310 998 q 354 1148 317 1103 q 456 1193 390 1193 q 516 1181 489 1193 q 590 1135 543 1168 q 650 1104 631 1104 q 671 1108 663 1104 q 684 1123 679 1113 q 697 1180 689 1133 l 768 1180 q 725 1031 761 1077 q 623 986 690 986 z "},"Ö":{"ha":1080,"x_min":68,"x_max":1013,"o":"m 293 456 q 352 147 293 239 q 541 54 412 54 q 728 147 669 54 q 787 456 787 240 q 728 761 787 671 q 541 851 669 851 q 352 761 412 851 q 293 456 293 671 m 68 456 q 541 920 68 920 q 893 802 774 920 q 1013 456 1013 684 q 892 105 1013 224 q 541 -14 771 -14 q 189 105 311 -14 q 68 456 68 224 m 659 993 q 601 1017 626 993 q 576 1075 576 1041 q 601 1132 576 1109 q 659 1156 626 1156 q 715 1133 692 1156 q 739 1075 739 1109 q 715 1017 739 1041 q 659 993 692 993 m 431 993 q 373 1018 398 993 q 349 1075 349 1043 q 373 1132 349 1107 q 431 1156 397 1156 q 488 1132 464 1156 q 511 1075 511 1107 q 488 1017 511 1041 q 431 993 464 993 z "},"×":{"ha":791,"x_min":103,"x_max":682,"o":"m 392 392 l 172 172 l 103 241 l 323 463 l 103 681 l 174 751 l 392 532 l 613 751 l 682 682 l 462 463 l 682 241 l 613 172 l 392 392 z "},"Ø":{"ha":1080,"x_min":68,"x_max":1013,"o":"m 197 98 q 68 456 68 216 q 541 920 68 920 q 823 855 711 920 l 896 943 l 994 943 l 884 810 q 1013 456 1013 692 q 892 105 1013 224 q 541 -14 771 -14 q 260 51 372 -14 l 187 -37 l 86 -37 l 197 98 m 293 456 q 314 239 293 321 l 735 749 q 541 851 677 851 q 352 761 412 851 q 293 456 293 671 m 787 456 q 766 667 787 587 l 347 157 q 541 54 405 54 q 728 147 669 54 q 787 456 787 240 z "},"Ù":{"ha":1003,"x_min":35,"x_max":968,"o":"m 568 83 q 726 140 670 83 q 781 307 781 197 l 781 842 l 659 860 l 659 909 l 968 909 l 968 860 l 865 842 l 865 313 q 774 71 865 155 q 515 -13 684 -13 q 235 72 332 -13 q 138 318 138 157 l 138 842 l 35 860 l 35 909 l 468 909 l 468 860 l 351 842 l 351 309 q 407 141 351 199 q 568 83 462 83 m 576 985 l 329 1166 l 329 1192 l 522 1192 l 634 1006 l 634 985 l 576 985 z "},"Ú":{"ha":1003,"x_min":35,"x_max":968,"o":"m 568 83 q 726 140 670 83 q 781 307 781 197 l 781 842 l 659 860 l 659 909 l 968 909 l 968 860 l 865 842 l 865 313 q 774 71 865 155 q 515 -13 684 -13 q 235 72 332 -13 q 138 318 138 157 l 138 842 l 35 860 l 35 909 l 468 909 l 468 860 l 351 842 l 351 309 q 407 141 351 199 q 568 83 462 83 m 479 985 l 479 1007 l 591 1192 l 785 1192 l 785 1166 l 537 985 l 479 985 z "},"Û":{"ha":1003,"x_min":35,"x_max":968,"o":"m 568 83 q 726 140 670 83 q 781 307 781 197 l 781 842 l 659 860 l 659 909 l 968 909 l 968 860 l 865 842 l 865 313 q 774 71 865 155 q 515 -13 684 -13 q 235 72 332 -13 q 138 318 138 157 l 138 842 l 35 860 l 35 909 l 468 909 l 468 860 l 351 842 l 351 309 q 407 141 351 199 q 568 83 462 83 m 324 985 l 324 1007 l 472 1206 l 616 1206 l 764 1007 l 764 985 l 712 985 l 544 1095 l 376 985 l 324 985 z "},"Ü":{"ha":1003,"x_min":35,"x_max":968,"o":"m 568 83 q 726 140 670 83 q 781 307 781 197 l 781 842 l 659 860 l 659 909 l 968 909 l 968 860 l 865 842 l 865 313 q 774 71 865 155 q 515 -13 684 -13 q 235 72 332 -13 q 138 318 138 157 l 138 842 l 35 860 l 35 909 l 468 909 l 468 860 l 351 842 l 351 309 q 407 141 351 199 q 568 83 462 83 m 654 993 q 597 1017 622 993 q 572 1075 572 1041 q 597 1132 572 1109 q 654 1156 622 1156 q 711 1133 688 1156 q 735 1075 735 1109 q 711 1017 735 1041 q 654 993 688 993 m 427 993 q 369 1018 394 993 q 345 1075 345 1043 q 369 1132 345 1107 q 427 1156 393 1156 q 484 1132 460 1156 q 507 1075 507 1107 q 484 1017 507 1041 q 427 993 460 993 z "},"Ý":{"ha":1003,"x_min":24,"x_max":977,"o":"m 618 358 l 618 68 l 762 50 l 762 0 l 259 0 l 259 50 l 404 68 l 404 354 l 127 842 l 24 860 l 24 909 l 492 909 l 492 860 l 370 842 l 578 461 l 779 842 l 667 860 l 667 909 l 977 909 l 977 860 l 880 842 l 618 358 m 436 985 l 436 1007 l 549 1192 l 742 1192 l 742 1166 l 494 985 l 436 985 z "},"Þ":{"ha":848,"x_min":29,"x_max":782,"o":"m 359 68 l 476 50 l 476 0 l 29 0 l 29 50 l 146 68 l 146 842 l 29 860 l 29 909 l 476 909 l 476 860 l 359 842 l 359 734 l 397 734 q 686 670 591 734 q 782 467 782 605 q 450 182 782 182 l 359 182 l 359 68 m 564 465 q 523 617 564 574 q 381 660 483 660 l 359 660 l 359 256 l 384 256 q 521 304 478 256 q 564 465 564 351 z "},"ß":{"ha":772,"x_min":29,"x_max":738,"o":"m 364 532 q 395 641 364 593 q 479 709 425 688 q 451 860 475 810 q 374 909 427 909 q 301 855 322 909 q 281 646 281 800 l 281 0 l 29 0 l 29 45 l 85 61 l 85 646 q 157 897 85 816 q 378 978 230 978 q 675 668 667 978 q 569 643 605 668 q 533 570 533 618 q 552 497 533 532 q 619 412 570 461 q 699 323 679 351 q 728 261 718 295 q 738 188 738 227 q 675 40 738 94 q 502 -14 612 -14 q 406 -5 456 -14 q 336 14 356 4 l 336 182 l 381 182 l 407 86 q 482 50 436 50 l 489 50 q 544 79 522 51 q 566 146 566 107 q 545 221 566 186 q 473 304 524 256 q 416 372 445 332 q 376 450 388 412 q 364 532 364 489 z "},"à":{"ha":694,"x_min":45,"x_max":673,"o":"m 370 652 q 610 475 610 652 l 610 61 l 673 45 l 673 0 l 439 0 l 424 49 q 328 0 371 13 q 242 -14 286 -14 q 45 176 45 -14 q 74 291 45 248 q 158 355 103 334 q 331 378 213 376 l 414 380 l 414 473 q 319 589 414 589 q 192 553 262 589 l 166 474 l 121 474 l 121 628 q 272 648 224 644 q 370 652 320 652 m 414 320 l 357 318 q 266 283 291 315 q 240 180 240 252 q 260 96 240 123 q 313 68 281 68 q 414 92 359 68 l 414 320 m 422 758 l 175 940 l 175 965 l 368 965 l 480 780 l 480 758 l 422 758 z "},"á":{"ha":694,"x_min":45,"x_max":673,"o":"m 370 652 q 610 475 610 652 l 610 61 l 673 45 l 673 0 l 439 0 l 424 49 q 328 0 371 13 q 242 -14 286 -14 q 45 176 45 -14 q 74 291 45 248 q 158 355 103 334 q 331 378 213 376 l 414 380 l 414 473 q 319 589 414 589 q 192 553 262 589 l 166 474 l 121 474 l 121 628 q 272 648 224 644 q 370 652 320 652 m 414 320 l 357 318 q 266 283 291 315 q 240 180 240 252 q 260 96 240 123 q 313 68 281 68 q 414 92 359 68 l 414 320 m 246 758 l 246 781 l 359 965 l 552 965 l 552 940 l 304 758 l 246 758 z "},"â":{"ha":694,"x_min":45,"x_max":673,"o":"m 370 652 q 610 475 610 652 l 610 61 l 673 45 l 673 0 l 439 0 l 424 49 q 328 0 371 13 q 242 -14 286 -14 q 45 176 45 -14 q 74 291 45 248 q 158 355 103 334 q 331 378 213 376 l 414 380 l 414 473 q 319 589 414 589 q 192 553 262 589 l 166 474 l 121 474 l 121 628 q 272 648 224 644 q 370 652 320 652 m 414 320 l 357 318 q 266 283 291 315 q 240 180 240 252 q 260 96 240 123 q 313 68 281 68 q 414 92 359 68 l 414 320 m 126 758 l 126 781 l 274 979 l 418 979 l 566 781 l 566 758 l 514 758 l 346 868 l 178 758 l 126 758 z "},"ã":{"ha":694,"x_min":45,"x_max":673,"o":"m 370 652 q 610 475 610 652 l 610 61 l 673 45 l 673 0 l 439 0 l 424 49 q 328 0 371 13 q 242 -14 286 -14 q 45 176 45 -14 q 74 291 45 248 q 158 355 103 334 q 331 378 213 376 l 414 380 l 414 473 q 319 589 414 589 q 192 553 262 589 l 166 474 l 121 474 l 121 628 q 272 648 224 644 q 370 652 320 652 m 414 320 l 357 318 q 266 283 291 315 q 240 180 240 252 q 260 96 240 123 q 313 68 281 68 q 414 92 359 68 l 414 320 m 428 761 q 294 821 370 761 q 233 851 256 851 q 201 836 210 851 q 186 773 193 821 l 115 773 q 159 923 123 878 q 261 968 195 968 q 321 956 294 968 q 395 909 348 943 q 456 879 437 879 q 476 883 469 879 q 489 898 484 888 q 503 955 494 908 l 574 955 q 531 806 566 852 q 428 761 495 761 z "},"ä":{"ha":694,"x_min":45,"x_max":673,"o":"m 370 652 q 610 475 610 652 l 610 61 l 673 45 l 673 0 l 439 0 l 424 49 q 328 0 371 13 q 242 -14 286 -14 q 45 176 45 -14 q 74 291 45 248 q 158 355 103 334 q 331 378 213 376 l 414 380 l 414 473 q 319 589 414 589 q 192 553 262 589 l 166 474 l 121 474 l 121 628 q 272 648 224 644 q 370 652 320 652 m 414 320 l 357 318 q 266 283 291 315 q 240 180 240 252 q 260 96 240 123 q 313 68 281 68 q 414 92 359 68 l 414 320 m 463 766 q 405 790 430 766 q 380 848 380 814 q 405 906 380 882 q 463 929 430 929 q 519 906 496 929 q 543 848 543 883 q 519 790 543 814 q 463 766 496 766 m 235 766 q 177 791 202 766 q 153 848 153 817 q 177 905 153 881 q 235 929 201 929 q 292 905 268 929 q 315 848 315 881 q 292 790 315 814 q 235 766 268 766 z "},"å":{"ha":694,"x_min":45,"x_max":673,"o":"m 370 652 q 610 475 610 652 l 610 61 l 673 45 l 673 0 l 439 0 l 424 49 q 328 0 371 13 q 242 -14 286 -14 q 45 176 45 -14 q 74 291 45 248 q 158 355 103 334 q 331 378 213 376 l 414 380 l 414 473 q 319 589 414 589 q 192 553 262 589 l 166 474 l 121 474 l 121 628 q 272 648 224 644 q 370 652 320 652 m 414 320 l 357 318 q 266 283 291 315 q 240 180 240 252 q 260 96 240 123 q 313 68 281 68 q 414 92 359 68 l 414 320 m 351 718 q 250 760 292 718 q 208 863 208 802 q 250 965 208 924 q 351 1006 292 1006 q 453 965 411 1006 q 494 863 494 924 q 453 760 494 802 q 351 718 411 718 m 351 930 q 305 910 325 930 q 285 863 285 890 q 305 816 285 836 q 351 796 325 796 q 398 816 378 796 q 418 863 418 836 q 397 910 418 890 q 351 930 377 930 z "},"æ":{"ha":1003,"x_min":45,"x_max":950,"o":"m 670 654 q 880 582 809 654 q 950 369 950 510 l 950 313 l 595 313 l 595 277 q 616 157 597 199 q 674 94 635 116 q 779 71 713 71 q 853 77 810 71 q 922 91 895 83 l 922 39 q 833 1 887 16 q 726 -13 779 -13 q 575 8 633 -13 q 481 71 517 30 q 241 -14 374 -14 q 94 33 143 -14 q 45 176 45 79 q 61 264 45 227 q 109 325 77 300 q 193 362 140 349 q 341 378 245 375 l 408 380 l 408 472 q 385 561 408 532 q 314 589 362 589 q 192 554 252 589 l 165 474 l 121 474 l 121 627 q 349 652 240 652 q 506 604 456 652 q 670 654 569 654 m 316 68 q 386 81 354 68 q 448 111 418 94 q 419 181 431 133 q 408 285 408 229 l 408 320 l 358 318 q 287 302 310 315 q 252 259 263 288 q 240 180 240 230 q 262 96 240 123 q 316 68 283 68 m 681 585 q 617 540 637 585 q 596 385 596 496 l 751 385 q 735 541 751 498 q 681 585 719 585 z "},"ç":{"ha":616,"x_min":47,"x_max":582,"o":"m 582 39 q 497 1 551 14 q 387 -13 444 -13 q 132 69 216 -13 q 47 320 47 151 q 86 500 47 425 q 195 615 124 575 q 361 654 267 654 q 568 631 456 654 l 568 442 l 519 442 l 490 554 q 445 578 467 571 q 386 585 422 585 q 313 553 346 585 q 263 463 281 521 q 245 324 245 405 q 287 130 245 188 q 422 71 330 71 q 582 91 515 71 l 582 39 m 298 -286 q 190 -265 237 -286 l 190 -204 q 281 -217 239 -217 q 344 -159 344 -217 q 323 -113 344 -129 q 255 -94 302 -97 l 290 39 l 365 39 l 349 -36 q 475 -150 475 -54 q 426 -250 475 -214 q 298 -286 377 -286 z "},"è":{"ha":616,"x_min":47,"x_max":581,"o":"m 335 653 q 523 584 465 653 q 581 369 581 515 l 581 313 l 246 313 l 246 302 q 262 159 246 201 q 315 94 279 116 q 416 71 352 71 q 566 91 475 71 l 566 39 q 470 2 529 16 q 354 -13 410 -13 q 122 69 197 -13 q 47 322 47 151 q 119 571 47 489 q 335 653 191 653 m 328 585 q 267 541 287 585 q 247 385 247 496 l 395 385 q 389 512 395 475 q 368 567 382 549 q 328 585 353 585 m 387 758 l 140 940 l 140 965 l 334 965 l 446 780 l 446 758 l 387 758 z "},"é":{"ha":616,"x_min":47,"x_max":581,"o":"m 335 653 q 523 584 465 653 q 581 369 581 515 l 581 313 l 246 313 l 246 302 q 262 159 246 201 q 315 94 279 116 q 416 71 352 71 q 566 91 475 71 l 566 39 q 470 2 529 16 q 354 -13 410 -13 q 122 69 197 -13 q 47 322 47 151 q 119 571 47 489 q 335 653 191 653 m 328 585 q 267 541 287 585 q 247 385 247 496 l 395 385 q 389 512 395 475 q 368 567 382 549 q 328 585 353 585 m 243 758 l 243 781 l 355 965 l 549 965 l 549 940 l 301 758 l 243 758 z "},"ê":{"ha":616,"x_min":47,"x_max":581,"o":"m 335 653 q 523 584 465 653 q 581 369 581 515 l 581 313 l 246 313 l 246 302 q 262 159 246 201 q 315 94 279 116 q 416 71 352 71 q 566 91 475 71 l 566 39 q 470 2 529 16 q 354 -13 410 -13 q 122 69 197 -13 q 47 322 47 151 q 119 571 47 489 q 335 653 191 653 m 328 585 q 267 541 287 585 q 247 385 247 496 l 395 385 q 389 512 395 475 q 368 567 382 549 q 328 585 353 585 m 104 758 l 104 781 l 252 979 l 397 979 l 544 781 l 544 758 l 492 758 l 324 868 l 156 758 l 104 758 z "},"ë":{"ha":616,"x_min":47,"x_max":581,"o":"m 335 653 q 523 584 465 653 q 581 369 581 515 l 581 313 l 246 313 l 246 302 q 262 159 246 201 q 315 94 279 116 q 416 71 352 71 q 566 91 475 71 l 566 39 q 470 2 529 16 q 354 -13 410 -13 q 122 69 197 -13 q 47 322 47 151 q 119 571 47 489 q 335 653 191 653 m 328 585 q 267 541 287 585 q 247 385 247 496 l 395 385 q 389 512 395 475 q 368 567 382 549 q 328 585 353 585 m 435 766 q 378 790 403 766 q 353 848 353 814 q 378 906 353 882 q 435 929 403 929 q 492 906 469 929 q 516 848 516 883 q 492 790 516 814 q 435 766 469 766 m 208 766 q 150 791 175 766 q 125 848 125 817 q 150 905 125 881 q 208 929 174 929 q 264 905 241 929 q 288 848 288 881 q 264 790 288 814 q 208 766 241 766 z "},"ì":{"ha":386,"x_min":-8,"x_max":366,"o":"m 296 61 l 366 45 l 366 0 l 31 0 l 31 45 l 100 61 l 100 576 l 35 593 l 35 637 l 296 637 l 296 61 m 239 758 l -8 940 l -8 965 l 185 965 l 297 780 l 297 758 l 239 758 z "},"í":{"ha":386,"x_min":31,"x_max":403,"o":"m 296 61 l 366 45 l 366 0 l 31 0 l 31 45 l 100 61 l 100 576 l 35 593 l 35 637 l 296 637 l 296 61 m 97 758 l 97 781 l 210 965 l 403 965 l 403 940 l 155 758 l 97 758 z "},"î":{"ha":386,"x_min":-24,"x_max":415,"o":"m 296 61 l 366 45 l 366 0 l 31 0 l 31 45 l 100 61 l 100 576 l 35 593 l 35 637 l 296 637 l 296 61 m -24 758 l -24 781 l 123 979 l 268 979 l 415 781 l 415 758 l 363 758 l 195 868 l 27 758 l -24 758 z "},"ï":{"ha":386,"x_min":2,"x_max":393,"o":"m 296 61 l 366 45 l 366 0 l 31 0 l 31 45 l 100 61 l 100 576 l 35 593 l 35 637 l 296 637 l 296 61 m 312 766 q 255 790 279 766 q 230 848 230 814 q 255 906 230 882 q 312 929 279 929 q 369 906 345 929 q 393 848 393 883 q 369 790 393 814 q 312 766 345 766 m 84 766 q 27 791 52 766 q 2 848 2 817 q 26 905 2 881 q 84 929 51 929 q 141 905 117 929 q 165 848 165 881 q 141 790 165 814 q 84 766 117 766 z "},"ð":{"ha":694,"x_min":53,"x_max":642,"o":"m 155 758 l 273 825 q 148 890 212 870 l 148 964 q 362 878 264 937 l 555 989 l 555 905 l 426 830 q 642 325 637 655 l 642 301 q 343 -14 642 -14 q 126 67 199 -14 q 53 301 53 148 q 126 532 53 452 q 349 612 199 612 q 418 607 393 612 q 328 772 396 701 l 155 672 l 155 758 m 443 302 q 419 487 443 429 q 345 545 395 545 q 273 490 295 545 q 252 302 252 434 q 274 110 252 166 q 345 54 296 54 q 419 115 395 54 q 443 302 443 176 z "},"ñ":{"ha":772,"x_min":37,"x_max":751,"o":"m 294 582 l 340 606 q 511 654 435 654 q 688 467 688 654 l 688 61 l 751 45 l 751 0 l 435 0 l 435 45 l 492 61 l 492 440 q 468 529 492 497 q 399 561 444 561 q 296 538 347 561 l 296 61 l 354 45 l 354 0 l 37 0 l 37 45 l 100 61 l 100 576 l 37 593 l 37 637 l 285 637 l 294 582 m 479 761 q 346 821 422 761 q 285 851 307 851 q 253 836 262 851 q 238 773 244 821 l 167 773 q 211 923 174 878 q 313 968 247 968 q 373 956 346 968 q 447 909 399 943 q 507 879 488 879 q 528 883 520 879 q 541 898 536 888 q 554 955 546 908 l 625 955 q 582 806 618 852 q 479 761 547 761 z "},"ò":{"ha":694,"x_min":53,"x_max":642,"o":"m 642 322 q 568 68 642 151 q 343 -14 494 -14 q 125 70 197 -14 q 53 322 53 153 q 126 573 53 491 q 349 654 199 654 q 571 570 500 654 q 642 322 642 486 m 443 322 q 421 529 443 471 q 345 586 399 586 q 272 531 292 586 q 252 322 252 476 q 272 110 252 165 q 345 54 293 54 q 420 113 398 54 q 443 322 443 172 m 401 758 l 154 940 l 154 965 l 347 965 l 459 780 l 459 758 l 401 758 z "},"ó":{"ha":694,"x_min":53,"x_max":642,"o":"m 642 322 q 568 68 642 151 q 343 -14 494 -14 q 125 70 197 -14 q 53 322 53 153 q 126 573 53 491 q 349 654 199 654 q 571 570 500 654 q 642 322 642 486 m 443 322 q 421 529 443 471 q 345 586 399 586 q 272 531 292 586 q 252 322 252 476 q 272 110 252 165 q 345 54 293 54 q 420 113 398 54 q 443 322 443 172 m 254 758 l 254 781 l 367 965 l 560 965 l 560 940 l 313 758 l 254 758 z "},"ô":{"ha":694,"x_min":53,"x_max":642,"o":"m 642 322 q 568 68 642 151 q 343 -14 494 -14 q 125 70 197 -14 q 53 322 53 153 q 126 573 53 491 q 349 654 199 654 q 571 570 500 654 q 642 322 642 486 m 443 322 q 421 529 443 471 q 345 586 399 586 q 272 531 292 586 q 252 322 252 476 q 272 110 252 165 q 345 54 293 54 q 420 113 398 54 q 443 322 443 172 m 126 758 l 126 781 l 274 979 l 418 979 l 566 781 l 566 758 l 514 758 l 346 868 l 178 758 l 126 758 z "},"õ":{"ha":694,"x_min":53,"x_max":642,"o":"m 642 322 q 568 68 642 151 q 343 -14 494 -14 q 125 70 197 -14 q 53 322 53 153 q 126 573 53 491 q 349 654 199 654 q 571 570 500 654 q 642 322 642 486 m 443 322 q 421 529 443 471 q 345 586 399 586 q 272 531 292 586 q 252 322 252 476 q 272 110 252 165 q 345 54 293 54 q 420 113 398 54 q 443 322 443 172 m 427 761 q 293 821 369 761 q 232 851 254 851 q 200 836 209 851 q 185 773 191 821 l 114 773 q 158 923 121 878 q 260 968 194 968 q 320 956 293 968 q 394 909 347 943 q 454 879 435 879 q 475 883 467 879 q 488 898 483 888 q 501 955 493 908 l 572 955 q 529 806 565 852 q 427 761 494 761 z "},"ö":{"ha":694,"x_min":53,"x_max":642,"o":"m 642 322 q 568 68 642 151 q 343 -14 494 -14 q 125 70 197 -14 q 53 322 53 153 q 126 573 53 491 q 349 654 199 654 q 571 570 500 654 q 642 322 642 486 m 443 322 q 421 529 443 471 q 345 586 399 586 q 272 531 292 586 q 252 322 252 476 q 272 110 252 165 q 345 54 293 54 q 420 113 398 54 q 443 322 443 172 m 461 766 q 404 790 429 766 q 379 848 379 814 q 404 906 379 882 q 461 929 429 929 q 518 906 494 929 q 542 848 542 883 q 518 790 542 814 q 461 766 494 766 m 233 766 q 176 791 201 766 q 151 848 151 817 q 176 905 151 881 q 233 929 200 929 q 290 905 267 929 q 314 848 314 881 q 290 790 314 814 q 233 766 267 766 z "},"÷":{"ha":762,"x_min":58,"x_max":704,"o":"m 704 509 l 704 412 l 58 412 l 58 509 l 704 509 m 380 124 q 316 151 342 124 q 290 215 290 177 q 316 279 290 253 q 380 306 342 306 q 445 279 418 306 q 471 215 471 253 q 445 151 471 177 q 380 124 418 124 m 380 616 q 316 643 342 616 q 290 707 290 669 q 316 772 290 745 q 380 798 342 798 q 445 772 418 798 q 471 707 471 745 q 445 643 471 669 q 380 616 418 616 z "},"ø":{"ha":694,"x_min":47,"x_max":646,"o":"m 130 64 q 53 322 53 146 q 126 573 53 491 q 349 654 199 654 q 511 618 446 654 l 562 693 l 646 693 l 566 576 q 642 322 642 493 q 568 68 642 151 q 343 -14 494 -14 q 186 20 250 -14 l 134 -57 l 47 -57 l 130 64 m 252 322 l 252 281 l 253 243 l 429 500 q 399 565 419 543 q 345 586 379 586 q 272 531 292 586 q 252 322 252 476 m 443 322 l 441 394 l 264 135 q 293 74 274 94 q 345 54 312 54 q 420 113 398 54 q 443 322 443 172 z "},"ù":{"ha":772,"x_min":21,"x_max":735,"o":"m 478 56 l 432 32 q 261 -17 337 -17 q 85 171 85 -17 l 85 576 l 21 593 l 21 637 l 281 637 l 281 197 q 305 109 281 140 q 374 77 329 77 q 477 100 425 77 l 477 576 l 418 593 l 418 637 l 673 637 l 673 61 l 735 45 l 735 0 l 488 0 l 478 56 m 428 758 l 181 940 l 181 965 l 374 965 l 486 780 l 486 758 l 428 758 z "},"ú":{"ha":772,"x_min":21,"x_max":735,"o":"m 478 56 l 432 32 q 261 -17 337 -17 q 85 171 85 -17 l 85 576 l 21 593 l 21 637 l 281 637 l 281 197 q 305 109 281 140 q 374 77 329 77 q 477 100 425 77 l 477 576 l 418 593 l 418 637 l 673 637 l 673 61 l 735 45 l 735 0 l 488 0 l 478 56 m 282 758 l 282 781 l 395 965 l 588 965 l 588 940 l 340 758 l 282 758 z "},"û":{"ha":772,"x_min":21,"x_max":735,"o":"m 478 56 l 432 32 q 261 -17 337 -17 q 85 171 85 -17 l 85 576 l 21 593 l 21 637 l 281 637 l 281 197 q 305 109 281 140 q 374 77 329 77 q 477 100 425 77 l 477 576 l 418 593 l 418 637 l 673 637 l 673 61 l 735 45 l 735 0 l 488 0 l 478 56 m 162 758 l 162 781 l 310 979 l 454 979 l 602 781 l 602 758 l 550 758 l 382 868 l 214 758 l 162 758 z "},"ü":{"ha":772,"x_min":21,"x_max":735,"o":"m 478 56 l 432 32 q 261 -17 337 -17 q 85 171 85 -17 l 85 576 l 21 593 l 21 637 l 281 637 l 281 197 q 305 109 281 140 q 374 77 329 77 q 477 100 425 77 l 477 576 l 418 593 l 418 637 l 673 637 l 673 61 l 735 45 l 735 0 l 488 0 l 478 56 m 498 766 q 441 790 466 766 q 416 848 416 814 q 441 906 416 882 q 498 929 466 929 q 555 906 532 929 q 579 848 579 883 q 555 790 579 814 q 498 766 532 766 m 271 766 q 213 791 238 766 q 189 848 189 817 q 213 905 189 881 q 271 929 237 929 q 328 905 304 929 q 351 848 351 881 q 328 790 351 814 q 271 766 304 766 z "},"ý":{"ha":694,"x_min":14,"x_max":681,"o":"m 313 -20 l 58 576 l 14 593 l 14 637 l 340 637 l 340 593 l 264 575 l 414 222 l 547 576 l 473 593 l 473 637 l 681 637 l 681 593 l 635 579 l 383 -40 q 307 -200 340 -151 q 235 -275 275 -250 q 144 -300 195 -300 q 33 -287 90 -300 l 33 -123 l 73 -123 l 102 -208 q 153 -224 122 -224 q 198 -212 178 -224 q 235 -176 218 -199 q 268 -120 252 -153 q 313 -20 283 -86 m 279 758 l 279 781 l 392 965 l 585 965 l 585 940 l 338 758 l 279 758 z "},"þ":{"ha":772,"x_min":9,"x_max":729,"o":"m 87 904 l 9 920 l 9 964 l 283 964 l 283 730 q 277 605 283 663 q 359 644 318 633 q 446 654 401 654 q 658 573 587 654 q 729 324 729 492 q 654 74 729 161 q 436 -14 580 -14 q 279 5 353 -14 q 283 -96 283 -40 l 283 -235 l 377 -251 l 377 -296 l 18 -296 l 18 -251 l 87 -235 l 87 904 m 530 319 q 497 512 530 444 q 404 579 464 579 q 283 550 342 579 l 283 70 q 398 56 338 56 q 495 122 459 56 q 530 319 530 189 z "},"ÿ":{"ha":694,"x_min":14,"x_max":681,"o":"m 313 -20 l 58 576 l 14 593 l 14 637 l 340 637 l 340 593 l 264 575 l 414 222 l 547 576 l 473 593 l 473 637 l 681 637 l 681 593 l 635 579 l 383 -40 q 307 -200 340 -151 q 235 -275 275 -250 q 144 -300 195 -300 q 33 -287 90 -300 l 33 -123 l 73 -123 l 102 -208 q 153 -224 122 -224 q 198 -212 178 -224 q 235 -176 218 -199 q 268 -120 252 -153 q 313 -20 283 -86 m 479 766 q 422 790 447 766 q 397 848 397 814 q 422 906 397 882 q 479 929 447 929 q 536 906 513 929 q 560 848 560 883 q 536 790 560 814 q 479 766 513 766 m 252 766 q 194 791 219 766 q 170 848 170 817 q 194 905 170 881 q 252 929 218 929 q 309 905 285 929 q 332 848 332 881 q 309 790 332 814 q 252 766 285 766 z "},"Ā":{"ha":1003,"x_min":14,"x_max":993,"o":"m 290 50 l 290 0 l 14 0 l 14 50 l 81 68 l 405 917 l 602 917 l 924 68 l 993 50 l 993 0 l 588 0 l 588 50 l 693 68 l 606 303 l 257 303 l 174 68 l 290 50 m 435 780 l 285 378 l 581 378 l 435 780 m 288 987 l 288 1088 l 714 1088 l 714 987 l 288 987 z "},"ā":{"ha":694,"x_min":45,"x_max":673,"o":"m 370 652 q 610 475 610 652 l 610 61 l 673 45 l 673 0 l 439 0 l 424 49 q 328 0 371 13 q 242 -14 286 -14 q 45 176 45 -14 q 74 291 45 248 q 158 355 103 334 q 331 378 213 376 l 414 380 l 414 473 q 319 589 414 589 q 192 553 262 589 l 166 474 l 121 474 l 121 628 q 272 648 224 644 q 370 652 320 652 m 414 320 l 357 318 q 266 283 291 315 q 240 180 240 252 q 260 96 240 123 q 313 68 281 68 q 414 92 359 68 l 414 320 m 134 760 l 134 862 l 560 862 l 560 760 l 134 760 z "},"Ă":{"ha":1003,"x_min":14,"x_max":993,"o":"m 290 50 l 290 0 l 14 0 l 14 50 l 81 68 l 405 917 l 602 917 l 924 68 l 993 50 l 993 0 l 588 0 l 588 50 l 693 68 l 606 303 l 257 303 l 174 68 l 290 50 m 435 780 l 285 378 l 581 378 l 435 780 m 501 986 q 352 1044 406 986 q 297 1205 298 1101 l 366 1205 q 412 1126 377 1149 q 501 1103 446 1103 q 591 1126 560 1103 q 637 1205 623 1150 l 705 1205 q 649 1042 702 1098 q 501 986 595 986 z "},"ă":{"ha":694,"x_min":45,"x_max":673,"o":"m 370 652 q 610 475 610 652 l 610 61 l 673 45 l 673 0 l 439 0 l 424 49 q 328 0 371 13 q 242 -14 286 -14 q 45 176 45 -14 q 74 291 45 248 q 158 355 103 334 q 331 378 213 376 l 414 380 l 414 473 q 319 589 414 589 q 192 553 262 589 l 166 474 l 121 474 l 121 628 q 272 648 224 644 q 370 652 320 652 m 414 320 l 357 318 q 266 283 291 315 q 240 180 240 252 q 260 96 240 123 q 313 68 281 68 q 414 92 359 68 l 414 320 m 347 760 q 198 817 252 760 q 143 979 144 875 l 212 979 q 258 899 223 922 q 347 876 292 876 q 437 900 406 876 q 483 979 469 924 l 551 979 q 495 815 548 871 q 347 760 441 760 z "},"Ą":{"ha":1003,"x_min":14,"x_max":993,"o":"m 290 50 l 290 0 l 14 0 l 14 50 l 81 68 l 405 917 l 602 917 l 924 68 l 993 50 l 993 0 l 588 0 l 588 50 l 693 68 l 606 303 l 257 303 l 174 68 l 290 50 m 435 780 l 285 378 l 581 378 l 435 780 m 772 -292 q 654 -253 696 -292 q 613 -146 613 -215 q 638 -58 613 -99 q 703 9 663 -16 l 789 9 q 739 -135 739 -62 q 759 -196 739 -174 q 815 -217 779 -217 q 909 -197 856 -217 l 909 -255 q 772 -292 847 -292 z "},"ą":{"ha":694,"x_min":45,"x_max":673,"o":"m 370 652 q 610 475 610 652 l 610 61 l 673 45 l 673 0 l 439 0 l 424 49 q 328 0 371 13 q 242 -14 286 -14 q 45 176 45 -14 q 74 291 45 248 q 158 355 103 334 q 331 378 213 376 l 414 380 l 414 473 q 319 589 414 589 q 192 553 262 589 l 166 474 l 121 474 l 121 628 q 272 648 224 644 q 370 652 320 652 m 414 320 l 357 318 q 266 283 291 315 q 240 180 240 252 q 260 96 240 123 q 313 68 281 68 q 414 92 359 68 l 414 320 m 522 -292 q 404 -253 445 -292 q 362 -146 362 -215 q 387 -58 362 -99 q 452 9 412 -16 l 538 9 q 488 -135 488 -62 q 508 -196 488 -174 q 564 -217 528 -217 q 658 -197 605 -217 l 658 -255 q 522 -292 596 -292 z "},"Ć":{"ha":1003,"x_min":68,"x_max":897,"o":"m 553 -14 q 196 108 324 -14 q 68 444 68 229 q 190 799 68 677 q 552 920 313 920 q 880 874 710 920 l 884 656 l 823 656 l 804 787 q 595 848 714 848 q 366 750 438 848 q 293 446 293 652 q 369 156 293 256 q 590 56 445 56 q 724 77 667 56 q 814 125 781 97 l 836 274 l 897 274 l 893 43 q 734 3 832 20 q 553 -14 637 -14 m 458 985 l 458 1007 l 571 1192 l 764 1192 l 764 1166 l 517 985 l 458 985 z "},"ć":{"ha":616,"x_min":47,"x_max":582,"o":"m 582 39 q 497 1 551 14 q 387 -13 444 -13 q 132 69 216 -13 q 47 320 47 151 q 86 500 47 425 q 195 615 124 575 q 361 654 267 654 q 568 631 456 654 l 568 442 l 519 442 l 490 554 q 445 578 467 571 q 386 585 422 585 q 313 553 346 585 q 263 463 281 521 q 245 324 245 405 q 287 130 245 188 q 422 71 330 71 q 582 91 515 71 l 582 39 m 258 758 l 258 781 l 370 965 l 564 965 l 564 940 l 316 758 l 258 758 z "},"Ĉ":{"ha":1003,"x_min":68,"x_max":897,"o":"m 553 -14 q 196 108 324 -14 q 68 444 68 229 q 190 799 68 677 q 552 920 313 920 q 880 874 710 920 l 884 656 l 823 656 l 804 787 q 595 848 714 848 q 366 750 438 848 q 293 446 293 652 q 369 156 293 256 q 590 56 445 56 q 724 77 667 56 q 814 125 781 97 l 836 274 l 897 274 l 893 43 q 734 3 832 20 q 553 -14 637 -14 m 334 1030 l 334 1053 l 481 1251 l 626 1251 l 773 1053 l 773 1030 l 722 1030 l 553 1140 l 385 1030 l 334 1030 z "},"ĉ":{"ha":616,"x_min":47,"x_max":582,"o":"m 582 39 q 497 1 551 14 q 387 -13 444 -13 q 132 69 216 -13 q 47 320 47 151 q 86 500 47 425 q 195 615 124 575 q 361 654 267 654 q 568 631 456 654 l 568 442 l 519 442 l 490 554 q 445 578 467 571 q 386 585 422 585 q 313 553 346 585 q 263 463 281 521 q 245 324 245 405 q 287 130 245 188 q 422 71 330 71 q 582 91 515 71 l 582 39 m 134 758 l 134 781 l 281 979 l 426 979 l 573 781 l 573 758 l 522 758 l 353 868 l 185 758 l 134 758 z "},"Ċ":{"ha":1003,"x_min":68,"x_max":897,"o":"m 553 -14 q 196 108 324 -14 q 68 444 68 229 q 190 799 68 677 q 552 920 313 920 q 880 874 710 920 l 884 656 l 823 656 l 804 787 q 595 848 714 848 q 366 750 438 848 q 293 446 293 652 q 369 156 293 256 q 590 56 445 56 q 724 77 667 56 q 814 125 781 97 l 836 274 l 897 274 l 893 43 q 734 3 832 20 q 553 -14 637 -14 m 467 1086 q 498 1160 467 1131 q 572 1190 529 1190 q 645 1160 615 1190 q 675 1086 675 1130 q 646 1013 675 1044 q 572 982 616 982 q 498 1012 528 982 q 467 1086 467 1042 z "},"ċ":{"ha":616,"x_min":47,"x_max":582,"o":"m 582 39 q 497 1 551 14 q 387 -13 444 -13 q 132 69 216 -13 q 47 320 47 151 q 86 500 47 425 q 195 615 124 575 q 361 654 267 654 q 568 631 456 654 l 568 442 l 519 442 l 490 554 q 445 578 467 571 q 386 585 422 585 q 313 553 346 585 q 263 463 281 521 q 245 324 245 405 q 287 130 245 188 q 422 71 330 71 q 582 91 515 71 l 582 39 m 247 860 q 278 934 247 904 q 351 964 309 964 q 425 933 395 964 q 455 860 455 903 q 425 786 455 817 q 351 755 395 755 q 277 786 308 755 q 247 860 247 816 z "},"Č":{"ha":1003,"x_min":68,"x_max":897,"o":"m 553 -14 q 196 108 324 -14 q 68 444 68 229 q 190 799 68 677 q 552 920 313 920 q 880 874 710 920 l 884 656 l 823 656 l 804 787 q 595 848 714 848 q 366 750 438 848 q 293 446 293 652 q 369 156 293 256 q 590 56 445 56 q 724 77 667 56 q 814 125 781 97 l 836 274 l 897 274 l 893 43 q 734 3 832 20 q 553 -14 637 -14 m 791 1206 l 791 1183 l 643 985 l 498 985 l 351 1183 l 351 1206 l 403 1206 l 571 1096 l 739 1206 l 791 1206 z "},"č":{"ha":616,"x_min":47,"x_max":582,"o":"m 582 39 q 497 1 551 14 q 387 -13 444 -13 q 132 69 216 -13 q 47 320 47 151 q 86 500 47 425 q 195 615 124 575 q 361 654 267 654 q 568 631 456 654 l 568 442 l 519 442 l 490 554 q 445 578 467 571 q 386 585 422 585 q 313 553 346 585 q 263 463 281 521 q 245 324 245 405 q 287 130 245 188 q 422 71 330 71 q 582 91 515 71 l 582 39 m 581 979 l 581 957 l 433 758 l 288 758 l 141 957 l 141 979 l 193 979 l 361 869 l 529 979 l 581 979 z "},"Ď":{"ha":1003,"x_min":24,"x_max":935,"o":"m 710 454 q 638 743 710 651 q 404 835 566 835 l 354 835 l 354 77 q 472 72 419 72 q 611 110 560 72 q 686 229 663 148 q 710 454 710 310 m 456 909 q 818 799 701 909 q 935 460 935 688 q 823 112 935 226 q 485 -3 711 -3 l 180 0 l 24 0 l 24 50 l 141 68 l 141 842 l 24 860 l 24 909 l 456 909 m 689 1206 l 689 1183 l 541 985 l 397 985 l 250 1183 l 250 1206 l 301 1206 l 469 1096 l 637 1206 l 689 1206 z "},"ď":{"ha":1019,"x_min":56,"x_max":1018,"o":"m 497 36 q 439 4 459 12 q 393 -9 418 -4 q 336 -14 367 -14 q 125 67 195 -14 q 56 317 56 149 q 131 568 56 482 q 346 654 205 654 q 495 636 420 654 q 491 741 491 659 l 491 903 l 426 919 l 426 964 l 687 964 l 687 61 l 757 45 l 757 0 l 511 0 l 497 36 m 255 322 q 287 129 255 195 q 378 62 319 62 q 491 91 433 62 l 491 571 q 384 585 438 585 q 289 518 323 585 q 255 322 255 452 m 1018 850 q 957 698 1018 761 q 775 604 895 635 l 775 658 q 863 705 829 674 q 896 768 896 736 q 886 792 896 782 q 851 814 876 802 q 806 887 806 838 q 832 945 806 925 q 901 964 859 964 q 984 933 949 964 q 1018 850 1018 902 z "},"Đ":{"ha":1003,"x_min":35,"x_max":950,"o":"m 471 909 q 833 799 716 909 q 950 460 950 688 q 838 112 950 226 q 500 -3 726 -3 l 195 0 l 54 0 l 54 50 l 156 68 l 156 413 l 35 413 l 35 496 l 156 496 l 156 842 l 39 860 l 39 909 l 471 909 m 725 454 q 653 743 725 651 q 419 835 581 835 l 369 835 l 369 496 l 543 496 l 543 413 l 369 413 l 369 77 q 487 72 434 72 q 626 110 575 72 q 701 229 677 148 q 725 454 725 310 z "},"đ":{"ha":772,"x_min":56,"x_max":757,"o":"m 497 36 q 439 4 459 12 q 393 -9 418 -4 q 336 -14 367 -14 q 125 65 194 -14 q 56 310 56 144 q 131 557 56 473 q 346 641 205 641 q 495 623 420 641 q 491 739 491 645 l 491 745 l 343 745 l 343 815 l 491 815 l 491 903 l 426 919 l 426 964 l 687 964 l 687 815 l 757 815 l 757 745 l 687 745 l 687 61 l 757 45 l 757 0 l 511 0 l 497 36 m 255 315 q 287 126 255 191 q 378 62 319 62 q 491 90 431 62 l 491 558 q 384 572 435 572 q 289 507 323 572 q 255 315 255 441 z "},"Ē":{"ha":926,"x_min":24,"x_max":855,"o":"m 24 50 l 140 68 l 140 842 l 24 860 l 24 909 l 798 909 l 798 678 l 736 678 l 715 825 q 495 835 639 835 l 354 835 l 354 501 l 592 501 l 613 602 l 673 602 l 673 322 l 613 322 l 592 425 l 354 425 l 354 75 l 526 75 q 755 85 701 75 l 793 254 l 855 254 l 842 0 l 24 0 l 24 50 m 245 987 l 245 1088 l 671 1088 l 671 987 l 245 987 z "},"ē":{"ha":616,"x_min":47,"x_max":581,"o":"m 335 653 q 523 584 465 653 q 581 369 581 515 l 581 313 l 246 313 l 246 302 q 262 159 246 201 q 315 94 279 116 q 416 71 352 71 q 566 91 475 71 l 566 39 q 470 2 529 16 q 354 -13 410 -13 q 122 69 197 -13 q 47 322 47 151 q 119 571 47 489 q 335 653 191 653 m 328 585 q 267 541 287 585 q 247 385 247 496 l 395 385 q 389 512 395 475 q 368 567 382 549 q 328 585 353 585 m 113 760 l 113 862 l 539 862 l 539 760 l 113 760 z "},"Ĕ":{"ha":926,"x_min":24,"x_max":855,"o":"m 24 50 l 140 68 l 140 842 l 24 860 l 24 909 l 798 909 l 798 678 l 736 678 l 715 825 q 495 835 639 835 l 354 835 l 354 501 l 592 501 l 613 602 l 673 602 l 673 322 l 613 322 l 592 425 l 354 425 l 354 75 l 526 75 q 755 85 701 75 l 793 254 l 855 254 l 842 0 l 24 0 l 24 50 m 463 986 q 314 1044 368 986 q 259 1205 260 1101 l 328 1205 q 374 1126 339 1149 q 463 1103 408 1103 q 553 1126 522 1103 q 599 1205 585 1150 l 667 1205 q 611 1042 664 1098 q 463 986 557 986 z "},"ĕ":{"ha":616,"x_min":47,"x_max":581,"o":"m 335 653 q 523 584 465 653 q 581 369 581 515 l 581 313 l 246 313 l 246 302 q 262 159 246 201 q 315 94 279 116 q 416 71 352 71 q 566 91 475 71 l 566 39 q 470 2 529 16 q 354 -13 410 -13 q 122 69 197 -13 q 47 322 47 151 q 119 571 47 489 q 335 653 191 653 m 328 585 q 267 541 287 585 q 247 385 247 496 l 395 385 q 389 512 395 475 q 368 567 382 549 q 328 585 353 585 m 327 760 q 178 817 231 760 q 123 979 124 875 l 191 979 q 237 899 203 922 q 327 876 272 876 q 417 900 386 876 q 463 979 448 924 l 531 979 q 474 815 528 871 q 327 760 421 760 z "},"Ė":{"ha":926,"x_min":24,"x_max":855,"o":"m 24 50 l 140 68 l 140 842 l 24 860 l 24 909 l 798 909 l 798 678 l 736 678 l 715 825 q 495 835 639 835 l 354 835 l 354 501 l 592 501 l 613 602 l 673 602 l 673 322 l 613 322 l 592 425 l 354 425 l 354 75 l 526 75 q 755 85 701 75 l 793 254 l 855 254 l 842 0 l 24 0 l 24 50 m 354 1086 q 385 1160 354 1131 q 458 1190 416 1190 q 532 1160 502 1190 q 562 1086 562 1130 q 532 1013 562 1044 q 458 982 503 982 q 385 1012 415 982 q 354 1086 354 1042 z "},"ė":{"ha":616,"x_min":47,"x_max":581,"o":"m 335 653 q 523 584 465 653 q 581 369 581 515 l 581 313 l 246 313 l 246 302 q 262 159 246 201 q 315 94 279 116 q 416 71 352 71 q 566 91 475 71 l 566 39 q 470 2 529 16 q 354 -13 410 -13 q 122 69 197 -13 q 47 322 47 151 q 119 571 47 489 q 335 653 191 653 m 328 585 q 267 541 287 585 q 247 385 247 496 l 395 385 q 389 512 395 475 q 368 567 382 549 q 328 585 353 585 m 223 860 q 254 934 223 904 q 328 964 285 964 q 401 933 371 964 q 431 860 431 903 q 401 786 431 817 q 328 755 372 755 q 254 786 284 755 q 223 860 223 816 z "},"Ę":{"ha":926,"x_min":24,"x_max":855,"o":"m 24 50 l 140 68 l 140 842 l 24 860 l 24 909 l 798 909 l 798 678 l 736 678 l 715 825 q 495 835 639 835 l 354 835 l 354 501 l 592 501 l 613 602 l 673 602 l 673 322 l 613 322 l 592 425 l 354 425 l 354 75 l 526 75 q 755 85 701 75 l 793 254 l 855 254 l 842 0 l 24 0 l 24 50 m 700 -292 q 582 -253 623 -292 q 541 -146 541 -215 q 565 -58 541 -99 q 631 9 590 -16 l 717 9 q 667 -135 667 -62 q 686 -196 667 -174 q 743 -217 706 -217 q 836 -197 783 -217 l 836 -255 q 700 -292 774 -292 z "},"ę":{"ha":616,"x_min":47,"x_max":581,"o":"m 335 653 q 523 584 465 653 q 581 369 581 515 l 581 313 l 246 313 l 246 302 q 262 159 246 201 q 315 94 279 116 q 416 71 352 71 q 566 91 475 71 l 566 39 q 470 2 529 16 q 354 -13 410 -13 q 122 69 197 -13 q 47 322 47 151 q 119 571 47 489 q 335 653 191 653 m 328 585 q 267 541 287 585 q 247 385 247 496 l 395 385 q 389 512 395 475 q 368 567 382 549 q 328 585 353 585 m 435 -292 q 317 -253 358 -292 q 275 -146 275 -215 q 300 -58 275 -99 q 366 9 325 -16 l 452 9 q 401 -135 401 -62 q 421 -196 401 -174 q 477 -217 441 -217 q 571 -197 518 -217 l 571 -255 q 435 -292 509 -292 z "},"Ě":{"ha":926,"x_min":24,"x_max":855,"o":"m 24 50 l 140 68 l 140 842 l 24 860 l 24 909 l 798 909 l 798 678 l 736 678 l 715 825 q 495 835 639 835 l 354 835 l 354 501 l 592 501 l 613 602 l 673 602 l 673 322 l 613 322 l 592 425 l 354 425 l 354 75 l 526 75 q 755 85 701 75 l 793 254 l 855 254 l 842 0 l 24 0 l 24 50 m 669 1206 l 669 1183 l 522 985 l 377 985 l 230 1183 l 230 1206 l 281 1206 l 450 1096 l 618 1206 l 669 1206 z "},"ě":{"ha":616,"x_min":47,"x_max":581,"o":"m 335 653 q 523 584 465 653 q 581 369 581 515 l 581 313 l 246 313 l 246 302 q 262 159 246 201 q 315 94 279 116 q 416 71 352 71 q 566 91 475 71 l 566 39 q 470 2 529 16 q 354 -13 410 -13 q 122 69 197 -13 q 47 322 47 151 q 119 571 47 489 q 335 653 191 653 m 328 585 q 267 541 287 585 q 247 385 247 496 l 395 385 q 389 512 395 475 q 368 567 382 549 q 328 585 353 585 m 543 979 l 543 957 l 395 758 l 250 758 l 103 957 l 103 979 l 155 979 l 323 869 l 491 979 l 543 979 z "},"Ĝ":{"ha":1080,"x_min":68,"x_max":1042,"o":"m 954 47 q 758 3 869 20 q 558 -14 647 -14 q 299 41 410 -14 q 128 199 188 95 q 68 444 68 302 q 198 796 68 673 q 571 920 329 920 q 679 915 630 920 q 769 902 727 910 q 924 862 811 894 l 924 653 l 863 653 l 846 771 q 728 828 793 808 q 595 848 664 848 q 365 750 437 848 q 293 446 293 652 q 369 155 293 254 q 590 56 446 56 q 740 80 669 56 l 740 343 l 623 361 l 623 411 l 1042 411 l 1042 361 l 954 343 l 954 47 m 347 1030 l 347 1053 l 494 1251 l 639 1251 l 786 1053 l 786 1030 l 734 1030 l 566 1140 l 398 1030 l 347 1030 z "},"ĝ":{"ha":694,"x_min":37,"x_max":681,"o":"m 174 235 q 54 434 54 286 q 127 597 54 540 q 339 654 201 654 q 414 649 368 654 q 481 637 460 644 l 633 713 l 657 684 l 580 574 q 622 434 622 522 q 549 268 622 326 q 336 210 476 210 q 233 218 283 210 l 216 167 q 241 130 218 147 q 300 113 265 113 l 448 113 q 681 -66 681 113 q 641 -194 681 -140 q 522 -277 600 -247 q 327 -307 444 -307 q 113 -267 189 -307 q 37 -158 37 -227 q 61 -99 37 -127 q 157 -29 86 -71 q 89 25 117 -14 q 61 106 61 64 l 174 235 m 532 -113 q 446 -48 532 -48 l 231 -48 q 172 -146 172 -92 q 213 -212 172 -190 q 328 -233 255 -233 q 479 -201 426 -233 q 532 -113 532 -170 m 335 278 q 408 317 385 278 q 430 434 430 356 q 408 549 430 512 q 335 586 386 586 q 267 549 288 586 q 245 434 245 512 q 267 317 245 356 q 335 278 288 278 m 117 758 l 117 781 l 264 979 l 409 979 l 556 781 l 556 758 l 505 758 l 336 868 l 168 758 l 117 758 z "},"Ğ":{"ha":1080,"x_min":68,"x_max":1042,"o":"m 954 47 q 758 3 869 20 q 558 -14 647 -14 q 299 41 410 -14 q 128 199 188 95 q 68 444 68 302 q 198 796 68 673 q 571 920 329 920 q 679 915 630 920 q 769 902 727 910 q 924 862 811 894 l 924 653 l 863 653 l 846 771 q 728 828 793 808 q 595 848 664 848 q 365 750 437 848 q 293 446 293 652 q 369 155 293 254 q 590 56 446 56 q 740 80 669 56 l 740 343 l 623 361 l 623 411 l 1042 411 l 1042 361 l 954 343 l 954 47 m 575 986 q 426 1044 479 986 q 371 1205 372 1101 l 439 1205 q 486 1126 451 1149 q 575 1103 520 1103 q 665 1126 634 1103 q 711 1205 696 1150 l 779 1205 q 723 1042 776 1098 q 575 986 669 986 z "},"ğ":{"ha":694,"x_min":37,"x_max":681,"o":"m 174 235 q 54 434 54 286 q 127 597 54 540 q 339 654 201 654 q 414 649 368 654 q 481 637 460 644 l 633 713 l 657 684 l 580 574 q 622 434 622 522 q 549 268 622 326 q 336 210 476 210 q 233 218 283 210 l 216 167 q 241 130 218 147 q 300 113 265 113 l 448 113 q 681 -66 681 113 q 641 -194 681 -140 q 522 -277 600 -247 q 327 -307 444 -307 q 113 -267 189 -307 q 37 -158 37 -227 q 61 -99 37 -127 q 157 -29 86 -71 q 89 25 117 -14 q 61 106 61 64 l 174 235 m 532 -113 q 446 -48 532 -48 l 231 -48 q 172 -146 172 -92 q 213 -212 172 -190 q 328 -233 255 -233 q 479 -201 426 -233 q 532 -113 532 -170 m 335 278 q 408 317 385 278 q 430 434 430 356 q 408 549 430 512 q 335 586 386 586 q 267 549 288 586 q 245 434 245 512 q 267 317 245 356 q 335 278 288 278 m 345 760 q 196 817 250 760 q 141 979 142 875 l 210 979 q 256 899 221 922 q 345 876 290 876 q 435 900 404 876 q 481 979 467 924 l 549 979 q 493 815 546 871 q 345 760 439 760 z "},"Ġ":{"ha":1080,"x_min":68,"x_max":1042,"o":"m 954 47 q 758 3 869 20 q 558 -14 647 -14 q 299 41 410 -14 q 128 199 188 95 q 68 444 68 302 q 198 796 68 673 q 571 920 329 920 q 679 915 630 920 q 769 902 727 910 q 924 862 811 894 l 924 653 l 863 653 l 846 771 q 728 828 793 808 q 595 848 664 848 q 365 750 437 848 q 293 446 293 652 q 369 155 293 254 q 590 56 446 56 q 740 80 669 56 l 740 343 l 623 361 l 623 411 l 1042 411 l 1042 361 l 954 343 l 954 47 m 467 1086 q 498 1160 467 1131 q 572 1190 529 1190 q 645 1160 615 1190 q 675 1086 675 1130 q 646 1013 675 1044 q 572 982 616 982 q 498 1012 528 982 q 467 1086 467 1042 z "},"ġ":{"ha":694,"x_min":37,"x_max":681,"o":"m 174 235 q 54 434 54 286 q 127 597 54 540 q 339 654 201 654 q 414 649 368 654 q 481 637 460 644 l 633 713 l 657 684 l 580 574 q 622 434 622 522 q 549 268 622 326 q 336 210 476 210 q 233 218 283 210 l 216 167 q 241 130 218 147 q 300 113 265 113 l 448 113 q 681 -66 681 113 q 641 -194 681 -140 q 522 -277 600 -247 q 327 -307 444 -307 q 113 -267 189 -307 q 37 -158 37 -227 q 61 -99 37 -127 q 157 -29 86 -71 q 89 25 117 -14 q 61 106 61 64 l 174 235 m 532 -113 q 446 -48 532 -48 l 231 -48 q 172 -146 172 -92 q 213 -212 172 -190 q 328 -233 255 -233 q 479 -201 426 -233 q 532 -113 532 -170 m 335 278 q 408 317 385 278 q 430 434 430 356 q 408 549 430 512 q 335 586 386 586 q 267 549 288 586 q 245 434 245 512 q 267 317 245 356 q 335 278 288 278 m 239 860 q 270 934 239 904 q 344 964 301 964 q 417 933 387 964 q 448 860 448 903 q 418 786 448 817 q 344 755 388 755 q 270 786 300 755 q 239 860 239 816 z "},"Ģ":{"ha":1080,"x_min":68,"x_max":1042,"o":"m 954 47 q 758 3 869 20 q 558 -14 647 -14 q 299 41 410 -14 q 128 199 188 95 q 68 444 68 302 q 198 796 68 673 q 571 920 329 920 q 679 915 630 920 q 769 902 727 910 q 924 862 811 894 l 924 653 l 863 653 l 846 771 q 728 828 793 808 q 595 848 664 848 q 365 750 437 848 q 293 446 293 652 q 369 155 293 254 q 590 56 446 56 q 740 80 669 56 l 740 343 l 623 361 l 623 411 l 1042 411 l 1042 361 l 954 343 l 954 47 m 659 -161 q 603 -287 659 -238 q 441 -355 547 -335 l 441 -308 q 517 -276 492 -294 q 542 -228 542 -258 q 530 -200 542 -211 q 504 -179 518 -189 q 477 -156 489 -169 q 465 -120 465 -142 q 490 -68 465 -88 q 557 -49 515 -49 q 632 -79 604 -49 q 659 -161 659 -109 z "},"ģ":{"ha":694,"x_min":37,"x_max":681,"o":"m 174 235 q 54 434 54 286 q 127 597 54 540 q 339 654 201 654 q 414 649 368 654 q 481 637 460 644 l 633 713 l 657 684 l 580 574 q 622 434 622 522 q 549 268 622 326 q 336 210 476 210 q 233 218 283 210 l 216 167 q 241 130 218 147 q 300 113 265 113 l 448 113 q 681 -66 681 113 q 641 -194 681 -140 q 522 -277 600 -247 q 327 -307 444 -307 q 113 -267 189 -307 q 37 -158 37 -227 q 61 -99 37 -127 q 157 -29 86 -71 q 89 25 117 -14 q 61 106 61 64 l 174 235 m 532 -113 q 446 -48 532 -48 l 231 -48 q 172 -146 172 -92 q 213 -212 172 -190 q 328 -233 255 -233 q 479 -201 426 -233 q 532 -113 532 -170 m 335 278 q 408 317 385 278 q 430 434 430 356 q 408 549 430 512 q 335 586 386 586 q 267 549 288 586 q 245 434 245 512 q 267 317 245 356 q 335 278 288 278 m 237 872 q 293 997 237 949 q 455 1065 349 1046 l 455 1019 q 379 987 404 1005 q 354 939 354 968 q 366 911 354 922 q 392 890 378 900 q 419 866 407 880 q 431 831 431 853 q 406 779 431 799 q 338 760 381 760 q 264 789 292 760 q 237 872 237 819 z "},"Ĥ":{"ha":1080,"x_min":24,"x_max":1057,"o":"m 24 0 l 24 50 l 140 68 l 140 842 l 24 860 l 24 909 l 471 909 l 471 860 l 354 842 l 354 505 l 726 505 l 726 842 l 609 860 l 609 909 l 1057 909 l 1057 860 l 940 842 l 940 68 l 1057 50 l 1057 0 l 609 0 l 609 50 l 726 68 l 726 431 l 354 431 l 354 68 l 471 50 l 471 0 l 24 0 m 320 985 l 320 1007 l 468 1206 l 612 1206 l 760 1007 l 760 985 l 708 985 l 540 1095 l 372 985 l 320 985 z "},"ĥ":{"ha":772,"x_min":35,"x_max":751,"o":"m 296 688 q 292 582 296 643 l 338 606 q 511 654 435 654 q 688 467 688 654 l 688 61 l 751 45 l 751 0 l 435 0 l 435 45 l 492 61 l 492 440 q 468 529 492 497 q 399 561 444 561 q 296 538 347 561 l 296 61 l 354 45 l 354 0 l 37 0 l 37 45 l 100 61 l 100 903 l 35 919 l 35 964 l 296 964 l 296 688 m 166 1039 l 166 1061 l 314 1260 l 458 1260 l 606 1061 l 606 1039 l 554 1039 l 386 1149 l 218 1039 l 166 1039 z "},"Ħ":{"ha":1080,"x_min":24,"x_max":1057,"o":"m 24 0 l 24 50 l 140 68 l 140 646 l 24 646 l 24 720 l 140 720 l 140 842 l 24 860 l 24 909 l 471 909 l 471 860 l 354 842 l 354 720 l 726 720 l 726 842 l 609 860 l 609 909 l 1057 909 l 1057 860 l 940 842 l 940 720 l 1057 720 l 1057 646 l 940 646 l 940 68 l 1057 50 l 1057 0 l 609 0 l 609 50 l 726 68 l 726 431 l 354 431 l 354 68 l 471 50 l 471 0 l 24 0 m 726 505 l 726 646 l 354 646 l 354 505 l 726 505 z "},"ħ":{"ha":772,"x_min":1,"x_max":751,"o":"m 466 745 l 296 745 l 296 674 q 292 568 296 629 l 338 592 q 511 641 435 641 q 688 453 688 641 l 688 61 l 751 45 l 751 0 l 435 0 l 435 45 l 492 61 l 492 427 q 468 515 492 484 q 399 547 444 547 q 296 524 347 547 l 296 61 l 354 45 l 354 0 l 37 0 l 37 45 l 100 61 l 100 745 l 1 745 l 1 815 l 100 815 l 100 903 l 35 919 l 35 964 l 296 964 l 296 815 l 466 815 l 466 745 z "},"Ĩ":{"ha":541,"x_min":41,"x_max":499,"o":"m 377 68 l 494 50 l 494 0 l 47 0 l 47 50 l 163 68 l 163 842 l 47 860 l 47 909 l 494 909 l 494 860 l 377 842 l 377 68 m 353 986 q 220 1046 296 986 q 159 1076 181 1076 q 127 1061 136 1076 q 112 998 118 1046 l 41 998 q 84 1148 48 1103 q 186 1193 121 1193 q 247 1181 220 1193 q 321 1135 273 1168 q 381 1104 362 1104 q 402 1108 394 1104 q 415 1123 410 1113 q 428 1180 420 1133 l 499 1180 q 456 1031 492 1077 q 353 986 420 986 z "},"ĩ":{"ha":386,"x_min":-35,"x_max":424,"o":"m 296 61 l 366 45 l 366 0 l 31 0 l 31 45 l 100 61 l 100 576 l 35 593 l 35 637 l 296 637 l 296 61 m 278 760 q 144 819 220 760 q 83 850 106 850 q 52 834 60 850 q 37 772 43 819 l -35 772 q 9 921 -27 876 q 111 966 45 966 q 171 954 144 966 q 245 908 198 942 q 306 878 287 878 q 327 882 319 878 q 339 897 334 886 q 353 954 345 907 l 424 954 q 381 805 416 850 q 278 760 345 760 z "},"Ī":{"ha":541,"x_min":47,"x_max":494,"o":"m 377 68 l 494 50 l 494 0 l 47 0 l 47 50 l 163 68 l 163 842 l 47 860 l 47 909 l 494 909 l 494 860 l 377 842 l 377 68 m 57 987 l 57 1088 l 483 1088 l 483 987 l 57 987 z "},"ī":{"ha":386,"x_min":-19,"x_max":407,"o":"m 296 61 l 366 45 l 366 0 l 31 0 l 31 45 l 100 61 l 100 576 l 35 593 l 35 637 l 296 637 l 296 61 m -19 760 l -19 862 l 407 862 l 407 760 l -19 760 z "},"Ĭ":{"ha":541,"x_min":47,"x_max":494,"o":"m 377 68 l 494 50 l 494 0 l 47 0 l 47 50 l 163 68 l 163 842 l 47 860 l 47 909 l 494 909 l 494 860 l 377 842 l 377 68 m 270 986 q 121 1044 174 986 q 66 1205 67 1101 l 134 1205 q 180 1126 146 1149 q 270 1103 215 1103 q 360 1126 329 1103 q 406 1205 391 1150 l 474 1205 q 417 1042 471 1098 q 270 986 364 986 z "},"ĭ":{"ha":386,"x_min":-8,"x_max":400,"o":"m 296 61 l 366 45 l 366 0 l 31 0 l 31 45 l 100 61 l 100 576 l 35 593 l 35 637 l 296 637 l 296 61 m 196 760 q 47 817 100 760 q -8 979 -7 875 l 60 979 q 106 899 72 922 q 196 876 141 876 q 286 900 255 876 q 332 979 317 924 l 400 979 q 343 815 397 871 q 196 760 290 760 z "},"Į":{"ha":541,"x_min":47,"x_max":494,"o":"m 377 68 l 494 50 l 494 0 l 47 0 l 47 50 l 163 68 l 163 842 l 47 860 l 47 909 l 494 909 l 494 860 l 377 842 l 377 68 m 315 -292 q 197 -253 238 -292 q 155 -146 155 -215 q 180 -58 155 -99 q 245 9 205 -16 l 332 9 q 281 -135 281 -62 q 301 -196 281 -174 q 357 -217 321 -217 q 451 -197 398 -217 l 451 -255 q 315 -292 389 -292 z "},"į":{"ha":386,"x_min":31,"x_max":366,"o":"m 296 61 l 366 45 l 366 0 l 31 0 l 31 45 l 100 61 l 100 576 l 35 593 l 35 637 l 296 637 l 296 61 m 93 860 q 124 934 93 904 q 197 964 155 964 q 271 933 241 964 q 301 860 301 903 q 271 786 301 817 q 197 755 241 755 q 123 786 154 755 q 93 860 93 816 m 230 -292 q 112 -253 153 -292 q 71 -146 71 -215 q 95 -58 71 -99 q 161 9 120 -16 l 247 9 q 197 -135 197 -62 q 216 -196 197 -174 q 273 -217 236 -217 q 366 -197 313 -217 l 366 -255 q 230 -292 304 -292 z "},"İ":{"ha":541,"x_min":47,"x_max":494,"o":"m 377 68 l 494 50 l 494 0 l 47 0 l 47 50 l 163 68 l 163 842 l 47 860 l 47 909 l 494 909 l 494 860 l 377 842 l 377 68 m 166 1086 q 197 1160 166 1131 q 271 1190 228 1190 q 344 1160 314 1190 q 374 1086 374 1130 q 345 1013 374 1044 q 271 982 315 982 q 197 1012 227 982 q 166 1086 166 1042 z "},"ı":{"ha":386,"x_min":31,"x_max":366,"o":"m 296 61 l 366 45 l 366 0 l 31 0 l 31 45 l 100 61 l 100 576 l 35 593 l 35 637 l 296 637 l 296 61 z "},"Ĳ":{"ha":1143,"x_min":47,"x_max":1112,"o":"m 377 68 l 494 50 l 494 0 l 47 0 l 47 50 l 163 68 l 163 842 l 47 860 l 47 909 l 494 909 l 494 860 l 377 842 l 377 68 m 795 842 l 678 860 l 678 909 l 1112 909 l 1112 860 l 1008 842 l 1008 293 q 927 66 1008 146 q 695 -14 846 -14 q 595 -8 644 -14 q 517 7 546 -2 l 517 213 l 577 213 l 597 92 q 634 67 610 76 q 686 58 658 58 q 764 91 733 58 q 795 187 795 123 l 795 842 z "},"ĳ":{"ha":767,"x_min":31,"x_max":680,"o":"m 296 61 l 366 45 l 366 0 l 31 0 l 31 45 l 100 61 l 100 576 l 35 593 l 35 637 l 296 637 l 296 61 m 93 860 q 124 934 93 904 q 197 964 155 964 q 271 933 241 964 q 301 860 301 903 q 271 786 301 817 q 197 755 241 755 q 123 786 154 755 q 93 860 93 816 m 680 860 q 649 786 680 817 q 576 755 619 755 q 502 786 532 755 q 471 860 471 816 q 502 933 471 903 q 576 964 532 964 q 649 933 618 964 q 680 860 680 903 m 674 -26 q 605 -225 674 -154 q 410 -296 536 -296 q 293 -283 349 -296 l 293 -131 l 336 -131 l 366 -208 q 399 -221 382 -221 q 457 -176 435 -221 q 478 -48 478 -131 l 478 570 l 366 593 l 366 637 l 674 637 l 674 -26 z "},"Ĵ":{"ha":694,"x_min":62,"x_max":662,"o":"m 340 842 l 223 860 l 223 909 l 656 909 l 656 860 l 553 842 l 553 293 q 472 66 553 146 q 240 -14 391 -14 q 140 -8 189 -14 q 62 7 91 -2 l 62 213 l 122 213 l 142 92 q 179 67 155 76 q 231 58 203 58 q 309 91 278 58 q 340 187 340 123 l 340 842 m 222 985 l 222 1007 l 370 1206 l 515 1206 l 662 1007 l 662 985 l 610 985 l 442 1095 l 274 985 l 222 985 z "},"ĵ":{"ha":463,"x_min":-12,"x_max":483,"o":"m 370 -26 q 301 -225 370 -154 q 105 -296 232 -296 q -12 -283 45 -296 l -12 -131 l 32 -131 l 61 -208 q 94 -221 77 -221 q 152 -176 131 -221 q 174 -48 174 -131 l 174 570 l 61 593 l 61 637 l 370 637 l 370 -26 m 43 758 l 43 781 l 191 979 l 336 979 l 483 781 l 483 758 l 431 758 l 263 868 l 95 758 l 43 758 z "},"Ķ":{"ha":1080,"x_min":24,"x_max":1069,"o":"m 996 909 l 996 860 l 885 842 l 585 577 l 985 68 l 1069 50 l 1069 0 l 772 0 l 433 438 l 354 370 l 354 68 l 485 50 l 485 0 l 24 0 l 24 50 l 140 68 l 140 842 l 24 860 l 24 909 l 471 909 l 471 860 l 354 842 l 354 472 l 768 842 l 685 860 l 685 909 l 996 909 m 642 -161 q 586 -287 642 -238 q 424 -355 530 -335 l 424 -308 q 500 -276 475 -294 q 525 -228 525 -258 q 513 -200 525 -211 q 487 -179 501 -189 q 460 -156 472 -169 q 448 -120 448 -142 q 473 -68 448 -88 q 541 -49 498 -49 q 615 -79 587 -49 q 642 -161 642 -109 z "},"ķ":{"ha":772,"x_min":35,"x_max":770,"o":"m 296 306 l 545 577 l 477 593 l 477 637 l 720 637 l 720 593 l 646 578 l 494 418 l 713 61 l 770 45 l 770 0 l 464 0 l 464 45 l 501 61 l 374 284 l 296 230 l 296 61 l 359 45 l 359 0 l 39 0 l 39 45 l 100 61 l 100 903 l 35 919 l 35 964 l 296 964 l 296 306 m 488 -161 q 432 -287 488 -238 q 270 -355 376 -335 l 270 -308 q 346 -276 321 -294 q 371 -228 371 -258 q 359 -200 371 -211 q 333 -179 347 -189 q 306 -156 318 -169 q 294 -120 294 -142 q 319 -68 294 -88 q 387 -49 344 -49 q 461 -79 433 -49 q 488 -161 488 -109 z "},"ĸ":{"ha":772,"x_min":35,"x_max":770,"o":"m 296 306 l 545 577 l 477 593 l 477 637 l 720 637 l 720 593 l 646 578 l 494 418 l 713 61 l 770 45 l 770 0 l 464 0 l 464 45 l 501 61 l 374 284 l 296 230 l 296 61 l 359 45 l 359 0 l 39 0 l 39 45 l 100 61 l 100 576 l 35 593 l 35 637 l 296 637 l 296 306 z "},"Ĺ":{"ha":926,"x_min":24,"x_max":868,"o":"m 494 860 l 354 842 l 354 72 l 539 72 q 751 85 684 72 l 807 275 l 868 275 l 842 0 l 24 0 l 24 50 l 140 68 l 140 842 l 24 860 l 24 909 l 494 909 l 494 860 m 215 985 l 215 1007 l 328 1192 l 521 1192 l 521 1166 l 273 985 l 215 985 z "},"ĺ":{"ha":386,"x_min":27,"x_max":400,"o":"m 292 61 l 362 45 l 362 0 l 27 0 l 27 45 l 96 61 l 96 903 l 31 919 l 31 964 l 292 964 l 292 61 m 94 1039 l 94 1061 l 207 1246 l 400 1246 l 400 1221 l 153 1039 l 94 1039 z "},"Ļ":{"ha":926,"x_min":24,"x_max":868,"o":"m 494 860 l 354 842 l 354 72 l 539 72 q 751 85 684 72 l 807 275 l 868 275 l 842 0 l 24 0 l 24 50 l 140 68 l 140 842 l 24 860 l 24 909 l 494 909 l 494 860 m 566 -161 q 510 -287 566 -238 q 348 -355 454 -335 l 348 -308 q 424 -276 399 -294 q 449 -228 449 -258 q 437 -200 449 -211 q 411 -179 425 -189 q 384 -156 396 -169 q 372 -120 372 -142 q 397 -68 372 -88 q 465 -49 422 -49 q 539 -79 511 -49 q 566 -161 566 -109 z "},"ļ":{"ha":386,"x_min":27,"x_max":362,"o":"m 292 61 l 362 45 l 362 0 l 27 0 l 27 45 l 96 61 l 96 903 l 31 919 l 31 964 l 292 964 l 292 61 m 294 -161 q 238 -287 294 -238 q 76 -355 182 -335 l 76 -308 q 152 -276 127 -294 q 177 -228 177 -258 q 165 -200 177 -211 q 139 -179 153 -189 q 112 -156 124 -169 q 100 -120 100 -142 q 125 -68 100 -88 q 193 -49 150 -49 q 267 -79 239 -49 q 294 -161 294 -109 z "},"Ľ":{"ha":926,"x_min":24,"x_max":868,"o":"m 494 860 l 354 842 l 354 72 l 539 72 q 751 85 684 72 l 807 275 l 868 275 l 842 0 l 24 0 l 24 50 l 140 68 l 140 842 l 24 860 l 24 909 l 494 909 l 494 860 m 818 810 q 756 657 818 720 q 575 563 695 595 l 575 617 q 663 664 629 633 q 696 728 696 695 q 686 751 696 741 q 651 774 675 762 q 606 846 606 797 q 632 904 606 884 q 701 924 659 924 q 784 892 749 924 q 818 810 818 861 z "},"ľ":{"ha":651,"x_min":27,"x_max":625,"o":"m 292 61 l 362 45 l 362 0 l 27 0 l 27 45 l 96 61 l 96 903 l 31 919 l 31 964 l 292 964 l 292 61 m 625 850 q 564 697 625 760 q 382 603 503 635 l 382 657 q 470 704 437 673 q 503 768 503 735 q 493 791 503 781 q 458 814 483 802 q 413 886 413 837 q 440 944 413 924 q 508 964 467 964 q 591 932 557 964 q 625 850 625 901 z "},"Ŀ":{"ha":926,"x_min":24,"x_max":868,"o":"m 494 860 l 354 842 l 354 72 l 539 72 q 751 85 684 72 l 807 275 l 868 275 l 842 0 l 24 0 l 24 50 l 140 68 l 140 842 l 24 860 l 24 909 l 494 909 l 494 860 m 512 511 q 543 585 512 555 q 616 615 574 615 q 690 585 660 615 q 720 511 720 555 q 690 438 720 469 q 616 407 661 407 q 543 437 573 407 q 512 511 512 467 z "},"ŀ":{"ha":549,"x_min":29,"x_max":572,"o":"m 294 61 l 364 45 l 364 0 l 29 0 l 29 45 l 98 61 l 98 903 l 33 919 l 33 964 l 294 964 l 294 61 m 364 511 q 395 585 364 555 q 469 615 426 615 q 542 585 512 615 q 572 511 572 555 q 543 438 572 469 q 469 407 513 407 q 395 437 425 407 q 364 511 364 467 z "},"Ł":{"ha":926,"x_min":24,"x_max":868,"o":"m 140 429 l 140 842 l 25 860 l 25 909 l 494 909 l 494 860 l 354 842 l 354 551 l 516 645 l 516 554 l 354 460 l 354 72 l 539 72 q 751 86 678 72 l 807 275 l 868 275 l 842 0 l 24 0 l 24 50 l 140 68 l 140 337 l 29 273 l 29 365 l 140 429 z "},"ł":{"ha":386,"x_min":14,"x_max":379,"o":"m 14 361 l 96 409 l 96 903 l 31 919 l 31 964 l 292 964 l 292 522 l 379 572 l 379 488 l 292 437 l 292 61 l 362 45 l 362 0 l 27 0 l 27 45 l 96 61 l 96 324 l 14 276 l 14 361 z "},"Ń":{"ha":1003,"x_min":26,"x_max":985,"o":"m 783 842 l 661 860 l 661 909 l 985 909 l 985 860 l 868 842 l 868 0 l 789 0 l 228 731 l 228 68 l 350 50 l 350 0 l 26 0 l 26 50 l 143 68 l 143 842 l 26 860 l 26 909 l 338 909 l 783 328 l 783 842 m 430 985 l 430 1007 l 543 1192 l 736 1192 l 736 1166 l 488 985 l 430 985 z "},"ń":{"ha":772,"x_min":37,"x_max":751,"o":"m 294 582 l 340 606 q 511 654 435 654 q 688 467 688 654 l 688 61 l 751 45 l 751 0 l 435 0 l 435 45 l 492 61 l 492 440 q 468 529 492 497 q 399 561 444 561 q 296 538 347 561 l 296 61 l 354 45 l 354 0 l 37 0 l 37 45 l 100 61 l 100 576 l 37 593 l 37 637 l 285 637 l 294 582 m 313 758 l 313 781 l 425 965 l 618 965 l 618 940 l 371 758 l 313 758 z "},"Ņ":{"ha":1003,"x_min":26,"x_max":985,"o":"m 783 842 l 661 860 l 661 909 l 985 909 l 985 860 l 868 842 l 868 0 l 789 0 l 228 731 l 228 68 l 350 50 l 350 0 l 26 0 l 26 50 l 143 68 l 143 842 l 26 860 l 26 909 l 338 909 l 783 328 l 783 842 m 624 -161 q 568 -287 624 -238 q 406 -355 512 -335 l 406 -308 q 482 -276 457 -294 q 507 -228 507 -258 q 495 -200 507 -211 q 468 -179 483 -189 q 442 -156 454 -169 q 430 -120 430 -142 q 455 -68 430 -88 q 522 -49 479 -49 q 596 -79 569 -49 q 624 -161 624 -109 z "},"ņ":{"ha":772,"x_min":37,"x_max":751,"o":"m 294 582 l 340 606 q 511 654 435 654 q 688 467 688 654 l 688 61 l 751 45 l 751 0 l 435 0 l 435 45 l 492 61 l 492 440 q 468 529 492 497 q 399 561 444 561 q 296 538 347 561 l 296 61 l 354 45 l 354 0 l 37 0 l 37 45 l 100 61 l 100 576 l 37 593 l 37 637 l 285 637 l 294 582 m 502 -161 q 446 -287 502 -238 q 283 -355 390 -335 l 283 -308 q 360 -276 335 -294 q 385 -228 385 -258 q 373 -200 385 -211 q 346 -179 361 -189 q 320 -156 332 -169 q 308 -120 308 -142 q 333 -68 308 -88 q 400 -49 357 -49 q 474 -79 447 -49 q 502 -161 502 -109 z "},"Ň":{"ha":1003,"x_min":26,"x_max":985,"o":"m 783 842 l 661 860 l 661 909 l 985 909 l 985 860 l 868 842 l 868 0 l 789 0 l 228 731 l 228 68 l 350 50 l 350 0 l 26 0 l 26 50 l 143 68 l 143 842 l 26 860 l 26 909 l 338 909 l 783 328 l 783 842 m 721 1206 l 721 1183 l 573 985 l 429 985 l 281 1183 l 281 1206 l 333 1206 l 501 1096 l 669 1206 l 721 1206 z "},"ň":{"ha":772,"x_min":37,"x_max":751,"o":"m 294 582 l 340 606 q 511 654 435 654 q 688 467 688 654 l 688 61 l 751 45 l 751 0 l 435 0 l 435 45 l 492 61 l 492 440 q 468 529 492 497 q 399 561 444 561 q 296 538 347 561 l 296 61 l 354 45 l 354 0 l 37 0 l 37 45 l 100 61 l 100 576 l 37 593 l 37 637 l 285 637 l 294 582 m 611 979 l 611 957 l 463 758 l 319 758 l 172 957 l 172 979 l 223 979 l 391 869 l 559 979 l 611 979 z "},"ŉ":{"ha":1013,"x_min":9,"x_max":985,"o":"m 528 582 l 574 606 q 745 654 669 654 q 921 467 921 654 l 921 61 l 985 45 l 985 0 l 668 0 l 668 45 l 725 61 l 725 440 q 701 529 725 497 q 632 561 677 561 q 529 538 581 561 l 529 61 l 587 45 l 587 0 l 271 0 l 271 45 l 333 61 l 333 576 l 271 593 l 271 637 l 518 637 l 528 582 m 286 830 q 215 651 286 724 q 9 543 144 578 l 9 606 q 82 640 52 618 q 130 686 113 661 q 146 734 146 712 q 134 763 146 751 q 95 788 121 775 q 43 872 43 814 q 73 938 43 913 q 152 962 102 962 q 247 926 209 962 q 286 830 286 889 z "},"Ŋ":{"ha":1068,"x_min":27,"x_max":950,"o":"m 736 668 q 700 785 736 744 q 595 826 664 826 q 357 755 494 826 l 357 68 l 426 58 l 426 0 l 27 0 l 27 50 l 143 68 l 143 842 l 27 860 l 27 909 l 348 909 l 357 827 q 509 894 437 872 q 652 916 581 916 q 950 656 950 916 l 950 293 q 877 65 950 143 q 652 -14 803 -14 q 500 7 562 -14 l 500 193 l 561 193 l 583 86 q 654 58 611 58 q 736 191 736 58 l 736 668 z "},"ŋ":{"ha":772,"x_min":37,"x_max":681,"o":"m 294 582 l 340 606 q 511 654 435 654 q 681 467 681 654 l 681 -26 q 612 -225 681 -154 q 416 -296 543 -296 q 300 -283 356 -296 l 300 -131 l 343 -131 l 372 -208 q 406 -221 389 -221 q 464 -176 442 -221 q 485 -48 485 -131 l 485 440 q 464 534 485 507 q 399 561 444 561 q 296 538 347 561 l 296 61 l 354 45 l 354 0 l 37 0 l 37 45 l 100 61 l 100 576 l 37 593 l 37 637 l 285 637 l 294 582 z "},"Ō":{"ha":1080,"x_min":68,"x_max":1013,"o":"m 293 456 q 352 147 293 239 q 541 54 412 54 q 728 147 669 54 q 787 456 787 240 q 728 761 787 671 q 541 851 669 851 q 352 761 412 851 q 293 456 293 671 m 68 456 q 541 920 68 920 q 893 802 774 920 q 1013 456 1013 684 q 892 105 1013 224 q 541 -14 771 -14 q 189 105 311 -14 q 68 456 68 224 m 327 987 l 327 1088 l 753 1088 l 753 987 l 327 987 z "},"ō":{"ha":694,"x_min":53,"x_max":642,"o":"m 642 322 q 568 68 642 151 q 343 -14 494 -14 q 125 70 197 -14 q 53 322 53 153 q 126 573 53 491 q 349 654 199 654 q 571 570 500 654 q 642 322 642 486 m 443 322 q 421 529 443 471 q 345 586 399 586 q 272 531 292 586 q 252 322 252 476 q 272 110 252 165 q 345 54 293 54 q 420 113 398 54 q 443 322 443 172 m 134 760 l 134 862 l 560 862 l 560 760 l 134 760 z "},"Ŏ":{"ha":1080,"x_min":68,"x_max":1013,"o":"m 293 456 q 352 147 293 239 q 541 54 412 54 q 728 147 669 54 q 787 456 787 240 q 728 761 787 671 q 541 851 669 851 q 352 761 412 851 q 293 456 293 671 m 68 456 q 541 920 68 920 q 893 802 774 920 q 1013 456 1013 684 q 892 105 1013 224 q 541 -14 771 -14 q 189 105 311 -14 q 68 456 68 224 m 540 986 q 391 1044 444 986 q 336 1205 337 1101 l 404 1205 q 450 1126 416 1149 q 540 1103 485 1103 q 630 1126 599 1103 q 675 1205 661 1150 l 744 1205 q 687 1042 741 1098 q 540 986 634 986 z "},"ŏ":{"ha":694,"x_min":53,"x_max":642,"o":"m 642 322 q 568 68 642 151 q 343 -14 494 -14 q 125 70 197 -14 q 53 322 53 153 q 126 573 53 491 q 349 654 199 654 q 571 570 500 654 q 642 322 642 486 m 443 322 q 421 529 443 471 q 345 586 399 586 q 272 531 292 586 q 252 322 252 476 q 272 110 252 165 q 345 54 293 54 q 420 113 398 54 q 443 322 443 172 m 347 760 q 198 817 252 760 q 143 979 144 875 l 212 979 q 258 899 223 922 q 347 876 292 876 q 437 900 406 876 q 483 979 469 924 l 551 979 q 495 815 548 871 q 347 760 441 760 z "},"Ő":{"ha":1080,"x_min":68,"x_max":1013,"o":"m 293 456 q 352 147 293 239 q 541 54 412 54 q 728 147 669 54 q 787 456 787 240 q 728 761 787 671 q 541 851 669 851 q 352 761 412 851 q 293 456 293 671 m 68 456 q 541 920 68 920 q 893 802 774 920 q 1013 456 1013 684 q 892 105 1013 224 q 541 -14 771 -14 q 189 105 311 -14 q 68 456 68 224 m 373 985 l 373 1007 l 467 1206 l 637 1206 l 637 1181 l 439 985 l 373 985 m 611 985 l 611 1007 l 704 1206 l 875 1206 l 875 1181 l 676 985 l 611 985 z "},"ő":{"ha":694,"x_min":53,"x_max":654,"o":"m 642 322 q 568 68 642 151 q 343 -14 494 -14 q 125 70 197 -14 q 53 322 53 153 q 126 573 53 491 q 349 654 199 654 q 571 570 500 654 q 642 322 642 486 m 443 322 q 421 529 443 471 q 345 586 399 586 q 272 531 292 586 q 252 322 252 476 q 272 110 252 165 q 345 54 293 54 q 420 113 398 54 q 443 322 443 172 m 153 758 l 153 781 l 246 979 l 416 979 l 416 954 l 218 758 l 153 758 m 391 758 l 391 781 l 484 979 l 654 979 l 654 954 l 456 758 l 391 758 z "},"Œ":{"ha":1389,"x_min":77,"x_max":1318,"o":"m 77 458 q 194 802 77 688 q 549 915 311 915 q 682 909 606 915 l 1261 909 l 1261 678 l 1199 678 l 1177 825 q 949 835 1101 835 l 876 835 l 876 501 l 1055 501 l 1076 602 l 1136 602 l 1136 322 l 1076 322 l 1055 425 l 876 425 l 876 75 l 980 75 q 1119 78 1046 75 q 1217 85 1192 81 l 1256 254 l 1318 254 l 1305 0 l 671 0 q 549 -5 590 -5 q 197 112 317 -5 q 77 458 77 228 m 302 458 q 361 153 302 243 q 549 63 420 63 q 663 76 624 63 l 663 833 q 549 846 621 846 q 360 758 418 846 q 302 458 302 669 z "},"œ":{"ha":1003,"x_min":33,"x_max":971,"o":"m 709 653 q 908 582 846 653 q 971 369 971 511 l 971 313 l 616 313 l 616 302 q 634 161 616 204 q 690 94 652 117 q 797 71 729 71 q 873 77 838 71 q 945 91 908 83 l 945 39 q 762 -13 861 -13 q 524 78 604 -13 q 319 -14 459 -14 q 103 70 174 -14 q 33 322 33 153 q 104 574 33 493 q 325 654 176 654 q 517 572 452 654 q 709 653 583 653 m 416 322 q 394 532 416 479 q 321 586 373 586 q 267 563 286 586 q 239 489 248 539 q 231 322 231 439 q 240 151 231 201 q 267 78 248 101 q 321 54 286 54 q 394 109 373 54 q 416 322 416 163 m 702 585 q 637 541 658 585 q 617 385 617 497 l 772 385 q 766 516 772 481 q 745 568 760 551 q 702 585 730 585 z "},"Ŕ":{"ha":1003,"x_min":24,"x_max":1015,"o":"m 355 385 l 355 68 l 471 50 l 471 0 l 33 0 l 33 50 l 140 68 l 140 842 l 24 860 l 24 909 l 458 909 q 758 848 659 909 q 857 655 857 786 q 674 404 857 460 l 917 68 l 1015 50 l 1015 0 l 721 0 l 467 385 l 355 385 m 646 654 q 604 795 646 755 q 450 835 562 835 l 355 835 l 355 460 l 453 460 q 602 503 557 460 q 646 654 646 547 m 377 985 l 377 1007 l 490 1192 l 683 1192 l 683 1166 l 435 985 l 377 985 z "},"ŕ":{"ha":616,"x_min":37,"x_max":587,"o":"m 313 505 q 444 622 386 587 q 550 658 502 658 l 587 658 l 587 425 l 549 425 l 509 511 q 412 492 466 511 q 316 448 357 473 l 316 61 l 418 45 l 418 0 l 37 0 l 37 45 l 120 61 l 120 576 l 37 593 l 37 637 l 305 637 l 313 505 m 233 758 l 233 781 l 345 965 l 538 965 l 538 940 l 291 758 l 233 758 z "},"Ŗ":{"ha":1003,"x_min":24,"x_max":1015,"o":"m 355 385 l 355 68 l 471 50 l 471 0 l 33 0 l 33 50 l 140 68 l 140 842 l 24 860 l 24 909 l 458 909 q 758 848 659 909 q 857 655 857 786 q 674 404 857 460 l 917 68 l 1015 50 l 1015 0 l 721 0 l 467 385 l 355 385 m 646 654 q 604 795 646 755 q 450 835 562 835 l 355 835 l 355 460 l 453 460 q 602 503 557 460 q 646 654 646 547 m 622 -161 q 566 -287 622 -238 q 404 -355 510 -335 l 404 -308 q 480 -276 455 -294 q 505 -228 505 -258 q 493 -200 505 -211 q 466 -179 481 -189 q 440 -156 452 -169 q 428 -120 428 -142 q 453 -68 428 -88 q 520 -49 477 -49 q 594 -79 567 -49 q 622 -161 622 -109 z "},"ŗ":{"ha":616,"x_min":37,"x_max":587,"o":"m 313 505 q 444 622 386 587 q 550 658 502 658 l 587 658 l 587 425 l 549 425 l 509 511 q 412 492 466 511 q 316 448 357 473 l 316 61 l 418 45 l 418 0 l 37 0 l 37 45 l 120 61 l 120 576 l 37 593 l 37 637 l 305 637 l 313 505 m 321 -161 q 266 -287 321 -238 q 103 -355 210 -335 l 103 -308 q 179 -276 155 -294 q 204 -228 204 -258 q 192 -200 204 -211 q 166 -179 180 -189 q 139 -156 151 -169 q 127 -120 127 -142 q 152 -68 127 -88 q 220 -49 177 -49 q 294 -79 267 -49 q 321 -161 321 -109 z "},"Ř":{"ha":1003,"x_min":24,"x_max":1015,"o":"m 355 385 l 355 68 l 471 50 l 471 0 l 33 0 l 33 50 l 140 68 l 140 842 l 24 860 l 24 909 l 458 909 q 758 848 659 909 q 857 655 857 786 q 674 404 857 460 l 917 68 l 1015 50 l 1015 0 l 721 0 l 467 385 l 355 385 m 646 654 q 604 795 646 755 q 450 835 562 835 l 355 835 l 355 460 l 453 460 q 602 503 557 460 q 646 654 646 547 m 704 1206 l 704 1183 l 556 985 l 412 985 l 264 1183 l 264 1206 l 316 1206 l 484 1096 l 652 1206 l 704 1206 z "},"ř":{"ha":616,"x_min":37,"x_max":587,"o":"m 313 505 q 444 622 386 587 q 550 658 502 658 l 587 658 l 587 425 l 549 425 l 509 511 q 412 492 466 511 q 316 448 357 473 l 316 61 l 418 45 l 418 0 l 37 0 l 37 45 l 120 61 l 120 576 l 37 593 l 37 637 l 305 637 l 313 505 m 536 979 l 536 957 l 388 758 l 243 758 l 96 957 l 96 979 l 148 979 l 316 869 l 484 979 l 536 979 z "},"Ś":{"ha":772,"x_min":74,"x_max":713,"o":"m 74 279 l 134 279 l 164 133 q 250 77 193 100 q 370 55 308 55 q 564 215 564 55 q 527 300 564 265 q 411 361 490 334 q 243 424 294 400 q 157 481 192 448 q 100 560 121 513 q 79 674 79 606 q 161 857 79 794 q 400 920 243 920 q 652 890 514 920 l 652 674 l 592 674 l 562 799 q 400 849 492 849 q 272 818 317 849 q 227 724 227 787 q 264 646 227 678 q 381 589 302 614 q 594 500 536 538 q 683 407 652 463 q 713 276 713 351 q 372 -14 713 -14 q 213 0 294 -14 q 74 35 132 13 l 74 279 m 326 985 l 326 1007 l 438 1192 l 631 1192 l 631 1166 l 384 985 l 326 985 z "},"ś":{"ha":541,"x_min":42,"x_max":509,"o":"m 507 202 q 441 41 507 96 q 251 -14 376 -14 q 137 -2 199 -14 q 43 21 75 9 l 43 195 l 88 195 l 114 105 q 176 65 138 81 q 255 50 215 50 q 343 75 314 50 q 372 140 372 100 q 344 199 372 177 q 222 251 316 222 q 83 334 124 281 q 42 465 42 387 q 106 603 42 551 q 273 654 171 654 q 460 635 342 654 l 460 471 l 416 471 l 394 546 q 339 578 374 566 q 271 591 303 591 q 199 571 222 591 q 176 516 176 551 q 205 457 176 480 q 325 407 234 434 q 465 327 424 376 q 507 202 507 277 m 203 758 l 203 781 l 315 965 l 509 965 l 509 940 l 261 758 l 203 758 z "},"Ŝ":{"ha":772,"x_min":74,"x_max":713,"o":"m 74 279 l 134 279 l 164 133 q 250 77 193 100 q 370 55 308 55 q 564 215 564 55 q 527 300 564 265 q 411 361 490 334 q 243 424 294 400 q 157 481 192 448 q 100 560 121 513 q 79 674 79 606 q 161 857 79 794 q 400 920 243 920 q 652 890 514 920 l 652 674 l 592 674 l 562 799 q 400 849 492 849 q 272 818 317 849 q 227 724 227 787 q 264 646 227 678 q 381 589 302 614 q 594 500 536 538 q 683 407 652 463 q 713 276 713 351 q 372 -14 713 -14 q 213 0 294 -14 q 74 35 132 13 l 74 279 m 166 985 l 166 1007 l 314 1206 l 458 1206 l 606 1007 l 606 985 l 554 985 l 386 1095 l 218 985 l 166 985 z "},"ŝ":{"ha":541,"x_min":42,"x_max":507,"o":"m 507 202 q 441 41 507 96 q 251 -14 376 -14 q 137 -2 199 -14 q 43 21 75 9 l 43 195 l 88 195 l 114 105 q 176 65 138 81 q 255 50 215 50 q 343 75 314 50 q 372 140 372 100 q 344 199 372 177 q 222 251 316 222 q 83 334 124 281 q 42 465 42 387 q 106 603 42 551 q 273 654 171 654 q 460 635 342 654 l 460 471 l 416 471 l 394 546 q 339 578 374 566 q 271 591 303 591 q 199 571 222 591 q 176 516 176 551 q 205 457 176 480 q 325 407 234 434 q 465 327 424 376 q 507 202 507 277 m 50 758 l 50 781 l 198 979 l 342 979 l 490 781 l 490 758 l 438 758 l 270 868 l 102 758 l 50 758 z "},"Ş":{"ha":772,"x_min":74,"x_max":713,"o":"m 74 279 l 134 279 l 164 133 q 250 77 193 100 q 370 55 308 55 q 564 215 564 55 q 527 300 564 265 q 411 361 490 334 q 243 424 294 400 q 157 481 192 448 q 100 560 121 513 q 79 674 79 606 q 161 857 79 794 q 400 920 243 920 q 652 890 514 920 l 652 674 l 592 674 l 562 799 q 400 849 492 849 q 272 818 317 849 q 227 724 227 787 q 264 646 227 678 q 381 589 302 614 q 594 500 536 538 q 683 407 652 463 q 713 276 713 351 q 372 -14 713 -14 q 213 0 294 -14 q 74 35 132 13 l 74 279 m 352 -286 q 243 -265 291 -286 l 243 -204 q 335 -217 292 -217 q 397 -159 397 -217 q 376 -113 397 -129 q 309 -94 355 -97 l 343 39 l 418 39 l 403 -36 q 528 -150 528 -54 q 479 -250 528 -214 q 352 -286 431 -286 z "},"ş":{"ha":541,"x_min":42,"x_max":507,"o":"m 507 202 q 441 41 507 96 q 251 -14 376 -14 q 137 -2 199 -14 q 43 21 75 9 l 43 195 l 88 195 l 114 105 q 176 65 138 81 q 255 50 215 50 q 343 75 314 50 q 372 140 372 100 q 344 199 372 177 q 222 251 316 222 q 83 334 124 281 q 42 465 42 387 q 106 603 42 551 q 273 654 171 654 q 460 635 342 654 l 460 471 l 416 471 l 394 546 q 339 578 374 566 q 271 591 303 591 q 199 571 222 591 q 176 516 176 551 q 205 457 176 480 q 325 407 234 434 q 465 327 424 376 q 507 202 507 277 m 236 -286 q 127 -265 175 -286 l 127 -204 q 219 -217 176 -217 q 281 -159 281 -217 q 260 -113 281 -129 q 193 -94 239 -97 l 227 39 l 302 39 l 287 -36 q 412 -150 412 -54 q 363 -250 412 -214 q 236 -286 315 -286 z "},"Š":{"ha":772,"x_min":74,"x_max":713,"o":"m 74 279 l 134 279 l 164 133 q 250 77 193 100 q 370 55 308 55 q 564 215 564 55 q 527 300 564 265 q 411 361 490 334 q 243 424 294 400 q 157 481 192 448 q 100 560 121 513 q 79 674 79 606 q 161 857 79 794 q 400 920 243 920 q 652 890 514 920 l 652 674 l 592 674 l 562 799 q 400 849 492 849 q 272 818 317 849 q 227 724 227 787 q 264 646 227 678 q 381 589 302 614 q 594 500 536 538 q 683 407 652 463 q 713 276 713 351 q 372 -14 713 -14 q 213 0 294 -14 q 74 35 132 13 l 74 279 m 616 1206 l 616 1183 l 469 985 l 324 985 l 177 1183 l 177 1206 l 229 1206 l 397 1096 l 565 1206 l 616 1206 z "},"š":{"ha":541,"x_min":42,"x_max":507,"o":"m 507 202 q 441 41 507 96 q 251 -14 376 -14 q 137 -2 199 -14 q 43 21 75 9 l 43 195 l 88 195 l 114 105 q 176 65 138 81 q 255 50 215 50 q 343 75 314 50 q 372 140 372 100 q 344 199 372 177 q 222 251 316 222 q 83 334 124 281 q 42 465 42 387 q 106 603 42 551 q 273 654 171 654 q 460 635 342 654 l 460 471 l 416 471 l 394 546 q 339 578 374 566 q 271 591 303 591 q 199 571 222 591 q 176 516 176 551 q 205 457 176 480 q 325 407 234 434 q 465 327 424 376 q 507 202 507 277 m 493 979 l 493 957 l 345 758 l 201 758 l 54 957 l 54 979 l 105 979 l 273 869 l 441 979 l 493 979 z "},"Ţ":{"ha":926,"x_min":22,"x_max":905,"o":"m 210 0 l 210 50 l 355 68 l 355 838 l 320 838 q 102 824 165 838 l 83 655 l 22 655 l 22 909 l 905 909 l 905 655 l 843 655 l 825 824 q 602 836 768 836 l 569 836 l 569 68 l 713 50 l 713 0 l 210 0 m 437 -286 q 328 -265 376 -286 l 328 -204 q 420 -217 377 -217 q 482 -159 482 -217 q 461 -113 482 -129 q 393 -94 440 -97 l 428 39 l 503 39 l 488 -36 q 613 -150 613 -54 q 564 -250 613 -214 q 437 -286 515 -286 z "},"ţ":{"ha":463,"x_min":22,"x_max":456,"o":"m 297 -14 q 156 28 205 -14 q 106 147 106 69 l 106 567 l 22 567 l 22 611 l 121 637 l 200 782 l 302 782 l 302 637 l 436 637 l 436 567 l 302 567 l 302 159 q 320 93 302 115 q 368 71 338 71 q 456 81 404 71 l 456 24 q 387 -2 436 9 q 297 -14 338 -14 m 245 -286 q 137 -265 184 -286 l 137 -204 q 229 -217 186 -217 q 291 -159 291 -217 q 270 -113 291 -129 q 202 -94 249 -97 l 237 39 l 312 39 l 296 -36 q 422 -150 422 -54 q 373 -250 422 -214 q 245 -286 324 -286 z "},"Ť":{"ha":926,"x_min":22,"x_max":905,"o":"m 210 0 l 210 50 l 355 68 l 355 838 l 320 838 q 102 824 165 838 l 83 655 l 22 655 l 22 909 l 905 909 l 905 655 l 843 655 l 825 824 q 602 836 768 836 l 569 836 l 569 68 l 713 50 l 713 0 l 210 0 m 683 1206 l 683 1183 l 535 985 l 391 985 l 243 1183 l 243 1206 l 295 1206 l 463 1096 l 631 1206 l 683 1206 z "},"ť":{"ha":724,"x_min":22,"x_max":711,"o":"m 297 -14 q 156 28 205 -14 q 106 147 106 69 l 106 567 l 22 567 l 22 611 l 121 637 l 200 782 l 302 782 l 302 637 l 436 637 l 436 567 l 302 567 l 302 159 q 320 93 302 115 q 368 71 338 71 q 456 81 404 71 l 456 24 q 387 -2 436 9 q 297 -14 338 -14 m 711 857 q 649 704 711 767 q 468 610 588 642 l 468 664 q 555 711 522 680 q 589 774 589 742 q 578 798 589 788 q 544 821 568 808 q 498 893 498 844 q 525 951 498 931 q 593 970 552 970 q 676 939 642 970 q 711 857 711 908 z "},"Ŧ":{"ha":926,"x_min":22,"x_max":905,"o":"m 210 0 l 210 50 l 355 68 l 355 413 l 164 413 l 164 496 l 355 496 l 355 838 l 320 838 q 102 824 165 838 l 83 655 l 22 655 l 22 909 l 905 909 l 905 655 l 843 655 l 825 824 q 602 836 768 836 l 569 836 l 569 496 l 760 496 l 760 413 l 569 413 l 569 68 l 713 50 l 713 0 l 210 0 z "},"ŧ":{"ha":463,"x_min":22,"x_max":456,"o":"m 22 394 l 106 394 l 106 567 l 22 567 l 22 611 l 121 637 l 200 782 l 302 782 l 302 637 l 436 637 l 436 567 l 302 567 l 302 394 l 436 394 l 436 323 l 302 323 l 302 159 q 320 93 302 115 q 368 71 338 71 q 456 81 404 71 l 456 24 q 387 -2 436 9 q 297 -14 338 -14 q 156 28 205 -14 q 106 147 106 69 l 106 323 l 22 323 l 22 394 z "},"Ũ":{"ha":1003,"x_min":35,"x_max":968,"o":"m 568 83 q 726 140 670 83 q 781 307 781 197 l 781 842 l 659 860 l 659 909 l 968 909 l 968 860 l 865 842 l 865 313 q 774 71 865 155 q 515 -13 684 -13 q 235 72 332 -13 q 138 318 138 157 l 138 842 l 35 860 l 35 909 l 468 909 l 468 860 l 351 842 l 351 309 q 407 141 351 199 q 568 83 462 83 m 614 986 q 480 1046 556 986 q 419 1076 441 1076 q 387 1061 396 1076 q 372 998 378 1046 l 301 998 q 345 1148 309 1103 q 447 1193 381 1193 q 507 1181 480 1193 q 581 1135 534 1168 q 642 1104 623 1104 q 662 1108 654 1104 q 675 1123 670 1113 q 688 1180 680 1133 l 760 1180 q 716 1031 752 1077 q 614 986 681 986 z "},"ũ":{"ha":772,"x_min":21,"x_max":735,"o":"m 478 56 l 432 32 q 261 -17 337 -17 q 85 171 85 -17 l 85 576 l 21 593 l 21 637 l 281 637 l 281 197 q 305 109 281 140 q 374 77 329 77 q 477 100 425 77 l 477 576 l 418 593 l 418 637 l 673 637 l 673 61 l 735 45 l 735 0 l 488 0 l 478 56 m 465 760 q 332 819 408 760 q 271 850 293 850 q 239 834 248 850 q 224 772 230 819 l 153 772 q 196 921 160 876 q 298 966 233 966 q 358 954 332 966 q 433 908 385 942 q 493 878 474 878 q 514 882 506 878 q 527 897 522 886 q 540 954 532 907 l 611 954 q 568 805 604 850 q 465 760 532 760 z "},"Ū":{"ha":1003,"x_min":35,"x_max":968,"o":"m 568 83 q 726 140 670 83 q 781 307 781 197 l 781 842 l 659 860 l 659 909 l 968 909 l 968 860 l 865 842 l 865 313 q 774 71 865 155 q 515 -13 684 -13 q 235 72 332 -13 q 138 318 138 157 l 138 842 l 35 860 l 35 909 l 468 909 l 468 860 l 351 842 l 351 309 q 407 141 351 199 q 568 83 462 83 m 323 987 l 323 1088 l 749 1088 l 749 987 l 323 987 z "},"ū":{"ha":772,"x_min":21,"x_max":735,"o":"m 478 56 l 432 32 q 261 -17 337 -17 q 85 171 85 -17 l 85 576 l 21 593 l 21 637 l 281 637 l 281 197 q 305 109 281 140 q 374 77 329 77 q 477 100 425 77 l 477 576 l 418 593 l 418 637 l 673 637 l 673 61 l 735 45 l 735 0 l 488 0 l 478 56 m 166 760 l 166 862 l 592 862 l 592 760 l 166 760 z "},"Ŭ":{"ha":1003,"x_min":35,"x_max":968,"o":"m 568 83 q 726 140 670 83 q 781 307 781 197 l 781 842 l 659 860 l 659 909 l 968 909 l 968 860 l 865 842 l 865 313 q 774 71 865 155 q 515 -13 684 -13 q 235 72 332 -13 q 138 318 138 157 l 138 842 l 35 860 l 35 909 l 468 909 l 468 860 l 351 842 l 351 309 q 407 141 351 199 q 568 83 462 83 m 517 986 q 368 1044 422 986 q 313 1205 315 1101 l 382 1205 q 428 1126 393 1149 q 517 1103 463 1103 q 608 1126 576 1103 q 653 1205 639 1150 l 722 1205 q 665 1042 718 1098 q 517 986 612 986 z "},"ŭ":{"ha":772,"x_min":21,"x_max":735,"o":"m 478 56 l 432 32 q 261 -17 337 -17 q 85 171 85 -17 l 85 576 l 21 593 l 21 637 l 281 637 l 281 197 q 305 109 281 140 q 374 77 329 77 q 477 100 425 77 l 477 576 l 418 593 l 418 637 l 673 637 l 673 61 l 735 45 l 735 0 l 488 0 l 478 56 m 380 760 q 231 817 284 760 q 176 979 177 875 l 244 979 q 290 899 256 922 q 380 876 325 876 q 470 900 439 876 q 515 979 501 924 l 584 979 q 527 815 581 871 q 380 760 474 760 z "},"Ů":{"ha":1003,"x_min":35,"x_max":968,"o":"m 568 83 q 726 140 670 83 q 781 307 781 197 l 781 842 l 659 860 l 659 909 l 968 909 l 968 860 l 865 842 l 865 313 q 774 71 865 155 q 515 -13 684 -13 q 235 72 332 -13 q 138 318 138 157 l 138 842 l 35 860 l 35 909 l 468 909 l 468 860 l 351 842 l 351 309 q 407 141 351 199 q 568 83 462 83 m 546 945 q 445 986 487 945 q 403 1089 403 1028 q 445 1191 403 1150 q 546 1232 486 1232 q 647 1191 606 1232 q 689 1089 689 1150 q 647 987 689 1029 q 546 945 606 945 m 546 1156 q 499 1136 519 1156 q 479 1089 479 1116 q 499 1043 479 1063 q 546 1023 519 1023 q 592 1043 572 1023 q 612 1089 612 1063 q 592 1136 612 1116 q 546 1156 572 1156 z "},"ů":{"ha":772,"x_min":21,"x_max":735,"o":"m 478 56 l 432 32 q 261 -17 337 -17 q 85 171 85 -17 l 85 576 l 21 593 l 21 637 l 281 637 l 281 197 q 305 109 281 140 q 374 77 329 77 q 477 100 425 77 l 477 576 l 418 593 l 418 637 l 673 637 l 673 61 l 735 45 l 735 0 l 488 0 l 478 56 m 380 718 q 279 760 321 718 q 237 863 237 802 q 278 965 237 924 q 380 1006 320 1006 q 481 965 439 1006 q 523 863 523 924 q 481 760 523 802 q 380 718 439 718 m 380 930 q 333 910 353 930 q 313 863 313 890 q 333 816 313 836 q 380 796 353 796 q 426 816 406 796 q 446 863 446 836 q 426 910 446 890 q 380 930 406 930 z "},"Ű":{"ha":1003,"x_min":35,"x_max":968,"o":"m 568 83 q 726 140 670 83 q 781 307 781 197 l 781 842 l 659 860 l 659 909 l 968 909 l 968 860 l 865 842 l 865 313 q 774 71 865 155 q 515 -13 684 -13 q 235 72 332 -13 q 138 318 138 157 l 138 842 l 35 860 l 35 909 l 468 909 l 468 860 l 351 842 l 351 309 q 407 141 351 199 q 568 83 462 83 m 320 985 l 320 1007 l 414 1206 l 584 1206 l 584 1181 l 386 985 l 320 985 m 558 985 l 558 1007 l 651 1206 l 822 1206 l 822 1181 l 623 985 l 558 985 z "},"ű":{"ha":772,"x_min":21,"x_max":735,"o":"m 478 56 l 432 32 q 261 -17 337 -17 q 85 171 85 -17 l 85 576 l 21 593 l 21 637 l 281 637 l 281 197 q 305 109 281 140 q 374 77 329 77 q 477 100 425 77 l 477 576 l 418 593 l 418 637 l 673 637 l 673 61 l 735 45 l 735 0 l 488 0 l 478 56 m 170 758 l 170 781 l 263 979 l 433 979 l 433 954 l 235 758 l 170 758 m 408 758 l 408 781 l 500 979 l 671 979 l 671 954 l 473 758 l 408 758 z "},"Ų":{"ha":1003,"x_min":35,"x_max":968,"o":"m 568 83 q 726 140 670 83 q 781 307 781 197 l 781 842 l 659 860 l 659 909 l 968 909 l 968 860 l 865 842 l 865 313 q 774 71 865 155 q 515 -13 684 -13 q 235 72 332 -13 q 138 318 138 157 l 138 842 l 35 860 l 35 909 l 468 909 l 468 860 l 351 842 l 351 309 q 407 141 351 199 q 568 83 462 83 m 614 -292 q 496 -253 538 -292 q 455 -146 455 -215 q 480 -58 455 -99 q 545 9 505 -16 l 631 9 q 581 -135 581 -62 q 601 -196 581 -174 q 657 -217 621 -217 q 751 -197 698 -217 l 751 -255 q 614 -292 689 -292 z "},"ų":{"ha":772,"x_min":21,"x_max":735,"o":"m 478 56 l 432 32 q 261 -17 337 -17 q 85 171 85 -17 l 85 576 l 21 593 l 21 637 l 281 637 l 281 197 q 305 109 281 140 q 374 77 329 77 q 477 100 425 77 l 477 576 l 418 593 l 418 637 l 673 637 l 673 61 l 735 45 l 735 0 l 488 0 l 478 56 m 572 -292 q 454 -253 495 -292 q 412 -146 412 -215 q 437 -58 412 -99 q 503 9 462 -16 l 589 9 q 538 -135 538 -62 q 558 -196 538 -174 q 614 -217 578 -217 q 708 -197 655 -217 l 708 -255 q 572 -292 646 -292 z "},"Ŵ":{"ha":1389,"x_min":20,"x_max":1367,"o":"m 1018 -21 l 935 -21 l 708 540 l 484 -21 l 400 -21 l 99 842 l 20 860 l 20 909 l 428 909 l 428 860 l 321 842 l 515 300 l 728 832 l 813 832 l 1027 302 l 1187 842 l 1073 860 l 1073 909 l 1367 909 l 1367 860 l 1288 842 l 1018 -21 m 530 985 l 530 1007 l 677 1206 l 822 1206 l 969 1007 l 969 985 l 918 985 l 749 1095 l 581 985 l 530 985 z "},"ŵ":{"ha":1003,"x_min":4,"x_max":996,"o":"m 593 574 l 740 211 l 863 576 l 789 593 l 789 637 l 996 637 l 996 593 l 947 579 l 732 -14 l 650 -14 l 505 344 l 359 -14 l 277 -14 l 52 576 l 4 593 l 4 637 l 319 637 l 319 593 l 243 575 l 380 211 l 528 574 l 593 574 m 319 758 l 319 781 l 467 979 l 612 979 l 759 781 l 759 758 l 707 758 l 539 868 l 371 758 l 319 758 z "},"Ŷ":{"ha":1003,"x_min":24,"x_max":977,"o":"m 618 358 l 618 68 l 762 50 l 762 0 l 259 0 l 259 50 l 404 68 l 404 354 l 127 842 l 24 860 l 24 909 l 492 909 l 492 860 l 370 842 l 578 461 l 779 842 l 667 860 l 667 909 l 977 909 l 977 860 l 880 842 l 618 358 m 290 985 l 290 1007 l 437 1206 l 582 1206 l 729 1007 l 729 985 l 677 985 l 509 1095 l 341 985 l 290 985 z "},"ŷ":{"ha":694,"x_min":14,"x_max":681,"o":"m 313 -20 l 58 576 l 14 593 l 14 637 l 340 637 l 340 593 l 264 575 l 414 222 l 547 576 l 473 593 l 473 637 l 681 637 l 681 593 l 635 579 l 383 -40 q 307 -200 340 -151 q 235 -275 275 -250 q 144 -300 195 -300 q 33 -287 90 -300 l 33 -123 l 73 -123 l 102 -208 q 153 -224 122 -224 q 198 -212 178 -224 q 235 -176 218 -199 q 268 -120 252 -153 q 313 -20 283 -86 m 132 758 l 132 781 l 280 979 l 425 979 l 572 781 l 572 758 l 520 758 l 352 868 l 184 758 l 132 758 z "},"Ÿ":{"ha":1003,"x_min":24,"x_max":977,"o":"m 618 358 l 618 68 l 762 50 l 762 0 l 259 0 l 259 50 l 404 68 l 404 354 l 127 842 l 24 860 l 24 909 l 492 909 l 492 860 l 370 842 l 578 461 l 779 842 l 667 860 l 667 909 l 977 909 l 977 860 l 880 842 l 618 358 m 644 993 q 587 1017 612 993 q 562 1075 562 1041 q 587 1132 562 1109 q 644 1156 612 1156 q 701 1133 677 1156 q 725 1075 725 1109 q 701 1017 725 1041 q 644 993 677 993 m 416 993 q 359 1018 384 993 q 334 1075 334 1043 q 359 1132 334 1107 q 416 1156 383 1156 q 473 1132 450 1156 q 497 1075 497 1107 q 473 1017 497 1041 q 416 993 450 993 z "},"Ź":{"ha":926,"x_min":66,"x_max":856,"o":"m 66 77 l 570 838 l 407 838 q 190 824 253 838 l 169 681 l 109 681 l 109 909 l 811 909 l 811 838 l 304 71 l 494 71 q 647 78 572 71 q 755 93 722 85 l 795 267 l 856 267 l 838 0 l 66 0 l 66 77 m 361 985 l 361 1007 l 474 1192 l 667 1192 l 667 1166 l 420 985 l 361 985 z "},"ź":{"ha":616,"x_min":27,"x_max":586,"o":"m 27 0 l 27 31 l 320 576 l 248 576 q 174 570 210 576 q 125 553 139 564 l 104 448 l 56 448 l 56 637 l 551 637 l 551 604 l 258 61 l 359 61 q 441 70 398 61 q 501 93 484 79 l 537 240 l 586 240 l 568 0 l 27 0 m 210 758 l 210 781 l 323 965 l 516 965 l 516 940 l 269 758 l 210 758 z "},"Ż":{"ha":926,"x_min":66,"x_max":856,"o":"m 66 77 l 570 838 l 407 838 q 190 824 253 838 l 169 681 l 109 681 l 109 909 l 811 909 l 811 838 l 304 71 l 494 71 q 647 78 572 71 q 755 93 722 85 l 795 267 l 856 267 l 838 0 l 66 0 l 66 77 m 359 1086 q 390 1160 359 1131 q 463 1190 420 1190 q 537 1160 507 1190 q 567 1086 567 1130 q 537 1013 567 1044 q 463 982 507 982 q 389 1012 420 982 q 359 1086 359 1042 z "},"ż":{"ha":616,"x_min":27,"x_max":586,"o":"m 27 0 l 27 31 l 320 576 l 248 576 q 174 570 210 576 q 125 553 139 564 l 104 448 l 56 448 l 56 637 l 551 637 l 551 604 l 258 61 l 359 61 q 441 70 398 61 q 501 93 484 79 l 537 240 l 586 240 l 568 0 l 27 0 m 204 860 q 235 934 204 904 q 309 964 266 964 q 382 933 352 964 q 412 860 412 903 q 382 786 412 817 q 309 755 353 755 q 235 786 265 755 q 204 860 204 816 z "},"Ž":{"ha":926,"x_min":66,"x_max":856,"o":"m 66 77 l 570 838 l 407 838 q 190 824 253 838 l 169 681 l 109 681 l 109 909 l 811 909 l 811 838 l 304 71 l 494 71 q 647 78 572 71 q 755 93 722 85 l 795 267 l 856 267 l 838 0 l 66 0 l 66 77 m 688 1206 l 688 1183 l 541 985 l 396 985 l 249 1183 l 249 1206 l 300 1206 l 469 1096 l 637 1206 l 688 1206 z "},"ž":{"ha":616,"x_min":27,"x_max":586,"o":"m 27 0 l 27 31 l 320 576 l 248 576 q 174 570 210 576 q 125 553 139 564 l 104 448 l 56 448 l 56 637 l 551 637 l 551 604 l 258 61 l 359 61 q 441 70 398 61 q 501 93 484 79 l 537 240 l 586 240 l 568 0 l 27 0 m 530 979 l 530 957 l 382 758 l 237 758 l 90 957 l 90 979 l 142 979 l 310 869 l 478 979 l 530 979 z "},"ſ":{"ha":386,"x_min":5,"x_max":444,"o":"m 74 709 q 140 908 74 839 q 331 978 207 978 q 444 965 399 978 l 444 813 l 400 813 l 380 887 q 338 903 364 903 q 270 730 270 903 l 270 61 l 374 45 l 374 0 l 5 0 l 5 45 l 74 61 l 74 709 z "},"ƀ":{"ha":772,"x_min":9,"x_max":716,"o":"m 9 747 l 9 818 l 83 818 l 83 904 l 18 920 l 18 964 l 279 964 l 279 818 l 476 818 l 476 747 l 279 747 l 279 730 q 272 602 279 667 q 350 639 299 624 q 450 654 401 654 q 652 578 589 654 q 716 336 716 503 q 634 79 716 172 q 404 -14 553 -14 q 83 33 294 -14 l 83 747 l 9 747 m 517 337 q 487 521 517 463 q 385 579 456 579 q 329 573 359 579 q 279 556 298 568 l 279 68 q 385 58 322 58 q 485 123 452 58 q 517 337 517 189 z "},"Ɓ":{"ha":1048,"x_min":0,"x_max":1000,"o":"m 707 685 q 673 800 707 764 q 560 835 639 835 l 466 835 l 466 518 l 566 518 q 673 556 638 518 q 707 685 707 594 m 776 265 q 731 399 776 355 q 583 444 686 444 l 466 444 l 466 75 q 620 71 564 71 q 738 119 699 71 q 776 265 776 167 m 229 835 q 142 820 176 835 q 93 764 109 804 l 59 682 l 0 682 l 5 876 q 199 909 69 909 l 576 909 q 844 861 758 909 q 930 704 930 812 q 879 564 930 623 q 743 486 828 505 q 935 417 869 473 q 1000 265 1000 361 q 902 64 1000 133 q 622 -4 804 -4 l 313 0 l 135 0 l 135 50 l 252 68 l 252 835 l 229 835 z "},"Ƃ":{"ha":918,"x_min":24,"x_max":847,"o":"m 469 0 l 24 0 l 24 50 l 140 67 l 140 842 l 24 860 l 24 909 l 781 909 l 789 686 l 728 686 l 690 824 q 478 838 623 838 l 354 838 l 354 517 l 469 517 q 752 452 656 517 q 847 257 847 387 q 469 0 847 0 m 623 257 q 575 395 623 348 q 440 443 526 443 l 354 443 l 354 71 l 447 71 q 578 118 533 71 q 623 257 623 166 z "},"ƃ":{"ha":772,"x_min":83,"x_max":716,"o":"m 517 337 q 487 521 517 463 q 385 579 456 579 q 329 573 359 579 q 279 556 298 568 l 279 68 q 385 58 322 58 q 485 123 452 58 q 517 337 517 189 m 716 336 q 634 79 716 172 q 404 -14 553 -14 q 83 33 294 -14 l 83 964 l 586 964 l 595 782 l 543 782 l 506 881 q 420 890 474 886 q 337 894 366 894 l 279 894 l 279 784 q 276 681 279 741 q 272 602 274 621 q 350 639 299 624 q 450 654 401 654 q 652 578 589 654 q 716 336 716 503 z "},"Ƅ":{"ha":918,"x_min":24,"x_max":854,"o":"m 630 257 q 582 395 630 348 q 447 443 533 443 l 354 443 l 354 71 l 454 71 q 585 118 540 71 q 630 257 630 166 m 298 909 l 354 909 l 354 517 l 476 517 q 759 452 663 517 q 854 257 854 387 q 476 0 854 0 l 24 0 l 24 50 l 140 67 l 140 606 l 24 706 l 24 755 l 298 909 z "},"ƅ":{"ha":772,"x_min":0,"x_max":716,"o":"m 517 337 q 487 521 517 463 q 385 579 456 579 q 329 573 359 579 q 279 556 298 568 l 279 68 q 385 58 322 58 q 485 123 452 58 q 517 337 517 189 m 83 633 l 0 739 l 0 783 l 235 964 l 279 964 l 279 730 q 272 602 279 667 q 350 639 299 624 q 450 654 401 654 q 652 578 589 654 q 716 336 716 503 q 634 79 716 172 q 404 -14 553 -14 q 83 33 294 -14 l 83 633 z "},"Ɔ":{"ha":1003,"x_min":106,"x_max":935,"o":"m 450 920 q 807 798 679 920 q 935 462 935 677 q 813 107 935 229 q 451 -14 690 -14 q 123 32 293 -14 l 119 250 l 180 250 l 199 119 q 408 58 289 58 q 637 155 565 58 q 710 460 710 253 q 634 750 710 650 q 413 850 558 850 q 279 829 336 850 q 189 781 222 809 l 168 632 l 106 632 l 110 863 q 273 904 179 888 q 450 920 366 920 z "},"Ƈ":{"ha":1003,"x_min":68,"x_max":1128,"o":"m 1078 928 l 1057 1006 q 1022 1030 1045 1021 q 971 1039 999 1039 q 880 910 880 1039 l 884 656 l 823 656 l 804 787 q 595 848 714 848 q 366 750 438 848 q 293 446 293 652 q 369 156 293 256 q 590 56 445 56 q 724 77 667 56 q 814 125 781 97 l 836 274 l 897 274 l 893 43 q 734 3 832 20 q 553 -14 637 -14 q 196 108 324 -14 q 68 444 68 229 q 190 799 68 677 q 552 920 313 920 q 797 894 668 920 q 846 1055 798 997 q 988 1114 895 1114 q 1128 1093 1075 1114 l 1128 928 l 1078 928 z "},"ƈ":{"ha":616,"x_min":47,"x_max":817,"o":"m 772 656 l 751 751 q 715 775 739 766 q 663 784 691 784 q 568 655 568 784 l 568 442 l 519 442 l 490 554 q 445 578 467 571 q 386 585 422 585 q 313 553 346 585 q 263 463 281 521 q 245 324 245 405 q 287 130 245 188 q 422 71 330 71 q 582 91 515 71 l 582 39 q 497 1 551 14 q 387 -13 444 -13 q 132 69 216 -13 q 47 320 47 151 q 86 500 47 425 q 195 615 124 575 q 361 654 267 654 q 487 645 417 654 q 543 792 494 741 q 676 842 592 842 q 817 822 763 842 l 817 656 l 772 656 z "},"Ɖ":{"ha":1003,"x_min":35,"x_max":950,"o":"m 471 909 q 833 799 716 909 q 950 460 950 688 q 838 112 950 226 q 500 -3 726 -3 l 195 0 l 54 0 l 54 50 l 156 68 l 156 413 l 35 413 l 35 496 l 156 496 l 156 842 l 39 860 l 39 909 l 471 909 m 725 454 q 653 743 725 651 q 419 835 581 835 l 369 835 l 369 496 l 543 496 l 543 413 l 369 413 l 369 77 q 487 72 434 72 q 626 110 575 72 q 701 229 677 148 q 725 454 725 310 z "},"Ɗ":{"ha":1134,"x_min":0,"x_max":1076,"o":"m 851 454 q 779 743 851 651 q 545 835 707 835 l 495 835 l 495 77 q 613 72 560 72 q 752 110 701 72 q 827 229 804 148 q 851 454 851 310 m 1076 460 q 964 112 1076 226 q 626 -3 852 -3 l 321 0 l 165 0 l 165 50 l 282 68 l 282 835 l 229 835 q 142 820 176 835 q 93 764 109 804 l 59 682 l 0 682 l 5 876 q 199 909 69 909 l 597 909 q 959 799 842 909 q 1076 460 1076 688 z "},"Ƌ":{"ha":918,"x_min":58,"x_max":881,"o":"m 880 0 l 435 0 q 58 257 58 0 q 153 452 58 387 q 435 517 248 517 l 551 517 l 551 838 l 427 838 q 214 824 282 838 l 177 686 l 116 686 l 123 909 l 881 909 l 881 860 l 764 842 l 764 67 l 880 50 l 880 0 m 551 71 l 551 443 l 465 443 q 330 395 378 443 q 281 257 281 348 q 327 118 281 166 q 458 71 372 71 l 551 71 z "},"ƌ":{"ha":772,"x_min":56,"x_max":757,"o":"m 757 0 l 511 0 l 497 36 q 439 4 459 12 q 393 -9 418 -4 q 336 -14 367 -14 q 125 67 195 -14 q 56 317 56 149 q 131 568 56 482 q 346 654 205 654 q 495 636 420 654 q 491 687 491 659 l 491 840 l 361 840 q 233 827 308 840 l 203 714 l 153 714 l 153 909 l 687 909 l 687 61 l 757 45 l 757 0 m 255 322 q 287 129 255 195 q 378 62 319 62 q 491 91 433 62 l 491 571 q 384 585 438 585 q 289 518 323 585 q 255 322 255 452 z "},"ƍ":{"ha":721,"x_min":41,"x_max":660,"o":"m 579 -121 l 579 -133 q 509 -256 579 -212 q 315 -301 439 -301 q 141 -280 227 -301 l 141 -123 l 186 -123 l 210 -207 q 251 -228 224 -218 q 307 -237 278 -237 q 374 -217 350 -237 q 398 -165 398 -197 q 368 -96 398 -130 q 231 7 337 -62 q 90 154 138 68 q 41 347 41 239 q 128 573 41 491 q 367 654 216 654 q 580 576 500 654 q 660 361 660 497 q 448 65 660 161 q 579 -121 579 -24 m 353 594 q 269 542 300 594 q 238 386 238 490 q 374 126 238 230 l 388 115 q 446 215 424 146 q 469 368 469 283 q 353 594 469 594 z "},"Ǝ":{"ha":926,"x_min":71,"x_max":903,"o":"m 903 0 l 84 0 l 71 254 l 133 254 l 172 85 q 401 75 226 75 l 572 75 l 572 425 l 334 425 l 313 322 l 253 322 l 253 602 l 313 602 l 334 501 l 572 501 l 572 835 l 431 835 q 212 825 285 835 l 190 678 l 128 678 l 128 909 l 903 909 l 903 860 l 786 842 l 786 68 l 903 50 l 903 0 z "},"Ə":{"ha":1026,"x_min":41,"x_max":985,"o":"m 492 851 q 252 787 349 851 l 233 656 l 172 656 l 176 874 q 503 920 345 920 q 864 803 743 920 q 985 456 985 686 q 865 105 985 224 q 513 -14 744 -14 q 162 105 283 -14 q 41 456 41 224 l 42 505 l 760 505 q 689 771 753 692 q 492 851 625 851 m 513 54 q 698 143 639 54 q 760 431 758 231 l 266 431 q 329 141 269 229 q 513 54 389 54 z "},"Ɛ":{"ha":733,"x_min":50,"x_max":682,"o":"m 50 248 q 286 476 50 448 q 138 549 192 490 q 84 696 84 607 q 417 920 84 920 q 659 890 542 920 l 659 684 l 600 684 l 570 815 q 510 841 548 831 q 436 850 473 850 q 296 688 296 850 q 332 566 296 607 q 429 522 369 526 l 508 516 l 508 434 l 427 429 q 263 254 263 419 q 444 55 263 55 q 516 64 474 55 q 584 88 557 73 l 619 234 l 682 234 l 673 14 q 422 -14 561 -14 q 149 56 247 -14 q 50 248 50 125 z "},"Ƒ":{"ha":848,"x_min":-114,"x_max":806,"o":"m 378 388 l 378 7 q 296 -220 378 -140 q 64 -300 215 -300 q -36 -294 14 -300 q -114 -279 -85 -288 l -114 -73 l -54 -73 l -33 -195 q 3 -219 -20 -210 q 56 -228 27 -228 q 133 -195 102 -228 q 164 -99 164 -163 l 164 842 l 47 860 l 47 909 l 806 909 l 806 665 l 742 665 l 720 825 q 610 832 687 830 q 490 835 534 835 l 378 835 l 378 463 l 600 463 l 621 578 l 681 578 l 681 271 l 621 271 l 600 388 l 378 388 z "},"ƒ":{"ha":694,"x_min":100,"x_max":623,"o":"m 122 -193 l 215 470 l 100 470 l 109 517 l 225 540 l 248 700 q 328 864 262 804 q 490 924 394 924 q 623 911 569 924 l 623 759 l 579 759 l 560 836 q 516 849 542 849 q 468 812 486 849 q 438 692 450 774 l 416 541 l 578 541 l 568 470 l 406 470 l 313 -193 l 122 -193 z "},"Ɠ":{"ha":1080,"x_min":68,"x_max":1173,"o":"m 1122 928 l 1101 1006 q 1066 1030 1089 1021 q 1015 1039 1043 1039 q 924 910 924 1039 l 924 653 l 863 653 l 846 771 q 728 828 793 808 q 595 848 664 848 q 365 750 437 848 q 293 446 293 652 q 369 155 293 254 q 590 56 446 56 q 740 80 669 56 l 740 343 l 623 361 l 623 411 l 1042 411 l 1042 361 l 954 343 l 954 47 q 758 3 869 20 q 558 -14 647 -14 q 299 41 410 -14 q 128 199 188 95 q 68 444 68 302 q 198 796 68 673 q 571 920 329 920 q 693 913 632 920 q 841 886 753 907 q 890 1055 841 996 q 1032 1114 939 1114 q 1173 1093 1119 1114 l 1173 928 l 1122 928 z "},"Ɣ":{"ha":1003,"x_min":16,"x_max":987,"o":"m 16 860 l 16 909 l 411 909 l 411 860 l 317 842 l 553 262 l 811 842 l 720 860 l 720 909 l 987 909 l 987 860 l 901 842 l 598 149 q 741 -291 722 -160 l 396 -300 l 337 -277 q 439 1 361 -184 l 90 842 l 16 860 m 439 -229 l 515 -225 q 484 -111 509 -181 q 439 -229 448 -194 z "},"ƕ":{"ha":1086,"x_min":35,"x_max":1033,"o":"m 772 -14 q 559 39 627 -14 q 492 195 492 91 l 492 440 q 468 529 492 497 q 399 561 444 561 q 296 538 347 561 l 296 61 l 354 45 l 354 0 l 37 0 l 37 45 l 100 61 l 100 903 l 35 919 l 35 964 l 296 964 l 296 688 q 292 582 296 643 l 338 606 q 511 654 435 654 q 688 467 688 654 l 688 203 q 706 79 688 117 q 770 40 725 40 q 831 83 809 40 q 853 203 853 126 l 853 576 l 779 593 l 779 637 l 1033 637 l 1033 195 q 968 39 1033 92 q 772 -14 903 -14 z "},"Ɩ":{"ha":426,"x_min":31,"x_max":413,"o":"m 267 -14 q 139 26 182 -14 q 96 154 96 66 l 96 903 l 31 919 l 31 964 l 292 964 l 292 153 q 308 89 292 107 q 353 71 324 71 q 413 79 380 71 l 413 24 q 347 -3 391 8 q 267 -14 302 -14 z "},"Ɨ":{"ha":541,"x_min":47,"x_max":494,"o":"m 377 444 l 377 68 l 494 50 l 494 0 l 47 0 l 47 50 l 163 68 l 163 444 l 47 444 l 47 526 l 163 526 l 163 842 l 47 860 l 47 909 l 494 909 l 494 860 l 377 842 l 377 526 l 494 526 l 494 444 l 377 444 z "},"Ƙ":{"ha":1080,"x_min":24,"x_max":1069,"o":"m 1069 0 l 772 0 l 433 438 l 354 370 l 354 68 l 485 50 l 485 0 l 24 0 l 24 50 l 140 68 l 140 654 q 211 856 140 789 q 415 923 281 923 q 539 907 476 923 l 539 731 l 484 731 l 465 832 q 422 848 448 848 q 354 675 354 848 l 354 472 l 768 842 l 685 860 l 685 909 l 996 909 l 996 860 l 885 842 l 585 577 l 985 68 l 1069 50 l 1069 0 z "},"ƙ":{"ha":772,"x_min":39,"x_max":770,"o":"m 464 0 l 464 45 l 501 61 l 374 284 l 296 230 l 296 61 l 359 45 l 359 0 l 39 0 l 39 45 l 100 61 l 100 709 q 166 908 100 839 q 357 978 233 978 q 469 965 425 978 l 469 813 l 426 813 l 406 887 q 363 903 390 903 q 296 730 296 903 l 296 306 l 545 577 l 477 593 l 477 637 l 720 637 l 720 593 l 646 578 l 494 418 l 713 61 l 770 45 l 770 0 l 464 0 z "},"ƚ":{"ha":386,"x_min":16,"x_max":385,"o":"m 292 450 l 292 61 l 362 45 l 362 0 l 27 0 l 27 45 l 96 61 l 96 450 l 16 450 l 16 520 l 96 520 l 96 903 l 31 919 l 31 964 l 292 964 l 292 520 l 385 520 l 385 450 l 292 450 z "},"ƛ":{"ha":682,"x_min":12,"x_max":682,"o":"m 682 0 l 546 0 l 398 446 q 365 359 387 415 q 211 0 343 303 l 12 0 l 12 34 l 325 668 l 313 704 l 78 476 l 78 574 l 287 777 q 174 892 239 892 q 131 876 151 892 l 102 811 l 61 811 l 61 960 q 89 967 76 964 q 114 972 101 970 q 140 977 126 975 q 173 978 154 978 q 279 948 238 978 q 355 842 320 918 l 487 970 l 487 873 l 383 772 l 612 106 q 682 44 628 58 l 682 0 z "},"Ɯ":{"ha":1306,"x_min":17,"x_max":1234,"o":"m 934 54 q 827 5 883 24 q 732 -14 771 -14 q 650 3 688 -14 q 593 60 612 21 q 475 8 541 30 q 364 -14 408 -14 q 193 35 252 -14 q 134 174 134 83 l 134 842 l 17 860 l 17 909 l 415 909 l 415 860 l 347 842 l 347 199 q 424 82 347 82 q 545 106 464 82 q 533 186 533 142 l 533 842 l 465 860 l 465 909 l 814 909 l 814 860 l 747 842 l 747 199 q 767 112 747 142 q 827 82 788 82 q 879 88 847 82 q 932 102 911 94 l 932 842 l 864 860 l 864 909 l 1234 909 l 1234 860 l 1147 842 l 1146 68 l 1234 50 l 1234 0 l 943 0 l 934 54 z "},"Ɲ":{"ha":1003,"x_min":-106,"x_max":985,"o":"m 868 842 l 868 0 l 789 0 l 228 731 l 228 -94 q 176 -248 228 -197 q 15 -300 124 -300 q -51 -294 -17 -300 q -106 -278 -85 -288 l -106 -73 l -46 -73 l -26 -195 q 6 -219 -15 -210 q 50 -228 26 -228 q 119 -194 96 -228 q 143 -102 143 -161 l 143 842 l 26 860 l 26 909 l 338 909 l 783 328 l 783 842 l 661 860 l 661 909 l 985 909 l 985 860 l 868 842 z "},"ƞ":{"ha":772,"x_min":37,"x_max":751,"o":"m 294 582 l 340 606 q 511 654 435 654 q 688 467 688 654 l 688 -235 l 751 -251 l 751 -296 l 435 -296 l 435 -251 l 492 -235 l 492 440 q 468 529 492 497 q 399 561 444 561 q 296 538 347 561 l 296 61 l 354 45 l 354 0 l 37 0 l 37 45 l 100 61 l 100 576 l 37 593 l 37 637 l 285 637 l 294 582 z "},"Ɵ":{"ha":1080,"x_min":68,"x_max":1013,"o":"m 68 456 q 541 920 68 920 q 893 802 774 920 q 1013 456 1013 684 q 892 105 1013 224 q 541 -14 771 -14 q 189 105 311 -14 q 68 456 68 224 m 541 54 q 725 143 666 54 q 787 431 785 231 l 293 431 q 356 141 296 229 q 541 54 416 54 m 541 851 q 359 769 418 851 q 294 505 300 688 l 787 505 q 722 769 781 688 q 541 851 663 851 z "},"Ơ":{"ha":1080,"x_min":68,"x_max":1103,"o":"m 68 456 q 541 920 68 920 q 944 738 831 920 q 994 805 994 768 q 984 827 994 817 q 949 850 975 836 q 903 920 903 875 q 928 982 903 958 q 995 1006 954 1006 q 1073 972 1043 1006 q 1103 886 1103 939 q 1070 771 1103 824 q 973 680 1038 718 q 1013 456 1013 587 q 892 105 1013 224 q 541 -14 771 -14 q 189 105 311 -14 q 68 456 68 224 m 293 456 q 352 147 293 239 q 541 54 412 54 q 728 147 669 54 q 787 456 787 240 q 728 761 787 671 q 541 851 669 851 q 352 761 412 851 q 293 456 293 671 z "},"ơ":{"ha":769,"x_min":53,"x_max":760,"o":"m 760 680 q 726 562 760 616 q 623 470 692 508 q 642 322 642 408 q 568 68 642 151 q 343 -14 494 -14 q 125 70 197 -14 q 53 322 53 153 q 126 573 53 491 q 349 654 199 654 q 598 530 528 654 q 651 599 651 561 q 641 621 651 611 q 606 644 631 630 q 559 714 559 669 q 585 776 559 752 q 652 800 611 800 q 730 766 700 800 q 760 680 760 732 m 443 322 q 421 529 443 471 q 345 586 399 586 q 272 531 292 586 q 252 322 252 476 q 272 110 252 165 q 345 54 293 54 q 420 113 398 54 q 443 322 443 172 z "},"Ƣ":{"ha":1467,"x_min":50,"x_max":1421,"o":"m 1421 -300 l 974 -300 l 974 -250 l 1090 -233 l 1090 835 l 927 835 l 927 47 q 555 -14 726 -14 q 182 107 315 -14 q 50 444 50 227 q 170 801 50 683 q 521 920 290 920 l 798 909 l 1304 909 l 1304 -233 l 1421 -250 l 1421 -300 m 557 851 q 344 752 412 851 q 276 446 276 652 q 343 154 276 254 q 541 54 410 54 q 638 68 586 54 q 713 99 690 81 l 713 835 q 557 851 612 851 z "},"ƣ":{"ha":1070,"x_min":53,"x_max":1023,"o":"m 669 -296 l 669 -251 l 757 -235 l 757 567 l 642 567 l 642 322 q 569 70 642 153 q 343 -14 496 -14 q 126 68 199 -14 q 53 322 53 151 q 126 573 53 491 q 349 654 199 654 q 465 646 380 654 q 586 637 550 637 l 953 637 l 953 -235 l 1023 -251 l 1023 -296 l 669 -296 m 343 54 q 421 113 399 54 q 443 322 443 173 l 443 567 q 392 580 422 574 q 343 586 361 586 q 272 530 293 586 q 252 322 252 475 q 273 111 252 168 q 343 54 294 54 z "},"Ƥ":{"ha":964,"x_min":0,"x_max":923,"o":"m 705 640 q 664 792 705 749 q 522 835 624 835 l 469 835 l 469 431 l 525 431 q 662 479 619 431 q 705 640 705 526 m 923 642 q 591 357 923 357 l 469 357 l 469 68 l 620 50 l 620 0 l 146 0 l 146 50 l 254 68 l 254 835 l 229 835 q 142 820 176 835 q 93 764 109 804 l 59 682 l 0 682 l 5 876 q 199 909 69 909 l 538 909 q 827 845 732 909 q 923 642 923 780 z "},"ƥ":{"ha":772,"x_min":18,"x_max":716,"o":"m 457 813 l 414 813 l 394 887 q 351 903 378 903 q 283 730 283 903 l 283 609 q 454 654 355 654 q 651 576 587 654 q 716 330 716 498 q 641 75 716 163 q 425 -14 566 -14 q 279 5 353 -14 q 283 -96 283 -40 l 283 -235 l 377 -251 l 377 -296 l 18 -296 l 18 -251 l 87 -235 l 87 709 q 154 908 87 839 q 345 978 220 978 q 457 965 412 978 l 457 813 m 517 326 q 399 579 517 579 q 283 553 336 579 l 283 73 q 398 58 338 58 q 517 326 517 58 z "},"Ʀ":{"ha":848,"x_min":24,"x_max":979,"o":"m 591 528 q 549 670 591 630 q 395 709 507 709 l 355 709 l 355 334 l 399 334 q 547 378 503 334 q 591 528 591 421 m 685 -153 l 413 260 l 355 260 l 355 68 l 471 50 l 471 0 l 33 0 l 33 50 l 140 68 l 140 842 l 24 860 l 24 909 l 471 909 l 471 860 l 355 842 l 355 784 l 404 784 q 704 722 605 784 q 803 530 803 661 q 620 279 803 334 l 881 -85 l 979 -103 l 979 -153 l 685 -153 z "},"Ƨ":{"ha":772,"x_min":59,"x_max":699,"o":"m 699 35 q 556 -1 637 12 q 400 -14 475 -14 q 59 276 59 -14 q 89 406 59 351 q 176 499 119 461 q 392 589 233 536 q 508 647 471 614 q 545 724 545 679 q 502 817 545 785 q 372 849 458 849 q 211 799 280 849 l 180 674 l 120 674 l 120 890 q 372 920 255 920 q 611 857 530 920 q 693 674 693 794 q 672 560 693 606 q 616 481 651 513 q 529 424 581 448 q 361 361 477 400 q 245 300 282 334 q 208 215 208 266 q 403 55 208 55 q 522 77 465 55 q 608 133 579 100 l 639 279 l 699 279 l 699 35 z "},"ƨ":{"ha":541,"x_min":34,"x_max":498,"o":"m 34 202 q 76 327 34 277 q 216 407 117 376 q 337 458 309 435 q 365 516 365 481 q 341 571 365 551 q 269 591 318 591 q 202 578 237 591 q 146 546 167 566 l 125 471 l 80 471 l 80 635 q 268 654 198 654 q 434 603 370 654 q 498 465 498 551 q 457 334 498 387 q 318 251 416 281 q 197 200 226 222 q 169 140 169 178 q 198 75 169 100 q 286 50 227 50 q 366 66 327 50 q 427 105 404 82 l 452 195 l 497 195 l 497 21 q 399 -3 459 7 q 290 -14 340 -14 q 99 41 165 -14 q 34 202 34 96 z "},"Ʃ":{"ha":908,"x_min":45,"x_max":843,"o":"m 526 554 l 526 486 l 248 178 l 441 178 q 627 181 517 178 q 762 189 736 184 l 787 315 l 843 315 l 830 0 l 45 0 l 45 69 l 371 429 l 51 837 l 51 909 l 787 909 l 787 678 l 725 678 l 696 825 q 474 835 618 835 l 312 835 l 526 554 z "},"ƪ":{"ha":712,"x_min":31,"x_max":610,"o":"m 174 684 q 73 726 115 684 q 31 829 31 768 q 73 931 31 890 q 174 972 115 972 q 360 865 296 972 q 425 552 425 758 l 425 -48 q 446 -176 425 -131 q 504 -221 467 -221 q 537 -208 521 -221 l 566 -131 l 610 -131 l 610 -283 q 493 -296 553 -296 q 298 -225 367 -296 q 229 -26 229 -154 l 229 695 q 174 684 203 684 m 174 896 q 128 876 148 896 q 108 829 108 856 q 128 782 108 802 q 174 762 148 762 q 221 782 201 762 q 241 829 241 802 q 220 876 241 856 q 174 896 200 896 z "},"ƫ":{"ha":463,"x_min":22,"x_max":456,"o":"m 263 -296 q 146 -283 203 -296 l 146 -131 l 190 -131 l 219 -208 q 252 -221 235 -221 q 308 -176 288 -221 q 328 -48 328 -132 l 328 -12 l 313 -14 l 297 -14 q 156 28 205 -14 q 106 147 106 69 l 106 567 l 22 567 l 22 611 l 121 637 l 200 782 l 302 782 l 302 637 l 436 637 l 436 567 l 302 567 l 302 159 q 320 93 302 115 q 368 71 338 71 q 456 81 404 71 l 456 -14 q 407 -222 456 -149 q 263 -296 358 -296 z "},"Ƭ":{"ha":926,"x_min":0,"x_max":905,"o":"m 905 655 l 843 655 l 825 824 q 602 836 768 836 l 569 836 l 569 68 l 713 50 l 713 0 l 210 0 l 210 50 l 355 68 l 355 836 l 229 836 q 142 820 176 836 q 93 764 109 804 l 59 682 l 0 682 l 5 876 q 199 909 69 909 l 905 909 l 905 655 z "},"ƭ":{"ha":463,"x_min":22,"x_max":488,"o":"m 437 792 l 412 887 q 370 903 396 903 q 302 730 302 903 l 302 637 l 436 637 l 436 567 l 302 567 l 302 159 q 320 93 302 115 q 368 71 338 71 q 456 81 404 71 l 456 24 q 387 -2 436 9 q 297 -14 338 -14 q 156 28 205 -14 q 106 147 106 69 l 106 567 l 22 567 l 22 611 l 106 633 l 106 709 q 172 908 106 839 q 363 978 239 978 q 435 971 399 978 q 488 958 471 965 l 488 792 l 437 792 z "},"Ʈ":{"ha":926,"x_min":22,"x_max":905,"o":"m 905 655 l 843 655 l 825 824 q 602 836 768 836 l 569 836 l 569 -99 q 600 -195 569 -163 q 677 -228 631 -228 q 730 -219 706 -228 q 766 -195 753 -210 l 787 -73 l 847 -73 l 847 -279 q 771 -294 820 -288 q 669 -300 723 -300 q 437 -220 519 -300 q 355 7 355 -141 l 355 838 l 320 838 q 102 824 165 838 l 83 655 l 22 655 l 22 909 l 905 909 l 905 655 z "},"Ư":{"ha":1105,"x_min":35,"x_max":1093,"o":"m 1093 886 q 1034 735 1093 800 q 865 640 974 670 l 865 313 q 774 71 865 155 q 515 -13 684 -13 q 235 72 332 -13 q 138 318 138 157 l 138 842 l 35 860 l 35 909 l 468 909 l 468 860 l 351 842 l 351 309 q 407 141 351 199 q 568 83 462 83 q 726 140 670 83 q 781 307 781 197 l 781 842 l 659 860 l 659 909 l 865 909 l 865 707 q 957 753 928 728 q 985 805 985 779 q 975 827 985 817 q 939 850 965 836 q 893 920 893 875 q 919 982 893 958 q 985 1006 945 1006 q 1063 972 1034 1006 q 1093 886 1093 939 z "},"ư":{"ha":833,"x_min":21,"x_max":847,"o":"m 847 680 q 804 548 847 608 q 673 452 760 489 l 673 61 l 735 45 l 735 0 l 488 0 l 478 56 l 432 32 q 261 -17 337 -17 q 85 171 85 -17 l 85 576 l 21 593 l 21 637 l 281 637 l 281 197 q 305 109 281 140 q 374 77 329 77 q 477 100 425 77 l 477 576 l 418 593 l 418 637 l 673 637 l 673 523 q 739 599 739 556 q 729 621 739 611 q 693 644 719 630 q 647 714 647 669 q 673 776 647 752 q 739 800 699 800 q 817 766 787 800 q 847 680 847 732 z "},"Ʊ":{"ha":1112,"x_min":63,"x_max":1050,"o":"m 557 58 q 755 132 686 58 q 825 342 825 205 q 773 532 825 463 q 627 616 722 602 l 611 909 l 1035 909 l 1050 649 l 992 649 l 951 736 q 776 747 897 747 l 702 747 l 705 675 q 961 564 871 650 q 1050 342 1050 478 q 922 82 1050 174 q 557 -10 793 -10 q 192 81 321 -10 q 64 342 64 173 q 153 564 64 477 q 408 675 241 650 l 412 747 l 338 747 q 163 736 217 747 l 121 649 l 63 649 l 79 909 l 503 909 l 487 616 q 340 532 392 602 q 289 342 289 463 q 358 132 289 205 q 557 58 427 58 z "},"Ʋ":{"ha":905,"x_min":35,"x_max":865,"o":"m 546 737 l 546 903 q 686 923 600 923 q 820 869 774 923 q 865 714 865 816 l 865 313 q 774 71 865 155 q 515 -13 684 -13 q 235 72 332 -13 q 138 318 138 157 l 138 842 l 35 860 l 35 909 l 468 909 l 468 860 l 351 842 l 351 309 q 407 141 351 199 q 568 83 462 83 q 726 140 670 83 q 781 307 781 197 l 781 720 q 759 816 781 783 q 696 848 737 848 q 652 840 674 848 q 617 815 629 831 l 597 737 l 546 737 z "},"Ƴ":{"ha":1098,"x_min":24,"x_max":1076,"o":"m 1076 734 l 1025 734 l 1001 825 q 943 842 976 842 q 882 821 907 842 q 832 753 857 799 l 618 358 l 618 68 l 762 50 l 762 0 l 259 0 l 259 50 l 404 68 l 404 354 l 127 842 l 24 860 l 24 909 l 492 909 l 492 860 l 370 842 l 578 461 l 745 779 q 945 920 819 920 q 1076 899 1022 920 l 1076 734 z "},"ƴ":{"ha":694,"x_min":14,"x_max":944,"o":"m 944 786 l 903 786 l 875 865 q 825 880 855 880 q 778 866 798 880 q 740 823 758 852 q 686 703 722 793 l 383 -40 q 304 -202 337 -153 q 234 -275 272 -250 q 144 -300 195 -300 q 33 -287 90 -300 l 33 -123 l 73 -123 l 102 -208 q 153 -224 122 -224 q 198 -212 178 -224 q 235 -176 218 -199 q 268 -120 252 -153 q 313 -20 283 -86 l 58 576 l 14 593 l 14 637 l 340 637 l 340 593 l 264 575 l 414 222 l 597 704 q 671 868 640 819 q 741 940 703 917 q 832 963 779 963 q 886 961 865 963 q 944 950 906 958 l 944 786 z "},"Ƶ":{"ha":926,"x_min":66,"x_max":856,"o":"m 856 267 l 838 0 l 66 0 l 66 77 l 306 439 l 118 439 l 118 522 l 360 522 l 570 838 l 407 838 q 190 824 253 838 l 169 681 l 109 681 l 109 909 l 811 909 l 811 838 l 602 522 l 781 522 l 781 439 l 547 439 l 304 71 l 494 71 q 647 78 572 71 q 755 93 722 85 l 795 267 l 856 267 z "},"ƶ":{"ha":616,"x_min":27,"x_max":586,"o":"m 27 0 l 27 31 l 168 293 l 60 293 l 60 363 l 205 363 l 320 576 l 248 576 q 174 570 210 576 q 125 553 139 564 l 104 448 l 56 448 l 56 637 l 551 637 l 551 604 l 420 363 l 523 363 l 523 293 l 382 293 l 258 61 l 359 61 q 441 70 398 61 q 501 93 484 79 l 537 240 l 586 240 l 568 0 l 27 0 z "},"Ʒ":{"ha":808,"x_min":30,"x_max":759,"o":"m 325 -300 q 33 -273 164 -300 l 30 -33 l 92 -33 l 122 -199 q 211 -222 156 -213 q 307 -232 266 -232 q 488 -151 429 -232 q 546 102 546 -70 q 475 329 546 256 q 241 401 404 401 l 191 401 l 191 473 l 460 838 l 380 838 q 163 824 225 838 l 142 681 l 81 681 l 81 909 l 688 909 l 688 838 l 391 460 q 669 344 578 435 q 759 93 759 254 q 645 -198 759 -96 q 325 -300 531 -300 z "},"Ƹ":{"ha":808,"x_min":50,"x_max":779,"o":"m 484 -300 q 163 -198 277 -300 q 50 93 50 -96 q 140 344 50 254 q 417 460 230 435 l 121 838 l 121 909 l 727 909 l 727 681 l 667 681 l 646 824 q 429 838 583 838 l 349 838 l 617 473 l 617 401 l 568 401 q 334 329 405 401 q 262 102 262 256 q 321 -151 262 -70 q 502 -232 379 -232 q 597 -222 542 -232 q 686 -199 652 -213 l 716 -33 l 779 -33 l 776 -273 q 484 -300 644 -300 z "},"ƹ":{"ha":637,"x_min":46,"x_max":614,"o":"m 399 -300 q 137 -219 228 -300 q 46 12 46 -138 q 286 286 46 246 l 70 604 l 70 637 l 595 637 l 595 448 l 546 448 l 525 553 q 478 570 512 563 q 403 576 444 576 l 296 576 l 494 271 l 494 230 l 431 230 q 289 173 334 230 q 243 0 243 116 q 292 -165 243 -114 q 434 -216 340 -216 q 614 -194 529 -216 l 614 -246 q 518 -286 576 -272 q 399 -300 460 -300 z "},"ƺ":{"ha":629,"x_min":46,"x_max":608,"o":"m 366 -300 q 194 -272 267 -300 q 84 -192 122 -243 q 46 -73 46 -141 q 113 78 46 20 q 304 152 180 137 q 387 179 362 160 q 411 234 411 198 q 227 318 411 318 l 172 318 l 172 359 l 374 576 l 258 576 q 184 570 220 576 q 136 553 149 564 l 115 448 l 66 448 l 66 637 l 608 637 l 608 604 l 377 370 q 537 317 492 350 q 581 230 581 285 q 562 163 581 190 q 504 121 542 137 q 385 92 466 104 q 255 41 294 78 q 216 -65 216 5 q 394 -216 216 -216 q 582 -194 492 -216 l 582 -246 q 485 -286 543 -272 q 366 -300 427 -300 z "},"ƻ":{"ha":694,"x_min":58,"x_max":635,"o":"m 58 0 l 58 128 l 151 224 q 291 369 257 331 q 349 441 326 406 l 95 441 l 95 524 l 394 524 q 422 686 422 595 q 386 805 422 760 q 290 850 350 850 q 223 842 248 850 q 177 815 198 833 l 148 684 l 89 684 l 89 890 q 195 911 143 903 q 308 920 247 920 q 537 858 458 920 q 617 682 617 796 q 579 524 617 593 l 635 524 l 635 441 l 518 441 q 438 364 487 407 q 291 241 389 321 l 189 153 l 635 153 l 635 0 l 58 0 z "},"Ƽ":{"ha":701,"x_min":28,"x_max":640,"o":"m 145 842 l 28 860 l 28 909 l 610 909 l 610 604 l 547 604 l 529 746 q 307 758 473 758 l 220 758 l 220 519 q 273 531 241 524 q 355 538 304 538 q 569 472 498 538 q 640 271 640 406 q 555 60 640 134 q 311 -14 470 -14 q 60 14 185 -14 l 52 234 l 115 234 l 150 88 q 215 64 176 73 q 285 55 254 55 q 441 264 441 55 q 408 421 441 373 q 303 469 376 469 q 231 452 263 469 l 213 443 l 145 443 l 145 842 z "},"ƽ":{"ha":534,"x_min":1,"x_max":534,"o":"m 98 576 l 1 593 l 1 637 l 520 637 l 520 406 l 469 406 l 440 503 q 305 515 372 515 l 173 515 l 173 371 q 219 381 192 376 q 286 387 245 387 q 471 336 408 387 q 534 195 534 284 q 460 40 534 94 q 248 -14 386 -14 q 30 10 136 -14 l 23 199 l 77 199 l 108 81 q 162 62 127 71 q 225 54 197 54 q 361 194 361 54 q 334 289 361 258 q 241 319 307 319 q 208 315 223 319 q 163 296 193 312 l 98 296 l 98 576 z "},"ƾ":{"ha":463,"x_min":7,"x_max":440,"o":"m 66 567 l 7 567 l 7 611 l 81 637 l 160 782 l 262 782 l 262 637 l 394 637 l 394 567 l 262 567 l 262 516 q 273 465 262 486 q 331 407 284 443 q 419 309 398 354 q 440 208 440 264 q 382 44 440 102 q 218 -14 323 -14 q 120 -2 173 -14 q 43 21 68 9 l 43 195 l 88 195 l 114 105 q 214 50 155 50 q 274 72 252 50 q 297 132 297 94 q 273 206 297 174 q 194 268 250 237 q 118 317 136 298 q 88 359 100 335 q 71 407 76 383 q 66 567 66 431 z "},"ƿ":{"ha":828,"x_min":48,"x_max":778,"o":"m 351 -296 l 48 -296 l 48 -251 l 155 -235 l 155 576 l 52 593 l 52 637 l 351 637 l 351 522 q 446 620 387 586 q 579 654 505 654 q 725 588 671 654 q 778 406 778 522 q 669 127 778 248 q 351 -64 561 6 l 351 -296 m 351 5 q 578 404 578 126 q 554 523 578 479 q 484 566 530 566 q 444 554 463 566 q 407 521 425 543 q 351 439 389 500 l 351 5 z "},"ǀ":{"ha":306,"x_min":98,"x_max":207,"o":"m 207 0 l 98 0 l 98 964 l 207 964 l 207 0 z "},"ǁ":{"ha":450,"x_min":74,"x_max":376,"o":"m 376 0 l 268 0 l 268 964 l 376 964 l 376 0 m 182 0 l 74 0 l 74 964 l 182 964 l 182 0 z "},"ǂ":{"ha":388,"x_min":9,"x_max":379,"o":"m 379 317 l 248 317 l 248 0 l 140 0 l 140 317 l 9 317 l 9 415 l 140 415 l 140 505 l 9 505 l 9 603 l 140 603 l 140 964 l 248 964 l 248 603 l 379 603 l 379 505 l 248 505 l 248 415 l 379 415 l 379 317 z "},"ǃ":{"ha":463,"x_min":118,"x_max":343,"o":"m 269 285 l 191 285 l 129 909 l 332 909 l 269 285 m 231 -20 q 151 13 184 -20 q 118 93 118 45 q 151 173 118 140 q 231 205 183 205 q 310 173 277 205 q 343 93 343 140 q 311 13 343 46 q 231 -20 278 -20 z "},"Ǆ":{"ha":1929,"x_min":24,"x_max":1859,"o":"m 710 454 q 638 743 710 651 q 404 835 566 835 l 354 835 l 354 77 q 472 72 419 72 q 611 110 560 72 q 686 229 663 148 q 710 454 710 310 m 456 909 q 818 799 701 909 q 935 460 935 688 q 823 112 935 226 q 485 -3 711 -3 l 180 0 l 24 0 l 24 50 l 141 68 l 141 842 l 24 860 l 24 909 l 456 909 m 1069 77 l 1573 838 l 1410 838 q 1193 824 1256 838 l 1172 681 l 1112 681 l 1112 909 l 1814 909 l 1814 838 l 1308 71 l 1497 71 q 1650 78 1575 71 q 1758 93 1725 85 l 1798 267 l 1859 267 l 1841 0 l 1069 0 l 1069 77 m 1691 1206 l 1691 1183 l 1544 985 l 1399 985 l 1252 1183 l 1252 1206 l 1303 1206 l 1472 1096 l 1640 1206 l 1691 1206 z "},"ǅ":{"ha":1619,"x_min":24,"x_max":1589,"o":"m 710 454 q 638 743 710 651 q 404 835 566 835 l 354 835 l 354 77 q 472 72 419 72 q 611 110 560 72 q 686 229 663 148 q 710 454 710 310 m 456 909 q 818 799 701 909 q 935 460 935 688 q 823 112 935 226 q 485 -3 711 -3 l 180 0 l 24 0 l 24 50 l 141 68 l 141 842 l 24 860 l 24 909 l 456 909 m 1030 0 l 1030 31 l 1323 576 l 1251 576 q 1177 570 1213 576 q 1128 553 1142 564 l 1107 448 l 1059 448 l 1059 637 l 1554 637 l 1554 604 l 1261 61 l 1362 61 q 1444 70 1401 61 q 1504 93 1487 79 l 1540 240 l 1589 240 l 1571 0 l 1030 0 m 1533 979 l 1533 957 l 1385 758 l 1240 758 l 1093 957 l 1093 979 l 1145 979 l 1313 869 l 1481 979 l 1533 979 z "},"ǆ":{"ha":1389,"x_min":56,"x_max":1358,"o":"m 497 36 q 439 4 459 12 q 393 -9 418 -4 q 336 -14 367 -14 q 125 67 195 -14 q 56 317 56 149 q 131 568 56 482 q 346 654 205 654 q 495 636 420 654 q 491 741 491 659 l 491 903 l 426 919 l 426 964 l 687 964 l 687 61 l 757 45 l 757 0 l 511 0 l 497 36 m 255 322 q 287 129 255 195 q 378 62 319 62 q 491 91 433 62 l 491 571 q 384 585 438 585 q 289 518 323 585 q 255 322 255 452 m 800 0 l 800 31 l 1093 576 l 1020 576 q 947 570 982 576 q 898 553 911 564 l 877 448 l 828 448 l 828 637 l 1323 637 l 1323 604 l 1030 61 l 1132 61 q 1213 70 1171 61 q 1274 93 1256 79 l 1310 240 l 1358 240 l 1340 0 l 800 0 m 1302 979 l 1302 957 l 1154 758 l 1010 758 l 863 957 l 863 979 l 914 979 l 1082 869 l 1251 979 l 1302 979 z "},"Ǉ":{"ha":1621,"x_min":24,"x_max":1583,"o":"m 494 860 l 354 842 l 354 72 l 539 72 q 751 85 684 72 l 807 275 l 868 275 l 842 0 l 24 0 l 24 50 l 140 68 l 140 842 l 24 860 l 24 909 l 494 909 l 494 860 m 1266 842 l 1149 860 l 1149 909 l 1583 909 l 1583 860 l 1480 842 l 1480 293 q 1398 66 1480 146 q 1166 -14 1317 -14 q 1066 -8 1116 -14 q 988 7 1017 -2 l 988 213 l 1048 213 l 1069 92 q 1105 67 1082 76 q 1158 58 1129 58 q 1235 91 1204 58 q 1266 187 1266 123 l 1266 842 z "},"ǈ":{"ha":1389,"x_min":24,"x_max":1301,"o":"m 494 860 l 354 842 l 354 72 l 539 72 q 751 85 684 72 l 807 275 l 868 275 l 842 0 l 24 0 l 24 50 l 140 68 l 140 842 l 24 860 l 24 909 l 494 909 l 494 860 m 1301 860 q 1271 786 1301 817 q 1198 755 1241 755 q 1124 786 1154 755 q 1093 860 1093 816 q 1123 933 1093 903 q 1198 964 1154 964 q 1271 933 1240 964 q 1301 860 1301 903 m 1296 -26 q 1227 -225 1296 -154 q 1031 -296 1158 -296 q 915 -283 971 -296 l 915 -131 l 958 -131 l 987 -208 q 1021 -221 1004 -221 q 1079 -176 1057 -221 q 1100 -48 1100 -131 l 1100 570 l 987 593 l 987 637 l 1296 637 l 1296 -26 z "},"ǉ":{"ha":848,"x_min":27,"x_max":761,"o":"m 292 61 l 362 45 l 362 0 l 27 0 l 27 45 l 96 61 l 96 903 l 31 919 l 31 964 l 292 964 l 292 61 m 761 860 q 731 786 761 817 q 657 755 701 755 q 583 786 614 755 q 553 860 553 816 q 583 933 553 903 q 657 964 613 964 q 730 933 700 964 q 761 860 761 903 m 755 -26 q 687 -225 755 -154 q 491 -296 618 -296 q 374 -283 431 -296 l 374 -131 l 418 -131 l 447 -208 q 480 -221 463 -221 q 538 -176 517 -221 q 559 -48 559 -131 l 559 570 l 447 593 l 447 637 l 755 637 l 755 -26 z "},"Ǌ":{"ha":1697,"x_min":26,"x_max":1659,"o":"m 783 842 l 661 860 l 661 909 l 985 909 l 985 860 l 868 842 l 868 0 l 789 0 l 228 731 l 228 68 l 350 50 l 350 0 l 26 0 l 26 50 l 143 68 l 143 842 l 26 860 l 26 909 l 338 909 l 783 328 l 783 842 m 1343 842 l 1226 860 l 1226 909 l 1659 909 l 1659 860 l 1556 842 l 1556 293 q 1475 66 1556 146 q 1243 -14 1394 -14 q 1143 -8 1192 -14 q 1065 7 1094 -2 l 1065 213 l 1125 213 l 1145 92 q 1182 67 1158 76 q 1234 58 1206 58 q 1312 91 1281 58 q 1343 187 1343 123 l 1343 842 z "},"ǋ":{"ha":1466,"x_min":26,"x_max":1378,"o":"m 783 842 l 661 860 l 661 909 l 985 909 l 985 860 l 868 842 l 868 0 l 789 0 l 228 731 l 228 68 l 350 50 l 350 0 l 26 0 l 26 50 l 143 68 l 143 842 l 26 860 l 26 909 l 338 909 l 783 328 l 783 842 m 1378 860 q 1348 786 1378 817 q 1274 755 1318 755 q 1200 786 1231 755 q 1170 860 1170 816 q 1200 933 1170 903 q 1274 964 1230 964 q 1348 933 1317 964 q 1378 860 1378 903 m 1373 -26 q 1304 -225 1373 -154 q 1108 -296 1235 -296 q 991 -283 1048 -296 l 991 -131 l 1035 -131 l 1064 -208 q 1097 -221 1080 -221 q 1155 -176 1134 -221 q 1177 -48 1177 -131 l 1177 570 l 1064 593 l 1064 637 l 1373 637 l 1373 -26 z "},"ǌ":{"ha":1235,"x_min":37,"x_max":1147,"o":"m 294 582 l 340 606 q 511 654 435 654 q 688 467 688 654 l 688 61 l 751 45 l 751 0 l 435 0 l 435 45 l 492 61 l 492 440 q 468 529 492 497 q 399 561 444 561 q 296 538 347 561 l 296 61 l 354 45 l 354 0 l 37 0 l 37 45 l 100 61 l 100 576 l 37 593 l 37 637 l 285 637 l 294 582 m 1147 860 q 1117 786 1147 817 q 1044 755 1087 755 q 970 786 1000 755 q 939 860 939 816 q 969 933 939 903 q 1044 964 1000 964 q 1117 933 1086 964 q 1147 860 1147 903 m 1142 -26 q 1073 -225 1142 -154 q 878 -296 1004 -296 q 761 -283 817 -296 l 761 -131 l 804 -131 l 833 -208 q 867 -221 850 -221 q 925 -176 903 -221 q 946 -48 946 -131 l 946 570 l 833 593 l 833 637 l 1142 637 l 1142 -26 z "},"Ǎ":{"ha":1003,"x_min":14,"x_max":993,"o":"m 290 50 l 290 0 l 14 0 l 14 50 l 81 68 l 405 917 l 602 917 l 924 68 l 993 50 l 993 0 l 588 0 l 588 50 l 693 68 l 606 303 l 257 303 l 174 68 l 290 50 m 435 780 l 285 378 l 581 378 l 435 780 m 724 1206 l 724 1183 l 576 985 l 432 985 l 285 1183 l 285 1206 l 336 1206 l 505 1096 l 673 1206 l 724 1206 z "},"ǎ":{"ha":694,"x_min":45,"x_max":673,"o":"m 370 652 q 610 475 610 652 l 610 61 l 673 45 l 673 0 l 439 0 l 424 49 q 328 0 371 13 q 242 -14 286 -14 q 45 176 45 -14 q 74 291 45 248 q 158 355 103 334 q 331 378 213 376 l 414 380 l 414 473 q 319 589 414 589 q 192 553 262 589 l 166 474 l 121 474 l 121 628 q 272 648 224 644 q 370 652 320 652 m 414 320 l 357 318 q 266 283 291 315 q 240 180 240 252 q 260 96 240 123 q 313 68 281 68 q 414 92 359 68 l 414 320 m 571 979 l 571 957 l 423 758 l 279 758 l 132 957 l 132 979 l 183 979 l 351 869 l 519 979 l 571 979 z "},"Ǐ":{"ha":541,"x_min":47,"x_max":494,"o":"m 377 68 l 494 50 l 494 0 l 47 0 l 47 50 l 163 68 l 163 842 l 47 860 l 47 909 l 494 909 l 494 860 l 377 842 l 377 68 m 490 1206 l 490 1183 l 342 985 l 197 985 l 50 1183 l 50 1206 l 102 1206 l 270 1096 l 438 1206 l 490 1206 z "},"ǐ":{"ha":386,"x_min":-20,"x_max":420,"o":"m 296 61 l 366 45 l 366 0 l 31 0 l 31 45 l 100 61 l 100 576 l 35 593 l 35 637 l 296 637 l 296 61 m 420 979 l 420 957 l 272 758 l 127 758 l -20 957 l -20 979 l 32 979 l 200 869 l 368 979 l 420 979 z "},"Ǒ":{"ha":1080,"x_min":68,"x_max":1013,"o":"m 293 456 q 352 147 293 239 q 541 54 412 54 q 728 147 669 54 q 787 456 787 240 q 728 761 787 671 q 541 851 669 851 q 352 761 412 851 q 293 456 293 671 m 68 456 q 541 920 68 920 q 893 802 774 920 q 1013 456 1013 684 q 892 105 1013 224 q 541 -14 771 -14 q 189 105 311 -14 q 68 456 68 224 m 766 1206 l 766 1183 l 618 985 l 473 985 l 326 1183 l 326 1206 l 378 1206 l 546 1096 l 714 1206 l 766 1206 z "},"ǒ":{"ha":694,"x_min":53,"x_max":642,"o":"m 642 322 q 568 68 642 151 q 343 -14 494 -14 q 125 70 197 -14 q 53 322 53 153 q 126 573 53 491 q 349 654 199 654 q 571 570 500 654 q 642 322 642 486 m 443 322 q 421 529 443 471 q 345 586 399 586 q 272 531 292 586 q 252 322 252 476 q 272 110 252 165 q 345 54 293 54 q 420 113 398 54 q 443 322 443 172 m 568 979 l 568 957 l 420 758 l 275 758 l 128 957 l 128 979 l 180 979 l 348 869 l 516 979 l 568 979 z "},"Ǔ":{"ha":1003,"x_min":35,"x_max":968,"o":"m 568 83 q 726 140 670 83 q 781 307 781 197 l 781 842 l 659 860 l 659 909 l 968 909 l 968 860 l 865 842 l 865 313 q 774 71 865 155 q 515 -13 684 -13 q 235 72 332 -13 q 138 318 138 157 l 138 842 l 35 860 l 35 909 l 468 909 l 468 860 l 351 842 l 351 309 q 407 141 351 199 q 568 83 462 83 m 740 1206 l 740 1183 l 592 985 l 448 985 l 300 1183 l 300 1206 l 352 1206 l 520 1096 l 688 1206 l 740 1206 z "},"ǔ":{"ha":772,"x_min":21,"x_max":735,"o":"m 478 56 l 432 32 q 261 -17 337 -17 q 85 171 85 -17 l 85 576 l 21 593 l 21 637 l 281 637 l 281 197 q 305 109 281 140 q 374 77 329 77 q 477 100 425 77 l 477 576 l 418 593 l 418 637 l 673 637 l 673 61 l 735 45 l 735 0 l 488 0 l 478 56 m 602 979 l 602 957 l 454 758 l 310 758 l 163 957 l 163 979 l 214 979 l 382 869 l 551 979 l 602 979 z "},"Ǖ":{"ha":1003,"x_min":35,"x_max":968,"o":"m 568 83 q 726 140 670 83 q 781 307 781 197 l 781 842 l 659 860 l 659 909 l 968 909 l 968 860 l 865 842 l 865 313 q 774 71 865 155 q 515 -13 684 -13 q 235 72 332 -13 q 138 318 138 157 l 138 842 l 35 860 l 35 909 l 468 909 l 468 860 l 351 842 l 351 309 q 407 141 351 199 q 568 83 462 83 m 321 1143 l 321 1238 l 747 1238 l 747 1143 l 321 1143 m 643 966 q 597 984 618 966 q 577 1031 577 1003 q 596 1077 577 1059 q 643 1096 616 1096 q 689 1077 671 1096 q 707 1031 707 1059 q 689 985 707 1005 q 643 966 670 966 m 427 966 q 381 985 401 966 q 361 1031 361 1005 q 381 1077 361 1058 q 427 1096 400 1096 q 473 1077 454 1096 q 492 1031 492 1059 q 472 984 492 1003 q 427 966 452 966 z "},"ǖ":{"ha":772,"x_min":21,"x_max":735,"o":"m 478 56 l 432 32 q 261 -17 337 -17 q 85 171 85 -17 l 85 576 l 21 593 l 21 637 l 281 637 l 281 197 q 305 109 281 140 q 374 77 329 77 q 477 100 425 77 l 477 576 l 418 593 l 418 637 l 673 637 l 673 61 l 735 45 l 735 0 l 488 0 l 478 56 m 494 706 q 436 730 461 706 q 412 788 412 754 q 436 845 412 822 q 494 869 461 869 q 551 846 527 869 q 574 788 574 823 q 551 730 574 754 q 494 706 527 706 m 266 706 q 209 731 233 706 q 184 788 184 756 q 208 845 184 821 q 266 869 233 869 q 323 845 299 869 q 347 788 347 821 q 323 730 347 754 q 266 706 299 706 m 166 937 l 166 1038 l 592 1038 l 592 937 l 166 937 z "},"Ǘ":{"ha":1003,"x_min":35,"x_max":968,"o":"m 568 83 q 726 140 670 83 q 781 307 781 197 l 781 842 l 659 860 l 659 909 l 968 909 l 968 860 l 865 842 l 865 313 q 774 71 865 155 q 515 -13 684 -13 q 235 72 332 -13 q 138 318 138 157 l 138 842 l 35 860 l 35 909 l 468 909 l 468 860 l 351 842 l 351 309 q 407 141 351 199 q 568 83 462 83 m 642 936 q 596 955 616 936 q 576 1002 576 973 q 595 1047 576 1029 q 642 1066 614 1066 q 688 1047 669 1066 q 706 1002 706 1029 q 687 956 706 975 q 642 936 669 936 m 429 936 q 382 956 402 936 q 363 1002 363 975 q 382 1047 363 1028 q 429 1066 401 1066 q 474 1047 456 1066 q 493 1002 493 1029 q 473 955 493 973 q 429 936 454 936 m 496 1090 l 496 1113 l 564 1230 l 696 1230 l 696 1205 l 554 1090 l 496 1090 z "},"ǘ":{"ha":772,"x_min":21,"x_max":735,"o":"m 478 56 l 432 32 q 261 -17 337 -17 q 85 171 85 -17 l 85 576 l 21 593 l 21 637 l 281 637 l 281 197 q 305 109 281 140 q 374 77 329 77 q 477 100 425 77 l 477 576 l 418 593 l 418 637 l 673 637 l 673 61 l 735 45 l 735 0 l 488 0 l 478 56 m 494 706 q 436 730 461 706 q 412 788 412 754 q 436 845 412 822 q 494 869 461 869 q 551 846 527 869 q 574 788 574 823 q 551 730 574 754 q 494 706 527 706 m 266 706 q 209 731 233 706 q 184 788 184 756 q 208 845 184 821 q 266 869 233 869 q 323 845 299 869 q 347 788 347 821 q 323 730 347 754 q 266 706 299 706 m 273 935 l 273 957 l 386 1141 l 579 1141 l 579 1116 l 332 935 l 273 935 z "},"Ǚ":{"ha":1003,"x_min":35,"x_max":968,"o":"m 568 83 q 726 140 670 83 q 781 307 781 197 l 781 842 l 659 860 l 659 909 l 968 909 l 968 860 l 865 842 l 865 313 q 774 71 865 155 q 515 -13 684 -13 q 235 72 332 -13 q 138 318 138 157 l 138 842 l 35 860 l 35 909 l 468 909 l 468 860 l 351 842 l 351 309 q 407 141 351 199 q 568 83 462 83 m 643 935 q 597 953 618 935 q 577 1000 577 972 q 596 1046 577 1027 q 643 1065 616 1065 q 689 1046 671 1065 q 707 1000 707 1027 q 689 954 707 974 q 643 935 670 935 m 430 935 q 384 954 404 935 q 364 1000 364 974 q 384 1046 364 1027 q 430 1065 403 1065 q 476 1046 457 1065 q 494 1000 494 1027 q 475 953 494 972 q 430 935 455 935 m 741 1238 l 741 1215 l 592 1074 l 476 1074 l 328 1215 l 328 1238 l 380 1238 l 534 1153 l 689 1238 l 741 1238 z "},"ǚ":{"ha":772,"x_min":21,"x_max":735,"o":"m 478 56 l 432 32 q 261 -17 337 -17 q 85 171 85 -17 l 85 576 l 21 593 l 21 637 l 281 637 l 281 197 q 305 109 281 140 q 374 77 329 77 q 477 100 425 77 l 477 576 l 418 593 l 418 637 l 673 637 l 673 61 l 735 45 l 735 0 l 488 0 l 478 56 m 600 1156 l 600 1133 l 452 935 l 308 935 l 161 1133 l 161 1156 l 212 1156 l 380 1046 l 549 1156 l 600 1156 m 494 706 q 436 730 461 706 q 412 788 412 754 q 436 845 412 822 q 494 869 461 869 q 551 846 527 869 q 574 788 574 823 q 551 730 574 754 q 494 706 527 706 m 266 706 q 209 731 233 706 q 184 788 184 756 q 208 845 184 821 q 266 869 233 869 q 323 845 299 869 q 347 788 347 821 q 323 730 347 754 q 266 706 299 706 z "},"Ǜ":{"ha":1003,"x_min":35,"x_max":968,"o":"m 568 83 q 726 140 670 83 q 781 307 781 197 l 781 842 l 659 860 l 659 909 l 968 909 l 968 860 l 865 842 l 865 313 q 774 71 865 155 q 515 -13 684 -13 q 235 72 332 -13 q 138 318 138 157 l 138 842 l 35 860 l 35 909 l 468 909 l 468 860 l 351 842 l 351 309 q 407 141 351 199 q 568 83 462 83 m 513 1099 l 371 1213 l 371 1238 l 503 1238 l 571 1121 l 571 1099 l 513 1099 m 643 945 q 597 964 618 945 q 577 1011 577 983 q 596 1057 577 1038 q 643 1076 616 1076 q 689 1057 671 1076 q 707 1011 707 1038 q 689 965 707 985 q 643 945 670 945 m 430 945 q 384 965 404 945 q 364 1011 364 985 q 384 1057 364 1038 q 430 1076 403 1076 q 476 1057 457 1076 q 494 1011 494 1038 q 475 964 494 983 q 430 945 455 945 z "},"ǜ":{"ha":772,"x_min":21,"x_max":735,"o":"m 478 56 l 432 32 q 261 -17 337 -17 q 85 171 85 -17 l 85 576 l 21 593 l 21 637 l 281 637 l 281 197 q 305 109 281 140 q 374 77 329 77 q 477 100 425 77 l 477 576 l 418 593 l 418 637 l 673 637 l 673 61 l 735 45 l 735 0 l 488 0 l 478 56 m 494 706 q 436 730 461 706 q 412 788 412 754 q 436 845 412 822 q 494 869 461 869 q 551 846 527 869 q 574 788 574 823 q 551 730 574 754 q 494 706 527 706 m 266 706 q 209 731 233 706 q 184 788 184 756 q 208 845 184 821 q 266 869 233 869 q 323 845 299 869 q 347 788 347 821 q 323 730 347 754 q 266 706 299 706 m 422 935 l 175 1116 l 175 1141 l 368 1141 l 480 956 l 480 935 l 422 935 z "},"ǝ":{"ha":616,"x_min":47,"x_max":581,"o":"m 293 -13 q 105 56 163 -13 q 47 271 47 125 l 47 327 l 382 327 l 382 338 q 366 481 382 439 q 312 546 349 524 q 212 569 275 569 q 62 549 153 569 l 62 602 q 158 638 99 624 q 274 653 218 653 q 506 571 431 653 q 581 318 581 490 q 509 69 581 151 q 293 -13 437 -13 m 300 56 q 361 100 341 56 q 381 256 381 144 l 233 256 q 239 128 233 165 q 260 74 245 92 q 300 56 275 56 z "},"Ǟ":{"ha":1003,"x_min":14,"x_max":993,"o":"m 290 50 l 290 0 l 14 0 l 14 50 l 81 68 l 405 917 l 602 917 l 924 68 l 993 50 l 993 0 l 588 0 l 588 50 l 693 68 l 606 303 l 257 303 l 174 68 l 290 50 m 435 780 l 285 378 l 581 378 l 435 780 m 286 1143 l 286 1238 l 711 1238 l 711 1143 l 286 1143 m 607 966 q 562 984 582 966 q 541 1031 541 1003 q 561 1077 541 1059 q 607 1096 580 1096 q 653 1077 635 1096 q 671 1031 671 1059 q 653 985 671 1005 q 607 966 634 966 m 391 966 q 345 985 365 966 q 326 1031 326 1005 q 345 1077 326 1058 q 391 1096 364 1096 q 437 1077 418 1096 q 456 1031 456 1059 q 436 984 456 1003 q 391 966 416 966 z "},"ǟ":{"ha":694,"x_min":45,"x_max":673,"o":"m 370 652 q 610 475 610 652 l 610 61 l 673 45 l 673 0 l 439 0 l 424 49 q 328 0 371 13 q 242 -14 286 -14 q 45 176 45 -14 q 74 291 45 248 q 158 355 103 334 q 331 378 213 376 l 414 380 l 414 473 q 319 589 414 589 q 192 553 262 589 l 166 474 l 121 474 l 121 628 q 272 648 224 644 q 370 652 320 652 m 414 320 l 357 318 q 266 283 291 315 q 240 180 240 252 q 260 96 240 123 q 313 68 281 68 q 414 92 359 68 l 414 320 m 465 706 q 407 730 432 706 q 382 788 382 754 q 407 845 382 822 q 465 869 432 869 q 522 846 498 869 q 545 788 545 823 q 522 730 545 754 q 465 706 498 706 m 237 706 q 179 731 204 706 q 155 788 155 756 q 179 845 155 821 q 237 869 203 869 q 294 845 270 869 q 317 788 317 821 q 294 730 317 754 q 237 706 270 706 m 137 937 l 137 1038 l 563 1038 l 563 937 l 137 937 z "},"Ǡ":{"ha":1003,"x_min":14,"x_max":993,"o":"m 290 50 l 290 0 l 14 0 l 14 50 l 81 68 l 405 917 l 602 917 l 924 68 l 993 50 l 993 0 l 588 0 l 588 50 l 693 68 l 606 303 l 257 303 l 174 68 l 290 50 m 435 780 l 285 378 l 581 378 l 435 780 m 286 1157 l 286 1251 l 711 1251 l 711 1157 l 286 1157 m 407 1038 q 435 1101 407 1076 q 500 1126 463 1126 q 565 1101 539 1126 q 591 1038 591 1075 q 566 975 591 1002 q 500 949 540 949 q 434 975 461 949 q 407 1038 407 1000 z "},"ǡ":{"ha":694,"x_min":45,"x_max":673,"o":"m 370 652 q 610 475 610 652 l 610 61 l 673 45 l 673 0 l 439 0 l 424 49 q 328 0 371 13 q 242 -14 286 -14 q 45 176 45 -14 q 74 291 45 248 q 158 355 103 334 q 331 378 213 376 l 414 380 l 414 473 q 319 589 414 589 q 192 553 262 589 l 166 474 l 121 474 l 121 628 q 272 648 224 644 q 370 652 320 652 m 414 320 l 357 318 q 266 283 291 315 q 240 180 240 252 q 260 96 240 123 q 313 68 281 68 q 414 92 359 68 l 414 320 m 245 800 q 276 873 245 844 q 350 903 307 903 q 424 873 393 903 q 454 800 454 843 q 424 726 454 757 q 350 695 394 695 q 276 725 307 695 q 245 800 245 755 m 136 937 l 136 1038 l 562 1038 l 562 937 l 136 937 z "},"Ǣ":{"ha":1389,"x_min":9,"x_max":1317,"o":"m 561 849 l 464 861 l 464 909 l 1260 909 l 1260 678 l 1198 678 l 1177 825 q 998 835 1101 835 l 862 835 l 862 501 l 1054 501 l 1075 602 l 1135 602 l 1135 322 l 1075 322 l 1054 425 l 862 425 l 862 75 l 1028 75 q 1217 85 1162 75 l 1255 254 l 1317 254 l 1304 0 l 532 0 l 532 50 l 648 68 l 648 303 l 336 303 l 197 68 l 300 50 l 300 0 l 9 0 l 9 50 l 92 68 l 561 849 m 648 378 l 648 838 l 380 378 l 648 378 m 600 987 l 600 1088 l 1025 1088 l 1025 987 l 600 987 z "},"ǣ":{"ha":1003,"x_min":45,"x_max":950,"o":"m 670 654 q 880 582 809 654 q 950 369 950 510 l 950 313 l 595 313 l 595 277 q 616 157 597 199 q 674 94 635 116 q 779 71 713 71 q 853 77 810 71 q 922 91 895 83 l 922 39 q 833 1 887 16 q 726 -13 779 -13 q 575 8 633 -13 q 481 71 517 30 q 241 -14 374 -14 q 94 33 143 -14 q 45 176 45 79 q 61 264 45 227 q 109 325 77 300 q 193 362 140 349 q 341 378 245 375 l 408 380 l 408 472 q 385 561 408 532 q 314 589 362 589 q 192 554 252 589 l 165 474 l 121 474 l 121 627 q 349 652 240 652 q 506 604 456 652 q 670 654 569 654 m 316 68 q 386 81 354 68 q 448 111 418 94 q 419 181 431 133 q 408 285 408 229 l 408 320 l 358 318 q 287 302 310 315 q 252 259 263 288 q 240 180 240 230 q 262 96 240 123 q 316 68 283 68 m 681 585 q 617 540 637 585 q 596 385 596 496 l 751 385 q 735 541 751 498 q 681 585 719 585 m 284 760 l 284 862 l 710 862 l 710 760 l 284 760 z "},"Ǥ":{"ha":1080,"x_min":68,"x_max":1042,"o":"m 1042 176 l 954 176 l 954 47 q 758 3 869 20 q 558 -14 647 -14 q 299 41 410 -14 q 128 199 188 95 q 68 444 68 302 q 198 796 68 673 q 571 920 329 920 q 679 915 630 920 q 769 902 727 910 q 924 862 811 894 l 924 653 l 863 653 l 846 771 q 728 828 793 808 q 595 848 664 848 q 365 750 437 848 q 293 446 293 652 q 369 155 293 254 q 590 56 446 56 q 740 80 669 56 l 740 176 l 587 176 l 587 258 l 740 258 l 740 343 l 623 361 l 623 411 l 1042 411 l 1042 361 l 954 343 l 954 258 l 1042 258 l 1042 176 z "},"ǥ":{"ha":694,"x_min":0,"x_max":694,"o":"m 654 -172 q 533 -272 617 -237 q 327 -307 450 -307 q 121 -271 197 -307 q 37 -172 45 -235 l 0 -172 l 0 -110 l 53 -110 q 157 -29 79 -74 q 89 25 117 -14 q 61 106 61 64 l 174 235 q 54 434 54 286 q 127 597 54 540 q 339 654 201 654 q 414 649 368 654 q 481 637 460 644 l 633 713 l 657 684 l 580 574 q 622 434 622 522 q 549 268 622 326 q 336 210 476 210 q 233 218 283 210 l 216 167 q 241 130 218 147 q 300 113 265 113 l 448 113 q 681 -66 681 113 q 676 -110 681 -83 l 694 -110 l 694 -172 l 654 -172 m 335 278 q 408 317 385 278 q 430 434 430 356 q 408 549 430 512 q 335 586 386 586 q 267 549 288 586 q 245 434 245 512 q 267 317 245 356 q 335 278 288 278 m 231 -48 q 179 -110 193 -77 l 532 -110 q 446 -48 530 -48 l 231 -48 m 328 -233 q 513 -172 468 -233 l 176 -172 q 328 -233 199 -233 z "},"Ǧ":{"ha":1080,"x_min":68,"x_max":1042,"o":"m 954 47 q 758 3 869 20 q 558 -14 647 -14 q 299 41 410 -14 q 128 199 188 95 q 68 444 68 302 q 198 796 68 673 q 571 920 329 920 q 679 915 630 920 q 769 902 727 910 q 924 862 811 894 l 924 653 l 863 653 l 846 771 q 728 828 793 808 q 595 848 664 848 q 365 750 437 848 q 293 446 293 652 q 369 155 293 254 q 590 56 446 56 q 740 80 669 56 l 740 343 l 623 361 l 623 411 l 1042 411 l 1042 361 l 954 343 l 954 47 m 791 1206 l 791 1183 l 643 985 l 498 985 l 351 1183 l 351 1206 l 403 1206 l 571 1096 l 739 1206 l 791 1206 z "},"ǧ":{"ha":694,"x_min":37,"x_max":681,"o":"m 174 235 q 54 434 54 286 q 127 597 54 540 q 339 654 201 654 q 414 649 368 654 q 481 637 460 644 l 633 713 l 657 684 l 580 574 q 622 434 622 522 q 549 268 622 326 q 336 210 476 210 q 233 218 283 210 l 216 167 q 241 130 218 147 q 300 113 265 113 l 448 113 q 681 -66 681 113 q 641 -194 681 -140 q 522 -277 600 -247 q 327 -307 444 -307 q 113 -267 189 -307 q 37 -158 37 -227 q 61 -99 37 -127 q 157 -29 86 -71 q 89 25 117 -14 q 61 106 61 64 l 174 235 m 532 -113 q 446 -48 532 -48 l 231 -48 q 172 -146 172 -92 q 213 -212 172 -190 q 328 -233 255 -233 q 479 -201 426 -233 q 532 -113 532 -170 m 335 278 q 408 317 385 278 q 430 434 430 356 q 408 549 430 512 q 335 586 386 586 q 267 549 288 586 q 245 434 245 512 q 267 317 245 356 q 335 278 288 278 m 553 979 l 553 957 l 406 758 l 261 758 l 114 957 l 114 979 l 165 979 l 334 869 l 502 979 l 553 979 z "},"Ǩ":{"ha":1080,"x_min":24,"x_max":1069,"o":"m 996 909 l 996 860 l 885 842 l 585 577 l 985 68 l 1069 50 l 1069 0 l 772 0 l 433 438 l 354 370 l 354 68 l 485 50 l 485 0 l 24 0 l 24 50 l 140 68 l 140 842 l 24 860 l 24 909 l 471 909 l 471 860 l 354 842 l 354 472 l 768 842 l 685 860 l 685 909 l 996 909 m 750 1206 l 750 1183 l 602 985 l 458 985 l 311 1183 l 311 1206 l 362 1206 l 530 1096 l 699 1206 l 750 1206 z "},"ǩ":{"ha":772,"x_min":35,"x_max":770,"o":"m 296 306 l 545 577 l 477 593 l 477 637 l 720 637 l 720 593 l 646 578 l 494 418 l 713 61 l 770 45 l 770 0 l 464 0 l 464 45 l 501 61 l 374 284 l 296 230 l 296 61 l 359 45 l 359 0 l 39 0 l 39 45 l 100 61 l 100 903 l 35 919 l 35 964 l 296 964 l 296 306 m 618 1233 l 618 1211 l 470 1012 l 326 1012 l 178 1211 l 178 1233 l 230 1233 l 398 1123 l 566 1233 l 618 1233 z "},"Ǫ":{"ha":1080,"x_min":68,"x_max":1013,"o":"m 625 -281 q 507 -243 549 -281 q 466 -136 466 -205 q 516 -13 466 -68 q 183 112 298 -7 q 68 456 68 231 q 541 920 68 920 q 893 802 774 920 q 1013 456 1013 684 q 913 129 1013 247 q 624 -9 814 11 q 592 -125 592 -68 q 612 -185 592 -164 q 668 -207 631 -207 q 762 -187 709 -207 l 762 -245 q 625 -281 700 -281 m 293 456 q 352 147 293 239 q 541 54 412 54 q 728 147 669 54 q 787 456 787 240 q 728 761 787 671 q 541 851 669 851 q 352 761 412 851 q 293 456 293 671 z "},"ǫ":{"ha":694,"x_min":53,"x_max":642,"o":"m 425 -280 q 307 -242 348 -280 q 265 -134 265 -203 q 315 -12 265 -66 q 116 81 178 -4 q 53 322 53 166 q 126 573 53 491 q 349 654 199 654 q 571 570 500 654 q 642 322 642 486 q 588 94 642 174 q 424 -7 534 13 q 391 -123 391 -64 q 411 -184 391 -163 q 467 -205 431 -205 q 561 -186 508 -205 l 561 -243 q 425 -280 499 -280 m 443 322 q 421 529 443 471 q 345 586 399 586 q 272 531 292 586 q 252 322 252 476 q 272 110 252 165 q 345 54 293 54 q 420 113 398 54 q 443 322 443 172 z "},"Ǭ":{"ha":1080,"x_min":68,"x_max":1013,"o":"m 625 -281 q 507 -243 549 -281 q 466 -136 466 -205 q 516 -13 466 -68 q 183 112 298 -7 q 68 456 68 231 q 541 920 68 920 q 893 802 774 920 q 1013 456 1013 684 q 913 129 1013 247 q 624 -9 814 11 q 592 -125 592 -68 q 612 -185 592 -164 q 668 -207 631 -207 q 762 -187 709 -207 l 762 -245 q 625 -281 700 -281 m 293 456 q 352 147 293 239 q 541 54 412 54 q 728 147 669 54 q 787 456 787 240 q 728 761 787 671 q 541 851 669 851 q 352 761 412 851 q 293 456 293 671 m 327 987 l 327 1088 l 753 1088 l 753 987 l 327 987 z "},"ǭ":{"ha":694,"x_min":53,"x_max":642,"o":"m 425 -280 q 307 -242 348 -280 q 265 -134 265 -203 q 315 -12 265 -66 q 116 81 178 -4 q 53 322 53 166 q 126 573 53 491 q 349 654 199 654 q 571 570 500 654 q 642 322 642 486 q 588 94 642 174 q 424 -7 534 13 q 391 -123 391 -64 q 411 -184 391 -163 q 467 -205 431 -205 q 561 -186 508 -205 l 561 -243 q 425 -280 499 -280 m 443 322 q 421 529 443 471 q 345 586 399 586 q 272 531 292 586 q 252 322 252 476 q 272 110 252 165 q 345 54 293 54 q 420 113 398 54 q 443 322 443 172 m 134 760 l 134 862 l 560 862 l 560 760 l 134 760 z "},"Ǯ":{"ha":808,"x_min":30,"x_max":759,"o":"m 325 -300 q 33 -273 164 -300 l 30 -33 l 92 -33 l 122 -199 q 211 -222 156 -213 q 307 -232 266 -232 q 488 -151 429 -232 q 546 102 546 -70 q 475 329 546 256 q 241 401 404 401 l 191 401 l 191 473 l 460 838 l 380 838 q 163 824 225 838 l 142 681 l 81 681 l 81 909 l 688 909 l 688 838 l 391 460 q 669 344 578 435 q 759 93 759 254 q 645 -198 759 -96 q 325 -300 531 -300 m 612 1256 l 612 1234 l 464 1035 l 319 1035 l 172 1234 l 172 1256 l 224 1256 l 392 1146 l 560 1256 l 612 1256 z "},"ǯ":{"ha":637,"x_min":22,"x_max":591,"o":"m 238 -300 q 119 -286 178 -300 q 22 -246 61 -272 l 22 -194 q 203 -216 108 -216 q 345 -165 296 -216 q 393 0 393 -114 q 348 173 393 117 q 206 230 302 230 l 142 230 l 142 271 l 340 576 l 234 576 q 161 570 196 576 q 112 553 125 564 l 91 448 l 42 448 l 42 637 l 567 637 l 567 604 l 351 286 q 591 12 591 246 q 500 -219 591 -138 q 238 -300 409 -300 m 525 979 l 525 957 l 377 758 l 233 758 l 85 957 l 85 979 l 137 979 l 305 869 l 473 979 l 525 979 z "},"ǰ":{"ha":463,"x_min":-12,"x_max":489,"o":"m 370 -26 q 301 -225 370 -154 q 105 -296 232 -296 q -12 -283 45 -296 l -12 -131 l 32 -131 l 61 -208 q 94 -221 77 -221 q 152 -176 131 -221 q 174 -48 174 -131 l 174 570 l 61 593 l 61 637 l 370 637 l 370 -26 m 489 979 l 489 957 l 341 758 l 197 758 l 50 957 l 50 979 l 101 979 l 269 869 l 437 979 l 489 979 z "},"Ǳ":{"ha":1929,"x_min":24,"x_max":1859,"o":"m 710 454 q 638 743 710 651 q 404 835 566 835 l 354 835 l 354 77 q 472 72 419 72 q 611 110 560 72 q 686 229 663 148 q 710 454 710 310 m 456 909 q 818 799 701 909 q 935 460 935 688 q 823 112 935 226 q 485 -3 711 -3 l 180 0 l 24 0 l 24 50 l 141 68 l 141 842 l 24 860 l 24 909 l 456 909 m 1069 77 l 1573 838 l 1410 838 q 1193 824 1256 838 l 1172 681 l 1112 681 l 1112 909 l 1814 909 l 1814 838 l 1308 71 l 1497 71 q 1650 78 1575 71 q 1758 93 1725 85 l 1798 267 l 1859 267 l 1841 0 l 1069 0 l 1069 77 z "},"ǲ":{"ha":1619,"x_min":24,"x_max":1589,"o":"m 710 454 q 638 743 710 651 q 404 835 566 835 l 354 835 l 354 77 q 472 72 419 72 q 611 110 560 72 q 686 229 663 148 q 710 454 710 310 m 456 909 q 818 799 701 909 q 935 460 935 688 q 823 112 935 226 q 485 -3 711 -3 l 180 0 l 24 0 l 24 50 l 141 68 l 141 842 l 24 860 l 24 909 l 456 909 m 1030 0 l 1030 31 l 1323 576 l 1251 576 q 1177 570 1213 576 q 1128 553 1142 564 l 1107 448 l 1059 448 l 1059 637 l 1554 637 l 1554 604 l 1261 61 l 1362 61 q 1444 70 1401 61 q 1504 93 1487 79 l 1540 240 l 1589 240 l 1571 0 l 1030 0 z "},"ǳ":{"ha":1389,"x_min":56,"x_max":1358,"o":"m 497 36 q 439 4 459 12 q 393 -9 418 -4 q 336 -14 367 -14 q 125 67 195 -14 q 56 317 56 149 q 131 568 56 482 q 346 654 205 654 q 495 636 420 654 q 491 741 491 659 l 491 903 l 426 919 l 426 964 l 687 964 l 687 61 l 757 45 l 757 0 l 511 0 l 497 36 m 255 322 q 287 129 255 195 q 378 62 319 62 q 491 91 433 62 l 491 571 q 384 585 438 585 q 289 518 323 585 q 255 322 255 452 m 800 0 l 800 31 l 1093 576 l 1020 576 q 947 570 982 576 q 898 553 911 564 l 877 448 l 828 448 l 828 637 l 1323 637 l 1323 604 l 1030 61 l 1132 61 q 1213 70 1171 61 q 1274 93 1256 79 l 1310 240 l 1358 240 l 1340 0 l 800 0 z "},"Ǵ":{"ha":1080,"x_min":68,"x_max":1042,"o":"m 954 47 q 758 3 869 20 q 558 -14 647 -14 q 299 41 410 -14 q 128 199 188 95 q 68 444 68 302 q 198 796 68 673 q 571 920 329 920 q 679 915 630 920 q 769 902 727 910 q 924 862 811 894 l 924 653 l 863 653 l 846 771 q 728 828 793 808 q 595 848 664 848 q 365 750 437 848 q 293 446 293 652 q 369 155 293 254 q 590 56 446 56 q 740 80 669 56 l 740 343 l 623 361 l 623 411 l 1042 411 l 1042 361 l 954 343 l 954 47 m 453 985 l 453 1007 l 566 1192 l 759 1192 l 759 1166 l 511 985 l 453 985 z "},"ǵ":{"ha":694,"x_min":37,"x_max":681,"o":"m 174 235 q 54 434 54 286 q 127 597 54 540 q 339 654 201 654 q 414 649 368 654 q 481 637 460 644 l 633 713 l 657 684 l 580 574 q 622 434 622 522 q 549 268 622 326 q 336 210 476 210 q 233 218 283 210 l 216 167 q 241 130 218 147 q 300 113 265 113 l 448 113 q 681 -66 681 113 q 641 -194 681 -140 q 522 -277 600 -247 q 327 -307 444 -307 q 113 -267 189 -307 q 37 -158 37 -227 q 61 -99 37 -127 q 157 -29 86 -71 q 89 25 117 -14 q 61 106 61 64 l 174 235 m 532 -113 q 446 -48 532 -48 l 231 -48 q 172 -146 172 -92 q 213 -212 172 -190 q 328 -233 255 -233 q 479 -201 426 -233 q 532 -113 532 -170 m 335 278 q 408 317 385 278 q 430 434 430 356 q 408 549 430 512 q 335 586 386 586 q 267 549 288 586 q 245 434 245 512 q 267 317 245 356 q 335 278 288 278 m 271 758 l 271 781 l 384 965 l 577 965 l 577 940 l 330 758 l 271 758 z "},"Ƕ":{"ha":1348,"x_min":24,"x_max":1318,"o":"m 1032 -14 q 800 38 875 -14 q 726 195 726 90 l 726 431 l 354 431 l 354 68 l 471 50 l 471 0 l 24 0 l 24 50 l 140 68 l 140 842 l 24 860 l 24 909 l 471 909 l 471 860 l 354 842 l 354 505 l 726 505 l 726 842 l 609 860 l 609 909 l 1057 909 l 1057 860 l 940 842 l 940 203 q 961 79 940 119 q 1031 40 981 40 q 1097 83 1074 40 q 1121 203 1121 126 l 1121 570 l 1040 587 l 1040 637 l 1318 637 l 1318 195 q 1247 40 1318 93 q 1032 -14 1177 -14 z "},"Ƿ":{"ha":897,"x_min":24,"x_max":855,"o":"m 355 -300 l 25 -300 l 25 -251 l 140 -233 l 140 842 l 24 860 l 24 909 l 355 909 l 355 774 q 463 882 401 845 q 597 920 524 920 q 789 833 722 920 q 855 590 855 747 q 726 230 855 381 q 355 -9 597 79 l 355 -300 m 505 776 q 355 684 426 776 l 355 70 q 562 264 492 138 q 631 562 631 390 q 598 720 631 665 q 505 776 565 776 z "},"Ǹ":{"ha":1003,"x_min":26,"x_max":985,"o":"m 783 842 l 661 860 l 661 909 l 985 909 l 985 860 l 868 842 l 868 0 l 789 0 l 228 731 l 228 68 l 350 50 l 350 0 l 26 0 l 26 50 l 143 68 l 143 842 l 26 860 l 26 909 l 338 909 l 783 328 l 783 842 m 561 1035 l 314 1217 l 314 1242 l 507 1242 l 619 1057 l 619 1035 l 561 1035 z "},"ǹ":{"ha":772,"x_min":37,"x_max":751,"o":"m 294 582 l 340 606 q 511 654 435 654 q 688 467 688 654 l 688 61 l 751 45 l 751 0 l 435 0 l 435 45 l 492 61 l 492 440 q 468 529 492 497 q 399 561 444 561 q 296 538 347 561 l 296 61 l 354 45 l 354 0 l 37 0 l 37 45 l 100 61 l 100 576 l 37 593 l 37 637 l 285 637 l 294 582 m 426 758 l 179 940 l 179 965 l 372 965 l 484 780 l 484 758 l 426 758 z "},"Ǻ":{"ha":1003,"x_min":14,"x_max":993,"o":"m 290 50 l 290 0 l 14 0 l 14 50 l 81 68 l 405 917 l 602 917 l 924 68 l 993 50 l 993 0 l 588 0 l 588 50 l 693 68 l 606 303 l 257 303 l 174 68 l 290 50 m 435 780 l 285 378 l 581 378 l 435 780 m 496 863 q 395 904 437 863 q 353 1007 353 946 q 395 1109 353 1068 q 496 1150 437 1150 q 598 1109 556 1150 q 640 1007 640 1068 q 598 905 640 947 q 496 863 556 863 m 496 1074 q 450 1054 470 1074 q 430 1007 430 1034 q 450 961 430 981 q 496 941 470 941 q 543 961 523 941 q 563 1007 563 981 q 543 1054 563 1034 q 496 1074 522 1074 m 426 1193 l 426 1215 l 538 1400 l 732 1400 l 732 1375 l 484 1193 l 426 1193 z "},"ǻ":{"ha":694,"x_min":45,"x_max":673,"o":"m 370 652 q 610 475 610 652 l 610 61 l 673 45 l 673 0 l 439 0 l 424 49 q 328 0 371 13 q 242 -14 286 -14 q 45 176 45 -14 q 74 291 45 248 q 158 355 103 334 q 331 378 213 376 l 414 380 l 414 473 q 319 589 414 589 q 192 553 262 589 l 166 474 l 121 474 l 121 628 q 272 648 224 644 q 370 652 320 652 m 414 320 l 357 318 q 266 283 291 315 q 240 180 240 252 q 260 96 240 123 q 313 68 281 68 q 414 92 359 68 l 414 320 m 351 718 q 250 760 292 718 q 208 863 208 802 q 250 965 208 924 q 351 1006 292 1006 q 453 965 411 1006 q 494 863 494 924 q 453 760 494 802 q 351 718 411 718 m 351 930 q 305 910 325 930 q 285 863 285 890 q 305 816 285 836 q 351 796 325 796 q 398 816 378 796 q 418 863 418 836 q 397 910 418 890 q 351 930 377 930 m 280 1060 l 280 1082 l 393 1267 l 586 1267 l 586 1242 l 338 1060 l 280 1060 z "},"Ǽ":{"ha":1389,"x_min":9,"x_max":1317,"o":"m 561 849 l 464 861 l 464 909 l 1260 909 l 1260 678 l 1198 678 l 1177 825 q 998 835 1101 835 l 862 835 l 862 501 l 1054 501 l 1075 602 l 1135 602 l 1135 322 l 1075 322 l 1054 425 l 862 425 l 862 75 l 1028 75 q 1217 85 1162 75 l 1255 254 l 1317 254 l 1304 0 l 532 0 l 532 50 l 648 68 l 648 303 l 336 303 l 197 68 l 300 50 l 300 0 l 9 0 l 9 50 l 92 68 l 561 849 m 648 378 l 648 838 l 380 378 l 648 378 m 751 985 l 751 1007 l 864 1192 l 1057 1192 l 1057 1166 l 810 985 l 751 985 z "},"ǽ":{"ha":1003,"x_min":45,"x_max":950,"o":"m 670 654 q 880 582 809 654 q 950 369 950 510 l 950 313 l 595 313 l 595 277 q 616 157 597 199 q 674 94 635 116 q 779 71 713 71 q 853 77 810 71 q 922 91 895 83 l 922 39 q 833 1 887 16 q 726 -13 779 -13 q 575 8 633 -13 q 481 71 517 30 q 241 -14 374 -14 q 94 33 143 -14 q 45 176 45 79 q 61 264 45 227 q 109 325 77 300 q 193 362 140 349 q 341 378 245 375 l 408 380 l 408 472 q 385 561 408 532 q 314 589 362 589 q 192 554 252 589 l 165 474 l 121 474 l 121 627 q 349 652 240 652 q 506 604 456 652 q 670 654 569 654 m 316 68 q 386 81 354 68 q 448 111 418 94 q 419 181 431 133 q 408 285 408 229 l 408 320 l 358 318 q 287 302 310 315 q 252 259 263 288 q 240 180 240 230 q 262 96 240 123 q 316 68 283 68 m 681 585 q 617 540 637 585 q 596 385 596 496 l 751 385 q 735 541 751 498 q 681 585 719 585 m 409 758 l 409 781 l 522 965 l 715 965 l 715 940 l 467 758 l 409 758 z "},"Ǿ":{"ha":1080,"x_min":68,"x_max":1013,"o":"m 197 98 q 68 456 68 216 q 541 920 68 920 q 823 855 711 920 l 896 943 l 994 943 l 884 810 q 1013 456 1013 692 q 892 105 1013 224 q 541 -14 771 -14 q 260 51 372 -14 l 187 -37 l 86 -37 l 197 98 m 293 456 q 314 239 293 321 l 735 749 q 541 851 677 851 q 352 761 412 851 q 293 456 293 671 m 787 456 q 766 667 787 587 l 347 157 q 541 54 405 54 q 728 147 669 54 q 787 456 787 240 m 471 985 l 471 1007 l 584 1192 l 777 1192 l 777 1166 l 530 985 l 471 985 z "},"ǿ":{"ha":694,"x_min":47,"x_max":646,"o":"m 130 64 q 53 322 53 146 q 126 573 53 491 q 349 654 199 654 q 511 618 446 654 l 562 693 l 646 693 l 566 576 q 642 322 642 493 q 568 68 642 151 q 343 -14 494 -14 q 186 20 250 -14 l 134 -57 l 47 -57 l 130 64 m 252 322 l 252 281 l 253 243 l 429 500 q 399 565 419 543 q 345 586 379 586 q 272 531 292 586 q 252 322 252 476 m 443 322 l 441 394 l 264 135 q 293 74 274 94 q 345 54 312 54 q 420 113 398 54 q 443 322 443 172 m 254 758 l 254 781 l 367 965 l 560 965 l 560 940 l 313 758 l 254 758 z "},"Ȁ":{"ha":1003,"x_min":14,"x_max":993,"o":"m 290 50 l 290 0 l 14 0 l 14 50 l 81 68 l 405 917 l 602 917 l 924 68 l 993 50 l 993 0 l 588 0 l 588 50 l 693 68 l 606 303 l 257 303 l 174 68 l 290 50 m 435 780 l 285 378 l 581 378 l 435 780 m 401 985 l 154 1166 l 154 1192 l 347 1192 l 459 1006 l 459 985 l 401 985 m 671 985 l 424 1166 l 424 1192 l 617 1192 l 729 1006 l 729 985 l 671 985 z "},"ȁ":{"ha":694,"x_min":19,"x_max":673,"o":"m 370 652 q 610 475 610 652 l 610 61 l 673 45 l 673 0 l 439 0 l 424 49 q 328 0 371 13 q 242 -14 286 -14 q 45 176 45 -14 q 74 291 45 248 q 158 355 103 334 q 331 378 213 376 l 414 380 l 414 473 q 319 589 414 589 q 192 553 262 589 l 166 474 l 121 474 l 121 628 q 272 648 224 644 q 370 652 320 652 m 414 320 l 357 318 q 266 283 291 315 q 240 180 240 252 q 260 96 240 123 q 313 68 281 68 q 414 92 359 68 l 414 320 m 266 758 l 19 940 l 19 965 l 212 965 l 324 780 l 324 758 l 266 758 m 536 758 l 289 940 l 289 965 l 482 965 l 594 780 l 594 758 l 536 758 z "},"Ȃ":{"ha":1003,"x_min":14,"x_max":993,"o":"m 290 50 l 290 0 l 14 0 l 14 50 l 81 68 l 405 917 l 602 917 l 924 68 l 993 50 l 993 0 l 588 0 l 588 50 l 693 68 l 606 303 l 257 303 l 174 68 l 290 50 m 435 780 l 285 378 l 581 378 l 435 780 m 505 1204 q 652 1148 598 1204 q 709 985 705 1093 l 640 985 q 594 1065 629 1042 q 505 1088 559 1088 q 417 1065 450 1088 q 369 985 384 1043 l 300 985 q 355 1147 302 1089 q 505 1204 409 1204 z "},"ȃ":{"ha":694,"x_min":45,"x_max":673,"o":"m 370 652 q 610 475 610 652 l 610 61 l 673 45 l 673 0 l 439 0 l 424 49 q 328 0 371 13 q 242 -14 286 -14 q 45 176 45 -14 q 74 291 45 248 q 158 355 103 334 q 331 378 213 376 l 414 380 l 414 473 q 319 589 414 589 q 192 553 262 589 l 166 474 l 121 474 l 121 628 q 272 648 224 644 q 370 652 320 652 m 414 320 l 357 318 q 266 283 291 315 q 240 180 240 252 q 260 96 240 123 q 313 68 281 68 q 414 92 359 68 l 414 320 m 357 978 q 505 922 451 978 q 562 759 558 866 l 493 759 q 447 839 481 816 q 357 861 412 861 q 270 839 303 861 q 222 759 237 817 l 153 759 q 208 920 155 863 q 357 978 262 978 z "},"Ȅ":{"ha":926,"x_min":24,"x_max":855,"o":"m 24 50 l 140 68 l 140 842 l 24 860 l 24 909 l 798 909 l 798 678 l 736 678 l 715 825 q 495 835 639 835 l 354 835 l 354 501 l 592 501 l 613 602 l 673 602 l 673 322 l 613 322 l 592 425 l 354 425 l 354 75 l 526 75 q 755 85 701 75 l 793 254 l 855 254 l 842 0 l 24 0 l 24 50 m 358 985 l 111 1166 l 111 1192 l 304 1192 l 416 1006 l 416 985 l 358 985 m 628 985 l 381 1166 l 381 1192 l 574 1192 l 686 1006 l 686 985 l 628 985 z "},"ȅ":{"ha":616,"x_min":3,"x_max":581,"o":"m 335 653 q 523 584 465 653 q 581 369 581 515 l 581 313 l 246 313 l 246 302 q 262 159 246 201 q 315 94 279 116 q 416 71 352 71 q 566 91 475 71 l 566 39 q 470 2 529 16 q 354 -13 410 -13 q 122 69 197 -13 q 47 322 47 151 q 119 571 47 489 q 335 653 191 653 m 328 585 q 267 541 287 585 q 247 385 247 496 l 395 385 q 389 512 395 475 q 368 567 382 549 q 328 585 353 585 m 250 758 l 3 940 l 3 965 l 196 965 l 308 780 l 308 758 l 250 758 m 519 758 l 273 940 l 273 965 l 466 965 l 578 780 l 578 758 l 519 758 z "},"Ȇ":{"ha":926,"x_min":24,"x_max":855,"o":"m 24 50 l 140 68 l 140 842 l 24 860 l 24 909 l 798 909 l 798 678 l 736 678 l 715 825 q 495 835 639 835 l 354 835 l 354 501 l 592 501 l 613 602 l 673 602 l 673 322 l 613 322 l 592 425 l 354 425 l 354 75 l 526 75 q 755 85 701 75 l 793 254 l 855 254 l 842 0 l 24 0 l 24 50 m 446 1204 q 593 1148 539 1204 q 650 985 646 1093 l 581 985 q 535 1065 570 1042 q 446 1088 500 1088 q 358 1065 391 1088 q 310 985 325 1043 l 241 985 q 296 1147 243 1089 q 446 1204 350 1204 z "},"ȇ":{"ha":616,"x_min":47,"x_max":581,"o":"m 335 653 q 523 584 465 653 q 581 369 581 515 l 581 313 l 246 313 l 246 302 q 262 159 246 201 q 315 94 279 116 q 416 71 352 71 q 566 91 475 71 l 566 39 q 470 2 529 16 q 354 -13 410 -13 q 122 69 197 -13 q 47 322 47 151 q 119 571 47 489 q 335 653 191 653 m 328 585 q 267 541 287 585 q 247 385 247 496 l 395 385 q 389 512 395 475 q 368 567 382 549 q 328 585 353 585 m 329 978 q 476 922 422 978 q 533 759 530 866 l 465 759 q 418 839 453 816 q 329 861 384 861 q 241 839 275 861 q 193 759 208 817 l 125 759 q 180 920 126 863 q 329 978 233 978 z "},"Ȉ":{"ha":541,"x_min":-55,"x_max":520,"o":"m 377 68 l 494 50 l 494 0 l 47 0 l 47 50 l 163 68 l 163 842 l 47 860 l 47 909 l 494 909 l 494 860 l 377 842 l 377 68 m 192 985 l -55 1166 l -55 1192 l 138 1192 l 250 1006 l 250 985 l 192 985 m 462 985 l 215 1166 l 215 1192 l 408 1192 l 520 1006 l 520 985 l 462 985 z "},"ȉ":{"ha":386,"x_min":-140,"x_max":435,"o":"m 296 61 l 366 45 l 366 0 l 31 0 l 31 45 l 100 61 l 100 576 l 35 593 l 35 637 l 296 637 l 296 61 m 106 758 l -140 940 l -140 965 l 53 965 l 165 780 l 165 758 l 106 758 m 376 758 l 130 940 l 130 965 l 323 965 l 435 780 l 435 758 l 376 758 z "}}}
